G04 #@! TF.GenerationSoftware,KiCad,Pcbnew,(5.1.4-0-10_14)*
G04 #@! TF.CreationDate,2022-11-21T22:36:57+09:00*
G04 #@! TF.ProjectId,NX19,4e583139-2e6b-4696-9361-645f70636258,rev?*
G04 #@! TF.SameCoordinates,Original*
G04 #@! TF.FileFunction,Legend,Top*
G04 #@! TF.FilePolarity,Positive*
%FSLAX46Y46*%
G04 Gerber Fmt 4.6, Leading zero omitted, Abs format (unit mm)*
G04 Created by KiCad (PCBNEW (5.1.4-0-10_14)) date 2022-11-21 22:36:57*
%MOMM*%
%LPD*%
G04 APERTURE LIST*
%ADD10C,0.150000*%
%ADD11C,0.120000*%
G04 APERTURE END LIST*
D10*
X168529095Y-117610000D02*
X168433857Y-117562380D01*
X168291000Y-117562380D01*
X168148142Y-117610000D01*
X168052904Y-117705238D01*
X168005285Y-117800476D01*
X167957666Y-117990952D01*
X167957666Y-118133809D01*
X168005285Y-118324285D01*
X168052904Y-118419523D01*
X168148142Y-118514761D01*
X168291000Y-118562380D01*
X168386238Y-118562380D01*
X168529095Y-118514761D01*
X168576714Y-118467142D01*
X168576714Y-118133809D01*
X168386238Y-118133809D01*
X169005285Y-118562380D02*
X169005285Y-117562380D01*
X169576714Y-118562380D01*
X169576714Y-117562380D01*
X170052904Y-118562380D02*
X170052904Y-117562380D01*
X170291000Y-117562380D01*
X170433857Y-117610000D01*
X170529095Y-117705238D01*
X170576714Y-117800476D01*
X170624333Y-117990952D01*
X170624333Y-118133809D01*
X170576714Y-118324285D01*
X170529095Y-118419523D01*
X170433857Y-118514761D01*
X170291000Y-118562380D01*
X170052904Y-118562380D01*
X164576285Y-118181428D02*
X165338190Y-118181428D01*
X164957238Y-118562380D02*
X164957238Y-117800476D01*
X166290571Y-117562380D02*
X165814380Y-117562380D01*
X165766761Y-118038571D01*
X165814380Y-117990952D01*
X165909619Y-117943333D01*
X166147714Y-117943333D01*
X166242952Y-117990952D01*
X166290571Y-118038571D01*
X166338190Y-118133809D01*
X166338190Y-118371904D01*
X166290571Y-118467142D01*
X166242952Y-118514761D01*
X166147714Y-118562380D01*
X165909619Y-118562380D01*
X165814380Y-118514761D01*
X165766761Y-118467142D01*
X166623904Y-117562380D02*
X166957238Y-118562380D01*
X167290571Y-117562380D01*
X126992523Y-103719380D02*
X127563952Y-103719380D01*
X127278238Y-104719380D02*
X127278238Y-103719380D01*
X128087761Y-103719380D02*
X128278238Y-103719380D01*
X128373476Y-103767000D01*
X128468714Y-103862238D01*
X128516333Y-104052714D01*
X128516333Y-104386047D01*
X128468714Y-104576523D01*
X128373476Y-104671761D01*
X128278238Y-104719380D01*
X128087761Y-104719380D01*
X127992523Y-104671761D01*
X127897285Y-104576523D01*
X127849666Y-104386047D01*
X127849666Y-104052714D01*
X127897285Y-103862238D01*
X127992523Y-103767000D01*
X128087761Y-103719380D01*
X129278238Y-104195571D02*
X128944904Y-104195571D01*
X128944904Y-104719380D02*
X128944904Y-103719380D01*
X129421095Y-103719380D01*
X131087761Y-103767000D02*
X130992523Y-103719380D01*
X130849666Y-103719380D01*
X130706809Y-103767000D01*
X130611571Y-103862238D01*
X130563952Y-103957476D01*
X130516333Y-104147952D01*
X130516333Y-104290809D01*
X130563952Y-104481285D01*
X130611571Y-104576523D01*
X130706809Y-104671761D01*
X130849666Y-104719380D01*
X130944904Y-104719380D01*
X131087761Y-104671761D01*
X131135380Y-104624142D01*
X131135380Y-104290809D01*
X130944904Y-104290809D01*
X131563952Y-104719380D02*
X131563952Y-104052714D01*
X131563952Y-104243190D02*
X131611571Y-104147952D01*
X131659190Y-104100333D01*
X131754428Y-104052714D01*
X131849666Y-104052714D01*
X132325857Y-104719380D02*
X132230619Y-104671761D01*
X132183000Y-104624142D01*
X132135380Y-104528904D01*
X132135380Y-104243190D01*
X132183000Y-104147952D01*
X132230619Y-104100333D01*
X132325857Y-104052714D01*
X132468714Y-104052714D01*
X132563952Y-104100333D01*
X132611571Y-104147952D01*
X132659190Y-104243190D01*
X132659190Y-104528904D01*
X132611571Y-104624142D01*
X132563952Y-104671761D01*
X132468714Y-104719380D01*
X132325857Y-104719380D01*
X132992523Y-104052714D02*
X133230619Y-104719380D01*
X133468714Y-104052714D01*
X134230619Y-104671761D02*
X134135380Y-104719380D01*
X133944904Y-104719380D01*
X133849666Y-104671761D01*
X133802047Y-104576523D01*
X133802047Y-104195571D01*
X133849666Y-104100333D01*
X133944904Y-104052714D01*
X134135380Y-104052714D01*
X134230619Y-104100333D01*
X134278238Y-104195571D01*
X134278238Y-104290809D01*
X133802047Y-104386047D01*
X130508523Y-99718761D02*
X130651380Y-99766380D01*
X130889476Y-99766380D01*
X130984714Y-99718761D01*
X131032333Y-99671142D01*
X131079952Y-99575904D01*
X131079952Y-99480666D01*
X131032333Y-99385428D01*
X130984714Y-99337809D01*
X130889476Y-99290190D01*
X130699000Y-99242571D01*
X130603761Y-99194952D01*
X130556142Y-99147333D01*
X130508523Y-99052095D01*
X130508523Y-98956857D01*
X130556142Y-98861619D01*
X130603761Y-98814000D01*
X130699000Y-98766380D01*
X130937095Y-98766380D01*
X131079952Y-98814000D01*
X132079952Y-99671142D02*
X132032333Y-99718761D01*
X131889476Y-99766380D01*
X131794238Y-99766380D01*
X131651380Y-99718761D01*
X131556142Y-99623523D01*
X131508523Y-99528285D01*
X131460904Y-99337809D01*
X131460904Y-99194952D01*
X131508523Y-99004476D01*
X131556142Y-98909238D01*
X131651380Y-98814000D01*
X131794238Y-98766380D01*
X131889476Y-98766380D01*
X132032333Y-98814000D01*
X132079952Y-98861619D01*
X132984714Y-99766380D02*
X132508523Y-99766380D01*
X132508523Y-98766380D01*
X133659714Y-99718761D02*
X133802571Y-99766380D01*
X134040666Y-99766380D01*
X134135904Y-99718761D01*
X134183523Y-99671142D01*
X134231142Y-99575904D01*
X134231142Y-99480666D01*
X134183523Y-99385428D01*
X134135904Y-99337809D01*
X134040666Y-99290190D01*
X133850190Y-99242571D01*
X133754952Y-99194952D01*
X133707333Y-99147333D01*
X133659714Y-99052095D01*
X133659714Y-98956857D01*
X133707333Y-98861619D01*
X133754952Y-98814000D01*
X133850190Y-98766380D01*
X134088285Y-98766380D01*
X134231142Y-98814000D01*
X134659714Y-99766380D02*
X134659714Y-98766380D01*
X134897809Y-98766380D01*
X135040666Y-98814000D01*
X135135904Y-98909238D01*
X135183523Y-99004476D01*
X135231142Y-99194952D01*
X135231142Y-99337809D01*
X135183523Y-99528285D01*
X135135904Y-99623523D01*
X135040666Y-99718761D01*
X134897809Y-99766380D01*
X134659714Y-99766380D01*
X135612095Y-99480666D02*
X136088285Y-99480666D01*
X135516857Y-99766380D02*
X135850190Y-98766380D01*
X136183523Y-99766380D01*
X135747285Y-104338428D02*
X136509190Y-104338428D01*
X136128238Y-104719380D02*
X136128238Y-103957476D01*
X137461571Y-103719380D02*
X136985380Y-103719380D01*
X136937761Y-104195571D01*
X136985380Y-104147952D01*
X137080619Y-104100333D01*
X137318714Y-104100333D01*
X137413952Y-104147952D01*
X137461571Y-104195571D01*
X137509190Y-104290809D01*
X137509190Y-104528904D01*
X137461571Y-104624142D01*
X137413952Y-104671761D01*
X137318714Y-104719380D01*
X137080619Y-104719380D01*
X136985380Y-104671761D01*
X136937761Y-104624142D01*
X137794904Y-103719380D02*
X138128238Y-104719380D01*
X138461571Y-103719380D01*
X139319095Y-103767000D02*
X139223857Y-103719380D01*
X139081000Y-103719380D01*
X138938142Y-103767000D01*
X138842904Y-103862238D01*
X138795285Y-103957476D01*
X138747666Y-104147952D01*
X138747666Y-104290809D01*
X138795285Y-104481285D01*
X138842904Y-104576523D01*
X138938142Y-104671761D01*
X139081000Y-104719380D01*
X139176238Y-104719380D01*
X139319095Y-104671761D01*
X139366714Y-104624142D01*
X139366714Y-104290809D01*
X139176238Y-104290809D01*
X139795285Y-104719380D02*
X139795285Y-103719380D01*
X140366714Y-104719380D01*
X140366714Y-103719380D01*
X140842904Y-104719380D02*
X140842904Y-103719380D01*
X141081000Y-103719380D01*
X141223857Y-103767000D01*
X141319095Y-103862238D01*
X141366714Y-103957476D01*
X141414333Y-104147952D01*
X141414333Y-104290809D01*
X141366714Y-104481285D01*
X141319095Y-104576523D01*
X141223857Y-104671761D01*
X141081000Y-104719380D01*
X140842904Y-104719380D01*
X149479095Y-67953000D02*
X149383857Y-67905380D01*
X149241000Y-67905380D01*
X149098142Y-67953000D01*
X149002904Y-68048238D01*
X148955285Y-68143476D01*
X148907666Y-68333952D01*
X148907666Y-68476809D01*
X148955285Y-68667285D01*
X149002904Y-68762523D01*
X149098142Y-68857761D01*
X149241000Y-68905380D01*
X149336238Y-68905380D01*
X149479095Y-68857761D01*
X149526714Y-68810142D01*
X149526714Y-68476809D01*
X149336238Y-68476809D01*
X149955285Y-68905380D02*
X149955285Y-67905380D01*
X150526714Y-68905380D01*
X150526714Y-67905380D01*
X151002904Y-68905380D02*
X151002904Y-67905380D01*
X151241000Y-67905380D01*
X151383857Y-67953000D01*
X151479095Y-68048238D01*
X151526714Y-68143476D01*
X151574333Y-68333952D01*
X151574333Y-68476809D01*
X151526714Y-68667285D01*
X151479095Y-68762523D01*
X151383857Y-68857761D01*
X151241000Y-68905380D01*
X151002904Y-68905380D01*
X144478523Y-68984761D02*
X144621380Y-69032380D01*
X144859476Y-69032380D01*
X144954714Y-68984761D01*
X145002333Y-68937142D01*
X145049952Y-68841904D01*
X145049952Y-68746666D01*
X145002333Y-68651428D01*
X144954714Y-68603809D01*
X144859476Y-68556190D01*
X144669000Y-68508571D01*
X144573761Y-68460952D01*
X144526142Y-68413333D01*
X144478523Y-68318095D01*
X144478523Y-68222857D01*
X144526142Y-68127619D01*
X144573761Y-68080000D01*
X144669000Y-68032380D01*
X144907095Y-68032380D01*
X145049952Y-68080000D01*
X146049952Y-68937142D02*
X146002333Y-68984761D01*
X145859476Y-69032380D01*
X145764238Y-69032380D01*
X145621380Y-68984761D01*
X145526142Y-68889523D01*
X145478523Y-68794285D01*
X145430904Y-68603809D01*
X145430904Y-68460952D01*
X145478523Y-68270476D01*
X145526142Y-68175238D01*
X145621380Y-68080000D01*
X145764238Y-68032380D01*
X145859476Y-68032380D01*
X146002333Y-68080000D01*
X146049952Y-68127619D01*
X146954714Y-69032380D02*
X146478523Y-69032380D01*
X146478523Y-68032380D01*
X141406714Y-68984761D02*
X141549571Y-69032380D01*
X141787666Y-69032380D01*
X141882904Y-68984761D01*
X141930523Y-68937142D01*
X141978142Y-68841904D01*
X141978142Y-68746666D01*
X141930523Y-68651428D01*
X141882904Y-68603809D01*
X141787666Y-68556190D01*
X141597190Y-68508571D01*
X141501952Y-68460952D01*
X141454333Y-68413333D01*
X141406714Y-68318095D01*
X141406714Y-68222857D01*
X141454333Y-68127619D01*
X141501952Y-68080000D01*
X141597190Y-68032380D01*
X141835285Y-68032380D01*
X141978142Y-68080000D01*
X142406714Y-69032380D02*
X142406714Y-68032380D01*
X142644809Y-68032380D01*
X142787666Y-68080000D01*
X142882904Y-68175238D01*
X142930523Y-68270476D01*
X142978142Y-68460952D01*
X142978142Y-68603809D01*
X142930523Y-68794285D01*
X142882904Y-68889523D01*
X142787666Y-68984761D01*
X142644809Y-69032380D01*
X142406714Y-69032380D01*
X143359095Y-68746666D02*
X143835285Y-68746666D01*
X143263857Y-69032380D02*
X143597190Y-68032380D01*
X143930523Y-69032380D01*
X139509523Y-68032380D02*
X139033333Y-68032380D01*
X138985714Y-68508571D01*
X139033333Y-68460952D01*
X139128571Y-68413333D01*
X139366666Y-68413333D01*
X139461904Y-68460952D01*
X139509523Y-68508571D01*
X139557142Y-68603809D01*
X139557142Y-68841904D01*
X139509523Y-68937142D01*
X139461904Y-68984761D01*
X139366666Y-69032380D01*
X139128571Y-69032380D01*
X139033333Y-68984761D01*
X138985714Y-68937142D01*
X139842857Y-68032380D02*
X140176190Y-69032380D01*
X140509523Y-68032380D01*
X136207619Y-68032380D02*
X136540952Y-69032380D01*
X136874285Y-68032380D01*
X137207619Y-68651428D02*
X137969523Y-68651428D01*
X137588571Y-69032380D02*
X137588571Y-68270476D01*
X155940523Y-69286380D02*
X155607190Y-68810190D01*
X155369095Y-69286380D02*
X155369095Y-68286380D01*
X155750047Y-68286380D01*
X155845285Y-68334000D01*
X155892904Y-68381619D01*
X155940523Y-68476857D01*
X155940523Y-68619714D01*
X155892904Y-68714952D01*
X155845285Y-68762571D01*
X155750047Y-68810190D01*
X155369095Y-68810190D01*
X156511952Y-69286380D02*
X156416714Y-69238761D01*
X156369095Y-69191142D01*
X156321476Y-69095904D01*
X156321476Y-68810190D01*
X156369095Y-68714952D01*
X156416714Y-68667333D01*
X156511952Y-68619714D01*
X156654809Y-68619714D01*
X156750047Y-68667333D01*
X156797666Y-68714952D01*
X156845285Y-68810190D01*
X156845285Y-69095904D01*
X156797666Y-69191142D01*
X156750047Y-69238761D01*
X156654809Y-69286380D01*
X156511952Y-69286380D01*
X157273857Y-69286380D02*
X157273857Y-68286380D01*
X157273857Y-68667333D02*
X157369095Y-68619714D01*
X157559571Y-68619714D01*
X157654809Y-68667333D01*
X157702428Y-68714952D01*
X157750047Y-68810190D01*
X157750047Y-69095904D01*
X157702428Y-69191142D01*
X157654809Y-69238761D01*
X157559571Y-69286380D01*
X157369095Y-69286380D01*
X157273857Y-69238761D01*
X158321476Y-69286380D02*
X158226238Y-69238761D01*
X158178619Y-69191142D01*
X158131000Y-69095904D01*
X158131000Y-68810190D01*
X158178619Y-68714952D01*
X158226238Y-68667333D01*
X158321476Y-68619714D01*
X158464333Y-68619714D01*
X158559571Y-68667333D01*
X158607190Y-68714952D01*
X158654809Y-68810190D01*
X158654809Y-69095904D01*
X158607190Y-69191142D01*
X158559571Y-69238761D01*
X158464333Y-69286380D01*
X158321476Y-69286380D01*
X158940523Y-68286380D02*
X159511952Y-68286380D01*
X159226238Y-69286380D02*
X159226238Y-68286380D01*
X160273857Y-69286380D02*
X160273857Y-68762571D01*
X160226238Y-68667333D01*
X160131000Y-68619714D01*
X159940523Y-68619714D01*
X159845285Y-68667333D01*
X160273857Y-69238761D02*
X160178619Y-69286380D01*
X159940523Y-69286380D01*
X159845285Y-69238761D01*
X159797666Y-69143523D01*
X159797666Y-69048285D01*
X159845285Y-68953047D01*
X159940523Y-68905428D01*
X160178619Y-68905428D01*
X160273857Y-68857809D01*
X160750047Y-69286380D02*
X160750047Y-68286380D01*
X160845285Y-68905428D02*
X161131000Y-69286380D01*
X161131000Y-68619714D02*
X160750047Y-69000666D01*
X161988142Y-69286380D02*
X161988142Y-68762571D01*
X161940523Y-68667333D01*
X161845285Y-68619714D01*
X161654809Y-68619714D01*
X161559571Y-68667333D01*
X161988142Y-69238761D02*
X161892904Y-69286380D01*
X161654809Y-69286380D01*
X161559571Y-69238761D01*
X161511952Y-69143523D01*
X161511952Y-69048285D01*
X161559571Y-68953047D01*
X161654809Y-68905428D01*
X161892904Y-68905428D01*
X161988142Y-68857809D01*
X162607190Y-69286380D02*
X162511952Y-69238761D01*
X162464333Y-69191142D01*
X162416714Y-69095904D01*
X162416714Y-68810190D01*
X162464333Y-68714952D01*
X162511952Y-68667333D01*
X162607190Y-68619714D01*
X162750047Y-68619714D01*
X162845285Y-68667333D01*
X162892904Y-68714952D01*
X162940523Y-68810190D01*
X162940523Y-69095904D01*
X162892904Y-69191142D01*
X162845285Y-69238761D01*
X162750047Y-69286380D01*
X162607190Y-69286380D01*
X155529595Y-66048380D02*
X155529595Y-65048380D01*
X156101023Y-66048380D01*
X156101023Y-65048380D01*
X156481976Y-65048380D02*
X157148642Y-66048380D01*
X157148642Y-65048380D02*
X156481976Y-66048380D01*
X158053404Y-66048380D02*
X157481976Y-66048380D01*
X157767690Y-66048380D02*
X157767690Y-65048380D01*
X157672452Y-65191238D01*
X157577214Y-65286476D01*
X157481976Y-65334095D01*
X158529595Y-66048380D02*
X158720071Y-66048380D01*
X158815309Y-66000761D01*
X158862928Y-65953142D01*
X158958166Y-65810285D01*
X159005785Y-65619809D01*
X159005785Y-65238857D01*
X158958166Y-65143619D01*
X158910547Y-65096000D01*
X158815309Y-65048380D01*
X158624833Y-65048380D01*
X158529595Y-65096000D01*
X158481976Y-65143619D01*
X158434357Y-65238857D01*
X158434357Y-65476952D01*
X158481976Y-65572190D01*
X158529595Y-65619809D01*
X158624833Y-65667428D01*
X158815309Y-65667428D01*
X158910547Y-65619809D01*
X158958166Y-65572190D01*
X159005785Y-65476952D01*
X155529595Y-67698380D02*
X155529595Y-66698380D01*
X155910547Y-66698380D01*
X156005785Y-66746000D01*
X156053404Y-66793619D01*
X156101023Y-66888857D01*
X156101023Y-67031714D01*
X156053404Y-67126952D01*
X156005785Y-67174571D01*
X155910547Y-67222190D01*
X155529595Y-67222190D01*
X157101023Y-67603142D02*
X157053404Y-67650761D01*
X156910547Y-67698380D01*
X156815309Y-67698380D01*
X156672452Y-67650761D01*
X156577214Y-67555523D01*
X156529595Y-67460285D01*
X156481976Y-67269809D01*
X156481976Y-67126952D01*
X156529595Y-66936476D01*
X156577214Y-66841238D01*
X156672452Y-66746000D01*
X156815309Y-66698380D01*
X156910547Y-66698380D01*
X157053404Y-66746000D01*
X157101023Y-66793619D01*
X157862928Y-67174571D02*
X158005785Y-67222190D01*
X158053404Y-67269809D01*
X158101023Y-67365047D01*
X158101023Y-67507904D01*
X158053404Y-67603142D01*
X158005785Y-67650761D01*
X157910547Y-67698380D01*
X157529595Y-67698380D01*
X157529595Y-66698380D01*
X157862928Y-66698380D01*
X157958166Y-66746000D01*
X158005785Y-66793619D01*
X158053404Y-66888857D01*
X158053404Y-66984095D01*
X158005785Y-67079333D01*
X157958166Y-67126952D01*
X157862928Y-67174571D01*
X157529595Y-67174571D01*
X159148642Y-66698380D02*
X159481976Y-67698380D01*
X159815309Y-66698380D01*
X160339119Y-66698380D02*
X160434357Y-66698380D01*
X160529595Y-66746000D01*
X160577214Y-66793619D01*
X160624833Y-66888857D01*
X160672452Y-67079333D01*
X160672452Y-67317428D01*
X160624833Y-67507904D01*
X160577214Y-67603142D01*
X160529595Y-67650761D01*
X160434357Y-67698380D01*
X160339119Y-67698380D01*
X160243880Y-67650761D01*
X160196261Y-67603142D01*
X160148642Y-67507904D01*
X160101023Y-67317428D01*
X160101023Y-67079333D01*
X160148642Y-66888857D01*
X160196261Y-66793619D01*
X160243880Y-66746000D01*
X160339119Y-66698380D01*
X161101023Y-67603142D02*
X161148642Y-67650761D01*
X161101023Y-67698380D01*
X161053404Y-67650761D01*
X161101023Y-67603142D01*
X161101023Y-67698380D01*
X162101023Y-67698380D02*
X161529595Y-67698380D01*
X161815309Y-67698380D02*
X161815309Y-66698380D01*
X161720071Y-66841238D01*
X161624833Y-66936476D01*
X161529595Y-66984095D01*
X158821523Y-117610000D02*
X158726285Y-117562380D01*
X158583428Y-117562380D01*
X158440571Y-117610000D01*
X158345333Y-117705238D01*
X158297714Y-117800476D01*
X158250095Y-117990952D01*
X158250095Y-118133809D01*
X158297714Y-118324285D01*
X158345333Y-118419523D01*
X158440571Y-118514761D01*
X158583428Y-118562380D01*
X158678666Y-118562380D01*
X158821523Y-118514761D01*
X158869142Y-118467142D01*
X158869142Y-118133809D01*
X158678666Y-118133809D01*
X159821523Y-118562380D02*
X159250095Y-118562380D01*
X159535809Y-118562380D02*
X159535809Y-117562380D01*
X159440571Y-117705238D01*
X159345333Y-117800476D01*
X159250095Y-117848095D01*
X160392952Y-117990952D02*
X160297714Y-117943333D01*
X160250095Y-117895714D01*
X160202476Y-117800476D01*
X160202476Y-117752857D01*
X160250095Y-117657619D01*
X160297714Y-117610000D01*
X160392952Y-117562380D01*
X160583428Y-117562380D01*
X160678666Y-117610000D01*
X160726285Y-117657619D01*
X160773904Y-117752857D01*
X160773904Y-117800476D01*
X160726285Y-117895714D01*
X160678666Y-117943333D01*
X160583428Y-117990952D01*
X160392952Y-117990952D01*
X160297714Y-118038571D01*
X160250095Y-118086190D01*
X160202476Y-118181428D01*
X160202476Y-118371904D01*
X160250095Y-118467142D01*
X160297714Y-118514761D01*
X160392952Y-118562380D01*
X160583428Y-118562380D01*
X160678666Y-118514761D01*
X160726285Y-118467142D01*
X160773904Y-118371904D01*
X160773904Y-118181428D01*
X160726285Y-118086190D01*
X160678666Y-118038571D01*
X160583428Y-117990952D01*
X162123523Y-117610000D02*
X162028285Y-117562380D01*
X161885428Y-117562380D01*
X161742571Y-117610000D01*
X161647333Y-117705238D01*
X161599714Y-117800476D01*
X161552095Y-117990952D01*
X161552095Y-118133809D01*
X161599714Y-118324285D01*
X161647333Y-118419523D01*
X161742571Y-118514761D01*
X161885428Y-118562380D01*
X161980666Y-118562380D01*
X162123523Y-118514761D01*
X162171142Y-118467142D01*
X162171142Y-118133809D01*
X161980666Y-118133809D01*
X163123523Y-118562380D02*
X162552095Y-118562380D01*
X162837809Y-118562380D02*
X162837809Y-117562380D01*
X162742571Y-117705238D01*
X162647333Y-117800476D01*
X162552095Y-117848095D01*
X163599714Y-118562380D02*
X163790190Y-118562380D01*
X163885428Y-118514761D01*
X163933047Y-118467142D01*
X164028285Y-118324285D01*
X164075904Y-118133809D01*
X164075904Y-117752857D01*
X164028285Y-117657619D01*
X163980666Y-117610000D01*
X163885428Y-117562380D01*
X163694952Y-117562380D01*
X163599714Y-117610000D01*
X163552095Y-117657619D01*
X163504476Y-117752857D01*
X163504476Y-117990952D01*
X163552095Y-118086190D01*
X163599714Y-118133809D01*
X163694952Y-118181428D01*
X163885428Y-118181428D01*
X163980666Y-118133809D01*
X164028285Y-118086190D01*
X164075904Y-117990952D01*
X166243047Y-81859428D02*
X167004952Y-81859428D01*
X166624000Y-82240380D02*
X166624000Y-81478476D01*
X166298571Y-97829428D02*
X166346190Y-97686571D01*
X166393809Y-97638952D01*
X166489047Y-97591333D01*
X166631904Y-97591333D01*
X166727142Y-97638952D01*
X166774761Y-97686571D01*
X166822380Y-97781809D01*
X166822380Y-98162761D01*
X165822380Y-98162761D01*
X165822380Y-97829428D01*
X165870000Y-97734190D01*
X165917619Y-97686571D01*
X166012857Y-97638952D01*
X166108095Y-97638952D01*
X166203333Y-97686571D01*
X166250952Y-97734190D01*
X166298571Y-97829428D01*
X166298571Y-98162761D01*
X166822380Y-96734190D02*
X166298571Y-96734190D01*
X166203333Y-96781809D01*
X166155714Y-96877047D01*
X166155714Y-97067523D01*
X166203333Y-97162761D01*
X166774761Y-96734190D02*
X166822380Y-96829428D01*
X166822380Y-97067523D01*
X166774761Y-97162761D01*
X166679523Y-97210380D01*
X166584285Y-97210380D01*
X166489047Y-97162761D01*
X166441428Y-97067523D01*
X166441428Y-96829428D01*
X166393809Y-96734190D01*
X166155714Y-96400857D02*
X166155714Y-96019904D01*
X165822380Y-96258000D02*
X166679523Y-96258000D01*
X166774761Y-96210380D01*
X166822380Y-96115142D01*
X166822380Y-96019904D01*
X166155714Y-95829428D02*
X166155714Y-95448476D01*
X165822380Y-95686571D02*
X166679523Y-95686571D01*
X166774761Y-95638952D01*
X166822380Y-95543714D01*
X166822380Y-95448476D01*
X166774761Y-94734190D02*
X166822380Y-94829428D01*
X166822380Y-95019904D01*
X166774761Y-95115142D01*
X166679523Y-95162761D01*
X166298571Y-95162761D01*
X166203333Y-95115142D01*
X166155714Y-95019904D01*
X166155714Y-94829428D01*
X166203333Y-94734190D01*
X166298571Y-94686571D01*
X166393809Y-94686571D01*
X166489047Y-95162761D01*
X166822380Y-94258000D02*
X166155714Y-94258000D01*
X166346190Y-94258000D02*
X166250952Y-94210380D01*
X166203333Y-94162761D01*
X166155714Y-94067523D01*
X166155714Y-93972285D01*
X166155714Y-93734190D02*
X166822380Y-93496095D01*
X166155714Y-93258000D02*
X166822380Y-93496095D01*
X167060476Y-93591333D01*
X167108095Y-93638952D01*
X167155714Y-93734190D01*
D11*
X170688000Y-115570000D02*
X168402000Y-115570000D01*
X162306000Y-115570000D02*
X164338000Y-115570000D01*
X162306000Y-77216000D02*
X162306000Y-115570000D01*
X170688000Y-77216000D02*
X170688000Y-115570000D01*
X170688000Y-77216000D02*
X168656000Y-77216000D01*
X164338000Y-77216000D02*
X162306000Y-77216000D01*
D10*
X120523047Y-110561428D02*
X121284952Y-110561428D01*
X120904000Y-110942380D02*
X120904000Y-110180476D01*
X120578571Y-98083428D02*
X120626190Y-97940571D01*
X120673809Y-97892952D01*
X120769047Y-97845333D01*
X120911904Y-97845333D01*
X121007142Y-97892952D01*
X121054761Y-97940571D01*
X121102380Y-98035809D01*
X121102380Y-98416761D01*
X120102380Y-98416761D01*
X120102380Y-98083428D01*
X120150000Y-97988190D01*
X120197619Y-97940571D01*
X120292857Y-97892952D01*
X120388095Y-97892952D01*
X120483333Y-97940571D01*
X120530952Y-97988190D01*
X120578571Y-98083428D01*
X120578571Y-98416761D01*
X121102380Y-96988190D02*
X120578571Y-96988190D01*
X120483333Y-97035809D01*
X120435714Y-97131047D01*
X120435714Y-97321523D01*
X120483333Y-97416761D01*
X121054761Y-96988190D02*
X121102380Y-97083428D01*
X121102380Y-97321523D01*
X121054761Y-97416761D01*
X120959523Y-97464380D01*
X120864285Y-97464380D01*
X120769047Y-97416761D01*
X120721428Y-97321523D01*
X120721428Y-97083428D01*
X120673809Y-96988190D01*
X120435714Y-96654857D02*
X120435714Y-96273904D01*
X120102380Y-96512000D02*
X120959523Y-96512000D01*
X121054761Y-96464380D01*
X121102380Y-96369142D01*
X121102380Y-96273904D01*
X120435714Y-96083428D02*
X120435714Y-95702476D01*
X120102380Y-95940571D02*
X120959523Y-95940571D01*
X121054761Y-95892952D01*
X121102380Y-95797714D01*
X121102380Y-95702476D01*
X121054761Y-94988190D02*
X121102380Y-95083428D01*
X121102380Y-95273904D01*
X121054761Y-95369142D01*
X120959523Y-95416761D01*
X120578571Y-95416761D01*
X120483333Y-95369142D01*
X120435714Y-95273904D01*
X120435714Y-95083428D01*
X120483333Y-94988190D01*
X120578571Y-94940571D01*
X120673809Y-94940571D01*
X120769047Y-95416761D01*
X121102380Y-94512000D02*
X120435714Y-94512000D01*
X120626190Y-94512000D02*
X120530952Y-94464380D01*
X120483333Y-94416761D01*
X120435714Y-94321523D01*
X120435714Y-94226285D01*
X120435714Y-93988190D02*
X121102380Y-93750095D01*
X120435714Y-93512000D02*
X121102380Y-93750095D01*
X121340476Y-93845333D01*
X121388095Y-93892952D01*
X121435714Y-93988190D01*
D11*
X125222000Y-115570000D02*
X122936000Y-115570000D01*
X125222000Y-77216000D02*
X125222000Y-115570000D01*
X122936000Y-77216000D02*
X125222000Y-77216000D01*
X116840000Y-115570000D02*
X118872000Y-115570000D01*
X116840000Y-77216000D02*
X116840000Y-115570000D01*
X118872000Y-77216000D02*
X116840000Y-77216000D01*
X154178000Y-92964000D02*
X154178000Y-65786000D01*
X147574000Y-92964000D02*
X154178000Y-92964000D01*
X133350000Y-92964000D02*
X140208000Y-92964000D01*
X133350000Y-66040000D02*
X133350000Y-92964000D01*
D10*
X140414761Y-79954380D02*
X140414761Y-78954380D01*
X140795714Y-78954380D01*
X140890952Y-79002000D01*
X140938571Y-79049619D01*
X140986190Y-79144857D01*
X140986190Y-79287714D01*
X140938571Y-79382952D01*
X140890952Y-79430571D01*
X140795714Y-79478190D01*
X140414761Y-79478190D01*
X141986190Y-79859142D02*
X141938571Y-79906761D01*
X141795714Y-79954380D01*
X141700476Y-79954380D01*
X141557619Y-79906761D01*
X141462380Y-79811523D01*
X141414761Y-79716285D01*
X141367142Y-79525809D01*
X141367142Y-79382952D01*
X141414761Y-79192476D01*
X141462380Y-79097238D01*
X141557619Y-79002000D01*
X141700476Y-78954380D01*
X141795714Y-78954380D01*
X141938571Y-79002000D01*
X141986190Y-79049619D01*
X142367142Y-79668666D02*
X142843333Y-79668666D01*
X142271904Y-79954380D02*
X142605238Y-78954380D01*
X142938571Y-79954380D01*
X143319523Y-79954380D02*
X143510000Y-79954380D01*
X143605238Y-79906761D01*
X143652857Y-79859142D01*
X143748095Y-79716285D01*
X143795714Y-79525809D01*
X143795714Y-79144857D01*
X143748095Y-79049619D01*
X143700476Y-79002000D01*
X143605238Y-78954380D01*
X143414761Y-78954380D01*
X143319523Y-79002000D01*
X143271904Y-79049619D01*
X143224285Y-79144857D01*
X143224285Y-79382952D01*
X143271904Y-79478190D01*
X143319523Y-79525809D01*
X143414761Y-79573428D01*
X143605238Y-79573428D01*
X143700476Y-79525809D01*
X143748095Y-79478190D01*
X143795714Y-79382952D01*
X144652857Y-78954380D02*
X144462380Y-78954380D01*
X144367142Y-79002000D01*
X144319523Y-79049619D01*
X144224285Y-79192476D01*
X144176666Y-79382952D01*
X144176666Y-79763904D01*
X144224285Y-79859142D01*
X144271904Y-79906761D01*
X144367142Y-79954380D01*
X144557619Y-79954380D01*
X144652857Y-79906761D01*
X144700476Y-79859142D01*
X144748095Y-79763904D01*
X144748095Y-79525809D01*
X144700476Y-79430571D01*
X144652857Y-79382952D01*
X144557619Y-79335333D01*
X144367142Y-79335333D01*
X144271904Y-79382952D01*
X144224285Y-79430571D01*
X144176666Y-79525809D01*
X145319523Y-79382952D02*
X145224285Y-79335333D01*
X145176666Y-79287714D01*
X145129047Y-79192476D01*
X145129047Y-79144857D01*
X145176666Y-79049619D01*
X145224285Y-79002000D01*
X145319523Y-78954380D01*
X145510000Y-78954380D01*
X145605238Y-79002000D01*
X145652857Y-79049619D01*
X145700476Y-79144857D01*
X145700476Y-79192476D01*
X145652857Y-79287714D01*
X145605238Y-79335333D01*
X145510000Y-79382952D01*
X145319523Y-79382952D01*
X145224285Y-79430571D01*
X145176666Y-79478190D01*
X145129047Y-79573428D01*
X145129047Y-79763904D01*
X145176666Y-79859142D01*
X145224285Y-79906761D01*
X145319523Y-79954380D01*
X145510000Y-79954380D01*
X145605238Y-79906761D01*
X145652857Y-79859142D01*
X145700476Y-79763904D01*
X145700476Y-79573428D01*
X145652857Y-79478190D01*
X145605238Y-79430571D01*
X145510000Y-79382952D01*
X146605238Y-78954380D02*
X146129047Y-78954380D01*
X146081428Y-79430571D01*
X146129047Y-79382952D01*
X146224285Y-79335333D01*
X146462380Y-79335333D01*
X146557619Y-79382952D01*
X146605238Y-79430571D01*
X146652857Y-79525809D01*
X146652857Y-79763904D01*
X146605238Y-79859142D01*
X146557619Y-79906761D01*
X146462380Y-79954380D01*
X146224285Y-79954380D01*
X146129047Y-79906761D01*
X146081428Y-79859142D01*
X158742761Y-123261380D02*
X158742761Y-122261380D01*
X159076095Y-122975666D01*
X159409428Y-122261380D01*
X159409428Y-123261380D01*
X160361809Y-122261380D02*
X159885619Y-122261380D01*
X159838000Y-122737571D01*
X159885619Y-122689952D01*
X159980857Y-122642333D01*
X160218952Y-122642333D01*
X160314190Y-122689952D01*
X160361809Y-122737571D01*
X160409428Y-122832809D01*
X160409428Y-123070904D01*
X160361809Y-123166142D01*
X160314190Y-123213761D01*
X160218952Y-123261380D01*
X159980857Y-123261380D01*
X159885619Y-123213761D01*
X159838000Y-123166142D01*
X160790380Y-123213761D02*
X160933238Y-123261380D01*
X161171333Y-123261380D01*
X161266571Y-123213761D01*
X161314190Y-123166142D01*
X161361809Y-123070904D01*
X161361809Y-122975666D01*
X161314190Y-122880428D01*
X161266571Y-122832809D01*
X161171333Y-122785190D01*
X160980857Y-122737571D01*
X160885619Y-122689952D01*
X160838000Y-122642333D01*
X160790380Y-122547095D01*
X160790380Y-122451857D01*
X160838000Y-122356619D01*
X160885619Y-122309000D01*
X160980857Y-122261380D01*
X161218952Y-122261380D01*
X161361809Y-122309000D01*
X161647523Y-122594714D02*
X162028476Y-122594714D01*
X161790380Y-122261380D02*
X161790380Y-123118523D01*
X161838000Y-123213761D01*
X161933238Y-123261380D01*
X162028476Y-123261380D01*
X162790380Y-123261380D02*
X162790380Y-122737571D01*
X162742761Y-122642333D01*
X162647523Y-122594714D01*
X162457047Y-122594714D01*
X162361809Y-122642333D01*
X162790380Y-123213761D02*
X162695142Y-123261380D01*
X162457047Y-123261380D01*
X162361809Y-123213761D01*
X162314190Y-123118523D01*
X162314190Y-123023285D01*
X162361809Y-122928047D01*
X162457047Y-122880428D01*
X162695142Y-122880428D01*
X162790380Y-122832809D01*
X163266571Y-123261380D02*
X163266571Y-122594714D01*
X163266571Y-122689952D02*
X163314190Y-122642333D01*
X163409428Y-122594714D01*
X163552285Y-122594714D01*
X163647523Y-122642333D01*
X163695142Y-122737571D01*
X163695142Y-123261380D01*
X163695142Y-122737571D02*
X163742761Y-122642333D01*
X163838000Y-122594714D01*
X163980857Y-122594714D01*
X164076095Y-122642333D01*
X164123714Y-122737571D01*
X164123714Y-123261380D01*
X164599904Y-122594714D02*
X164599904Y-123594714D01*
X164599904Y-122642333D02*
X164695142Y-122594714D01*
X164885619Y-122594714D01*
X164980857Y-122642333D01*
X165028476Y-122689952D01*
X165076095Y-122785190D01*
X165076095Y-123070904D01*
X165028476Y-123166142D01*
X164980857Y-123213761D01*
X164885619Y-123261380D01*
X164695142Y-123261380D01*
X164599904Y-123213761D01*
X166790380Y-122309000D02*
X166695142Y-122261380D01*
X166552285Y-122261380D01*
X166409428Y-122309000D01*
X166314190Y-122404238D01*
X166266571Y-122499476D01*
X166218952Y-122689952D01*
X166218952Y-122832809D01*
X166266571Y-123023285D01*
X166314190Y-123118523D01*
X166409428Y-123213761D01*
X166552285Y-123261380D01*
X166647523Y-123261380D01*
X166790380Y-123213761D01*
X166838000Y-123166142D01*
X166838000Y-122832809D01*
X166647523Y-122832809D01*
X167266571Y-123261380D02*
X167266571Y-122594714D01*
X167266571Y-122785190D02*
X167314190Y-122689952D01*
X167361809Y-122642333D01*
X167457047Y-122594714D01*
X167552285Y-122594714D01*
X168028476Y-123261380D02*
X167933238Y-123213761D01*
X167885619Y-123166142D01*
X167838000Y-123070904D01*
X167838000Y-122785190D01*
X167885619Y-122689952D01*
X167933238Y-122642333D01*
X168028476Y-122594714D01*
X168171333Y-122594714D01*
X168266571Y-122642333D01*
X168314190Y-122689952D01*
X168361809Y-122785190D01*
X168361809Y-123070904D01*
X168314190Y-123166142D01*
X168266571Y-123213761D01*
X168171333Y-123261380D01*
X168028476Y-123261380D01*
X168695142Y-122594714D02*
X168933238Y-123261380D01*
X169171333Y-122594714D01*
X169933238Y-123213761D02*
X169838000Y-123261380D01*
X169647523Y-123261380D01*
X169552285Y-123213761D01*
X169504666Y-123118523D01*
X169504666Y-122737571D01*
X169552285Y-122642333D01*
X169647523Y-122594714D01*
X169838000Y-122594714D01*
X169933238Y-122642333D01*
X169980857Y-122737571D01*
X169980857Y-122832809D01*
X169504666Y-122928047D01*
X142057714Y-122436000D02*
X141962476Y-122388380D01*
X141819619Y-122388380D01*
X141676761Y-122436000D01*
X141581523Y-122531238D01*
X141533904Y-122626476D01*
X141486285Y-122816952D01*
X141486285Y-122959809D01*
X141533904Y-123150285D01*
X141581523Y-123245523D01*
X141676761Y-123340761D01*
X141819619Y-123388380D01*
X141914857Y-123388380D01*
X142057714Y-123340761D01*
X142105333Y-123293142D01*
X142105333Y-122959809D01*
X141914857Y-122959809D01*
X142724380Y-122912190D02*
X142724380Y-123388380D01*
X142391047Y-122388380D02*
X142724380Y-122912190D01*
X143057714Y-122388380D01*
X143391047Y-123007428D02*
X144152952Y-123007428D01*
X145105333Y-122388380D02*
X144629142Y-122388380D01*
X144581523Y-122864571D01*
X144629142Y-122816952D01*
X144724380Y-122769333D01*
X144962476Y-122769333D01*
X145057714Y-122816952D01*
X145105333Y-122864571D01*
X145152952Y-122959809D01*
X145152952Y-123197904D01*
X145105333Y-123293142D01*
X145057714Y-123340761D01*
X144962476Y-123388380D01*
X144724380Y-123388380D01*
X144629142Y-123340761D01*
X144581523Y-123293142D01*
X145533904Y-122483619D02*
X145581523Y-122436000D01*
X145676761Y-122388380D01*
X145914857Y-122388380D01*
X146010095Y-122436000D01*
X146057714Y-122483619D01*
X146105333Y-122578857D01*
X146105333Y-122674095D01*
X146057714Y-122816952D01*
X145486285Y-123388380D01*
X146105333Y-123388380D01*
X147057714Y-123388380D02*
X146486285Y-123388380D01*
X146772000Y-123388380D02*
X146772000Y-122388380D01*
X146676761Y-122531238D01*
X146581523Y-122626476D01*
X146486285Y-122674095D01*
X120047142Y-123388380D02*
X120047142Y-122388380D01*
X120380476Y-123102666D01*
X120713809Y-122388380D01*
X120713809Y-123388380D01*
X121666190Y-122388380D02*
X121190000Y-122388380D01*
X121142380Y-122864571D01*
X121190000Y-122816952D01*
X121285238Y-122769333D01*
X121523333Y-122769333D01*
X121618571Y-122816952D01*
X121666190Y-122864571D01*
X121713809Y-122959809D01*
X121713809Y-123197904D01*
X121666190Y-123293142D01*
X121618571Y-123340761D01*
X121523333Y-123388380D01*
X121285238Y-123388380D01*
X121190000Y-123340761D01*
X121142380Y-123293142D01*
X122094761Y-123340761D02*
X122237619Y-123388380D01*
X122475714Y-123388380D01*
X122570952Y-123340761D01*
X122618571Y-123293142D01*
X122666190Y-123197904D01*
X122666190Y-123102666D01*
X122618571Y-123007428D01*
X122570952Y-122959809D01*
X122475714Y-122912190D01*
X122285238Y-122864571D01*
X122190000Y-122816952D01*
X122142380Y-122769333D01*
X122094761Y-122674095D01*
X122094761Y-122578857D01*
X122142380Y-122483619D01*
X122190000Y-122436000D01*
X122285238Y-122388380D01*
X122523333Y-122388380D01*
X122666190Y-122436000D01*
X122951904Y-122721714D02*
X123332857Y-122721714D01*
X123094761Y-122388380D02*
X123094761Y-123245523D01*
X123142380Y-123340761D01*
X123237619Y-123388380D01*
X123332857Y-123388380D01*
X124094761Y-123388380D02*
X124094761Y-122864571D01*
X124047142Y-122769333D01*
X123951904Y-122721714D01*
X123761428Y-122721714D01*
X123666190Y-122769333D01*
X124094761Y-123340761D02*
X123999523Y-123388380D01*
X123761428Y-123388380D01*
X123666190Y-123340761D01*
X123618571Y-123245523D01*
X123618571Y-123150285D01*
X123666190Y-123055047D01*
X123761428Y-123007428D01*
X123999523Y-123007428D01*
X124094761Y-122959809D01*
X124570952Y-123388380D02*
X124570952Y-122721714D01*
X124570952Y-122816952D02*
X124618571Y-122769333D01*
X124713809Y-122721714D01*
X124856666Y-122721714D01*
X124951904Y-122769333D01*
X124999523Y-122864571D01*
X124999523Y-123388380D01*
X124999523Y-122864571D02*
X125047142Y-122769333D01*
X125142380Y-122721714D01*
X125285238Y-122721714D01*
X125380476Y-122769333D01*
X125428095Y-122864571D01*
X125428095Y-123388380D01*
X125904285Y-122721714D02*
X125904285Y-123721714D01*
X125904285Y-122769333D02*
X125999523Y-122721714D01*
X126189999Y-122721714D01*
X126285238Y-122769333D01*
X126332857Y-122816952D01*
X126380476Y-122912190D01*
X126380476Y-123197904D01*
X126332857Y-123293142D01*
X126285238Y-123340761D01*
X126189999Y-123388380D01*
X125999523Y-123388380D01*
X125904285Y-123340761D01*
X141279714Y-118768761D02*
X141422571Y-118816380D01*
X141660666Y-118816380D01*
X141755904Y-118768761D01*
X141803523Y-118721142D01*
X141851142Y-118625904D01*
X141851142Y-118530666D01*
X141803523Y-118435428D01*
X141755904Y-118387809D01*
X141660666Y-118340190D01*
X141470190Y-118292571D01*
X141374952Y-118244952D01*
X141327333Y-118197333D01*
X141279714Y-118102095D01*
X141279714Y-118006857D01*
X141327333Y-117911619D01*
X141374952Y-117864000D01*
X141470190Y-117816380D01*
X141708285Y-117816380D01*
X141851142Y-117864000D01*
X142279714Y-118816380D02*
X142279714Y-117816380D01*
X142517809Y-117816380D01*
X142660666Y-117864000D01*
X142755904Y-117959238D01*
X142803523Y-118054476D01*
X142851142Y-118244952D01*
X142851142Y-118387809D01*
X142803523Y-118578285D01*
X142755904Y-118673523D01*
X142660666Y-118768761D01*
X142517809Y-118816380D01*
X142279714Y-118816380D01*
X143232095Y-118530666D02*
X143708285Y-118530666D01*
X143136857Y-118816380D02*
X143470190Y-117816380D01*
X143803523Y-118816380D01*
X138001523Y-118768761D02*
X138144380Y-118816380D01*
X138382476Y-118816380D01*
X138477714Y-118768761D01*
X138525333Y-118721142D01*
X138572952Y-118625904D01*
X138572952Y-118530666D01*
X138525333Y-118435428D01*
X138477714Y-118387809D01*
X138382476Y-118340190D01*
X138192000Y-118292571D01*
X138096761Y-118244952D01*
X138049142Y-118197333D01*
X138001523Y-118102095D01*
X138001523Y-118006857D01*
X138049142Y-117911619D01*
X138096761Y-117864000D01*
X138192000Y-117816380D01*
X138430095Y-117816380D01*
X138572952Y-117864000D01*
X139572952Y-118721142D02*
X139525333Y-118768761D01*
X139382476Y-118816380D01*
X139287238Y-118816380D01*
X139144380Y-118768761D01*
X139049142Y-118673523D01*
X139001523Y-118578285D01*
X138953904Y-118387809D01*
X138953904Y-118244952D01*
X139001523Y-118054476D01*
X139049142Y-117959238D01*
X139144380Y-117864000D01*
X139287238Y-117816380D01*
X139382476Y-117816380D01*
X139525333Y-117864000D01*
X139572952Y-117911619D01*
X140477714Y-118816380D02*
X140001523Y-118816380D01*
X140001523Y-117816380D01*
X136906095Y-122436000D02*
X136810857Y-122388380D01*
X136668000Y-122388380D01*
X136525142Y-122436000D01*
X136429904Y-122531238D01*
X136382285Y-122626476D01*
X136334666Y-122816952D01*
X136334666Y-122959809D01*
X136382285Y-123150285D01*
X136429904Y-123245523D01*
X136525142Y-123340761D01*
X136668000Y-123388380D01*
X136763238Y-123388380D01*
X136906095Y-123340761D01*
X136953714Y-123293142D01*
X136953714Y-122959809D01*
X136763238Y-122959809D01*
X137382285Y-123388380D02*
X137382285Y-122388380D01*
X137953714Y-123388380D01*
X137953714Y-122388380D01*
X138429904Y-123388380D02*
X138429904Y-122388380D01*
X138668000Y-122388380D01*
X138810857Y-122436000D01*
X138906095Y-122531238D01*
X138953714Y-122626476D01*
X139001333Y-122816952D01*
X139001333Y-122959809D01*
X138953714Y-123150285D01*
X138906095Y-123245523D01*
X138810857Y-123340761D01*
X138668000Y-123388380D01*
X138429904Y-123388380D01*
X132826285Y-123007428D02*
X133588190Y-123007428D01*
X133207238Y-123388380D02*
X133207238Y-122626476D01*
X134540571Y-122388380D02*
X134064380Y-122388380D01*
X134016761Y-122864571D01*
X134064380Y-122816952D01*
X134159619Y-122769333D01*
X134397714Y-122769333D01*
X134492952Y-122816952D01*
X134540571Y-122864571D01*
X134588190Y-122959809D01*
X134588190Y-123197904D01*
X134540571Y-123293142D01*
X134492952Y-123340761D01*
X134397714Y-123388380D01*
X134159619Y-123388380D01*
X134064380Y-123340761D01*
X134016761Y-123293142D01*
X134873904Y-122388380D02*
X135207238Y-123388380D01*
X135540571Y-122388380D01*
X129032095Y-122436000D02*
X128936857Y-122388380D01*
X128794000Y-122388380D01*
X128651142Y-122436000D01*
X128555904Y-122531238D01*
X128508285Y-122626476D01*
X128460666Y-122816952D01*
X128460666Y-122959809D01*
X128508285Y-123150285D01*
X128555904Y-123245523D01*
X128651142Y-123340761D01*
X128794000Y-123388380D01*
X128889238Y-123388380D01*
X129032095Y-123340761D01*
X129079714Y-123293142D01*
X129079714Y-122959809D01*
X128889238Y-122959809D01*
X129508285Y-123388380D02*
X129508285Y-122388380D01*
X130079714Y-123388380D01*
X130079714Y-122388380D01*
X130555904Y-123388380D02*
X130555904Y-122388380D01*
X130794000Y-122388380D01*
X130936857Y-122436000D01*
X131032095Y-122531238D01*
X131079714Y-122626476D01*
X131127333Y-122816952D01*
X131127333Y-122959809D01*
X131079714Y-123150285D01*
X131032095Y-123245523D01*
X130936857Y-123340761D01*
X130794000Y-123388380D01*
X130555904Y-123388380D01*
X115300285Y-123007428D02*
X116062190Y-123007428D01*
X115681238Y-123388380D02*
X115681238Y-122626476D01*
X117014571Y-122388380D02*
X116538380Y-122388380D01*
X116490761Y-122864571D01*
X116538380Y-122816952D01*
X116633619Y-122769333D01*
X116871714Y-122769333D01*
X116966952Y-122816952D01*
X117014571Y-122864571D01*
X117062190Y-122959809D01*
X117062190Y-123197904D01*
X117014571Y-123293142D01*
X116966952Y-123340761D01*
X116871714Y-123388380D01*
X116633619Y-123388380D01*
X116538380Y-123340761D01*
X116490761Y-123293142D01*
X117347904Y-122388380D02*
X117681238Y-123388380D01*
X118014571Y-122388380D01*
X117935523Y-118514761D02*
X118078380Y-118562380D01*
X118316476Y-118562380D01*
X118411714Y-118514761D01*
X118459333Y-118467142D01*
X118506952Y-118371904D01*
X118506952Y-118276666D01*
X118459333Y-118181428D01*
X118411714Y-118133809D01*
X118316476Y-118086190D01*
X118126000Y-118038571D01*
X118030761Y-117990952D01*
X117983142Y-117943333D01*
X117935523Y-117848095D01*
X117935523Y-117752857D01*
X117983142Y-117657619D01*
X118030761Y-117610000D01*
X118126000Y-117562380D01*
X118364095Y-117562380D01*
X118506952Y-117610000D01*
X119506952Y-118467142D02*
X119459333Y-118514761D01*
X119316476Y-118562380D01*
X119221238Y-118562380D01*
X119078380Y-118514761D01*
X118983142Y-118419523D01*
X118935523Y-118324285D01*
X118887904Y-118133809D01*
X118887904Y-117990952D01*
X118935523Y-117800476D01*
X118983142Y-117705238D01*
X119078380Y-117610000D01*
X119221238Y-117562380D01*
X119316476Y-117562380D01*
X119459333Y-117610000D01*
X119506952Y-117657619D01*
X120411714Y-118562380D02*
X119935523Y-118562380D01*
X119935523Y-117562380D01*
X120959714Y-118514761D02*
X121102571Y-118562380D01*
X121340666Y-118562380D01*
X121435904Y-118514761D01*
X121483523Y-118467142D01*
X121531142Y-118371904D01*
X121531142Y-118276666D01*
X121483523Y-118181428D01*
X121435904Y-118133809D01*
X121340666Y-118086190D01*
X121150190Y-118038571D01*
X121054952Y-117990952D01*
X121007333Y-117943333D01*
X120959714Y-117848095D01*
X120959714Y-117752857D01*
X121007333Y-117657619D01*
X121054952Y-117610000D01*
X121150190Y-117562380D01*
X121388285Y-117562380D01*
X121531142Y-117610000D01*
X121959714Y-118562380D02*
X121959714Y-117562380D01*
X122197809Y-117562380D01*
X122340666Y-117610000D01*
X122435904Y-117705238D01*
X122483523Y-117800476D01*
X122531142Y-117990952D01*
X122531142Y-118133809D01*
X122483523Y-118324285D01*
X122435904Y-118419523D01*
X122340666Y-118514761D01*
X122197809Y-118562380D01*
X121959714Y-118562380D01*
X122912095Y-118276666D02*
X123388285Y-118276666D01*
X122816857Y-118562380D02*
X123150190Y-117562380D01*
X123483523Y-118562380D01*
X121483714Y-71016761D02*
X121626571Y-71064380D01*
X121864666Y-71064380D01*
X121959904Y-71016761D01*
X122007523Y-70969142D01*
X122055142Y-70873904D01*
X122055142Y-70778666D01*
X122007523Y-70683428D01*
X121959904Y-70635809D01*
X121864666Y-70588190D01*
X121674190Y-70540571D01*
X121578952Y-70492952D01*
X121531333Y-70445333D01*
X121483714Y-70350095D01*
X121483714Y-70254857D01*
X121531333Y-70159619D01*
X121578952Y-70112000D01*
X121674190Y-70064380D01*
X121912285Y-70064380D01*
X122055142Y-70112000D01*
X122388476Y-70397714D02*
X122578952Y-71064380D01*
X122769428Y-70588190D01*
X122959904Y-71064380D01*
X123150380Y-70397714D01*
X123531333Y-71064380D02*
X123531333Y-70397714D01*
X123531333Y-70064380D02*
X123483714Y-70112000D01*
X123531333Y-70159619D01*
X123578952Y-70112000D01*
X123531333Y-70064380D01*
X123531333Y-70159619D01*
X123864666Y-70397714D02*
X124245619Y-70397714D01*
X124007523Y-70064380D02*
X124007523Y-70921523D01*
X124055142Y-71016761D01*
X124150380Y-71064380D01*
X124245619Y-71064380D01*
X125007523Y-71016761D02*
X124912285Y-71064380D01*
X124721809Y-71064380D01*
X124626571Y-71016761D01*
X124578952Y-70969142D01*
X124531333Y-70873904D01*
X124531333Y-70588190D01*
X124578952Y-70492952D01*
X124626571Y-70445333D01*
X124721809Y-70397714D01*
X124912285Y-70397714D01*
X125007523Y-70445333D01*
X125436095Y-71064380D02*
X125436095Y-70064380D01*
X125864666Y-71064380D02*
X125864666Y-70540571D01*
X125817047Y-70445333D01*
X125721809Y-70397714D01*
X125578952Y-70397714D01*
X125483714Y-70445333D01*
X125436095Y-70492952D01*
X141224095Y-91194000D02*
X141128857Y-91146380D01*
X140986000Y-91146380D01*
X140843142Y-91194000D01*
X140747904Y-91289238D01*
X140700285Y-91384476D01*
X140652666Y-91574952D01*
X140652666Y-91717809D01*
X140700285Y-91908285D01*
X140747904Y-92003523D01*
X140843142Y-92098761D01*
X140986000Y-92146380D01*
X141081238Y-92146380D01*
X141224095Y-92098761D01*
X141271714Y-92051142D01*
X141271714Y-91717809D01*
X141081238Y-91717809D01*
X141700285Y-92146380D02*
X141700285Y-91146380D01*
X142271714Y-92146380D01*
X142271714Y-91146380D01*
X142747904Y-92146380D02*
X142747904Y-91146380D01*
X142986000Y-91146380D01*
X143128857Y-91194000D01*
X143224095Y-91289238D01*
X143271714Y-91384476D01*
X143319333Y-91574952D01*
X143319333Y-91717809D01*
X143271714Y-91908285D01*
X143224095Y-92003523D01*
X143128857Y-92098761D01*
X142986000Y-92146380D01*
X142747904Y-92146380D01*
X144843619Y-91146380D02*
X145176952Y-92146380D01*
X145510285Y-91146380D01*
X145843619Y-91765428D02*
X146605523Y-91765428D01*
X146224571Y-92146380D02*
X146224571Y-91384476D01*
X153233523Y-101354000D02*
X153138285Y-101306380D01*
X152995428Y-101306380D01*
X152852571Y-101354000D01*
X152757333Y-101449238D01*
X152709714Y-101544476D01*
X152662095Y-101734952D01*
X152662095Y-101877809D01*
X152709714Y-102068285D01*
X152757333Y-102163523D01*
X152852571Y-102258761D01*
X152995428Y-102306380D01*
X153090666Y-102306380D01*
X153233523Y-102258761D01*
X153281142Y-102211142D01*
X153281142Y-101877809D01*
X153090666Y-101877809D01*
X154233523Y-102306380D02*
X153662095Y-102306380D01*
X153947809Y-102306380D02*
X153947809Y-101306380D01*
X153852571Y-101449238D01*
X153757333Y-101544476D01*
X153662095Y-101592095D01*
X154709714Y-102306380D02*
X154900190Y-102306380D01*
X154995428Y-102258761D01*
X155043047Y-102211142D01*
X155138285Y-102068285D01*
X155185904Y-101877809D01*
X155185904Y-101496857D01*
X155138285Y-101401619D01*
X155090666Y-101354000D01*
X154995428Y-101306380D01*
X154804952Y-101306380D01*
X154709714Y-101354000D01*
X154662095Y-101401619D01*
X154614476Y-101496857D01*
X154614476Y-101734952D01*
X154662095Y-101830190D01*
X154709714Y-101877809D01*
X154804952Y-101925428D01*
X154995428Y-101925428D01*
X155090666Y-101877809D01*
X155138285Y-101830190D01*
X155185904Y-101734952D01*
X153233523Y-98306000D02*
X153138285Y-98258380D01*
X152995428Y-98258380D01*
X152852571Y-98306000D01*
X152757333Y-98401238D01*
X152709714Y-98496476D01*
X152662095Y-98686952D01*
X152662095Y-98829809D01*
X152709714Y-99020285D01*
X152757333Y-99115523D01*
X152852571Y-99210761D01*
X152995428Y-99258380D01*
X153090666Y-99258380D01*
X153233523Y-99210761D01*
X153281142Y-99163142D01*
X153281142Y-98829809D01*
X153090666Y-98829809D01*
X154233523Y-99258380D02*
X153662095Y-99258380D01*
X153947809Y-99258380D02*
X153947809Y-98258380D01*
X153852571Y-98401238D01*
X153757333Y-98496476D01*
X153662095Y-98544095D01*
X154804952Y-98686952D02*
X154709714Y-98639333D01*
X154662095Y-98591714D01*
X154614476Y-98496476D01*
X154614476Y-98448857D01*
X154662095Y-98353619D01*
X154709714Y-98306000D01*
X154804952Y-98258380D01*
X154995428Y-98258380D01*
X155090666Y-98306000D01*
X155138285Y-98353619D01*
X155185904Y-98448857D01*
X155185904Y-98496476D01*
X155138285Y-98591714D01*
X155090666Y-98639333D01*
X154995428Y-98686952D01*
X154804952Y-98686952D01*
X154709714Y-98734571D01*
X154662095Y-98782190D01*
X154614476Y-98877428D01*
X154614476Y-99067904D01*
X154662095Y-99163142D01*
X154709714Y-99210761D01*
X154804952Y-99258380D01*
X154995428Y-99258380D01*
X155090666Y-99210761D01*
X155138285Y-99163142D01*
X155185904Y-99067904D01*
X155185904Y-98877428D01*
X155138285Y-98782190D01*
X155090666Y-98734571D01*
X154995428Y-98686952D01*
D11*
X141284000Y-100330000D02*
X141284000Y-101660000D01*
X139954000Y-100330000D02*
X141284000Y-100330000D01*
X138684000Y-100330000D02*
X138684000Y-102990000D01*
X138684000Y-102990000D02*
X131004000Y-102990000D01*
X138684000Y-100330000D02*
X131004000Y-100330000D01*
X131004000Y-100330000D02*
X131004000Y-102990000D01*
X151444000Y-100330000D02*
X151444000Y-101660000D01*
X150114000Y-100330000D02*
X151444000Y-100330000D01*
X148844000Y-100330000D02*
X148844000Y-102990000D01*
X148844000Y-102990000D02*
X143704000Y-102990000D01*
X148844000Y-100330000D02*
X143704000Y-100330000D01*
X143704000Y-100330000D02*
X143704000Y-102990000D01*
X151444000Y-97790000D02*
X151444000Y-99120000D01*
X150114000Y-97790000D02*
X151444000Y-97790000D01*
X148844000Y-97790000D02*
X148844000Y-100450000D01*
X148844000Y-100450000D02*
X143704000Y-100450000D01*
X148844000Y-97790000D02*
X143704000Y-97790000D01*
X143704000Y-97790000D02*
X143704000Y-100450000D01*
X169224000Y-119130000D02*
X169224000Y-120460000D01*
X167894000Y-119130000D02*
X169224000Y-119130000D01*
X166624000Y-119130000D02*
X166624000Y-121790000D01*
X166624000Y-121790000D02*
X158944000Y-121790000D01*
X166624000Y-119130000D02*
X158944000Y-119130000D01*
X158944000Y-119130000D02*
X158944000Y-121790000D01*
X146364000Y-92710000D02*
X146364000Y-94040000D01*
X145034000Y-92710000D02*
X146364000Y-92710000D01*
X143764000Y-92710000D02*
X143764000Y-95370000D01*
X143764000Y-95370000D02*
X141164000Y-95370000D01*
X143764000Y-92710000D02*
X141164000Y-92710000D01*
X141164000Y-92710000D02*
X141164000Y-95370000D01*
X136084000Y-67370000D02*
X136084000Y-66040000D01*
X137414000Y-67370000D02*
X136084000Y-67370000D01*
X138684000Y-67370000D02*
X138684000Y-64710000D01*
X138684000Y-64710000D02*
X151444000Y-64710000D01*
X138684000Y-67370000D02*
X151444000Y-67370000D01*
X151444000Y-67370000D02*
X151444000Y-64710000D01*
X133544000Y-120460000D02*
X133544000Y-119130000D01*
X133544000Y-119130000D02*
X134874000Y-119130000D01*
X136144000Y-119130000D02*
X153984000Y-119130000D01*
X153984000Y-121790000D02*
X153984000Y-119130000D01*
X136144000Y-121790000D02*
X153984000Y-121790000D01*
X136144000Y-121790000D02*
X136144000Y-119130000D01*
X119324000Y-63290000D02*
X119324000Y-64540000D01*
X120574000Y-63290000D02*
X119324000Y-63290000D01*
X126474000Y-68790000D02*
X123424000Y-68790000D01*
X126474000Y-65840000D02*
X126474000Y-68790000D01*
X127224000Y-65840000D02*
X126474000Y-65840000D01*
X120374000Y-68790000D02*
X123424000Y-68790000D01*
X120374000Y-65840000D02*
X120374000Y-68790000D01*
X119624000Y-65840000D02*
X120374000Y-65840000D01*
X127224000Y-63590000D02*
X125424000Y-63590000D01*
X127224000Y-64340000D02*
X127224000Y-63590000D01*
X125424000Y-64340000D02*
X127224000Y-64340000D01*
X125424000Y-63590000D02*
X125424000Y-64340000D01*
X121424000Y-63590000D02*
X119624000Y-63590000D01*
X121424000Y-64340000D02*
X121424000Y-63590000D01*
X119624000Y-64340000D02*
X121424000Y-64340000D01*
X119624000Y-63590000D02*
X119624000Y-64340000D01*
X123924000Y-63590000D02*
X122924000Y-63590000D01*
X123924000Y-64340000D02*
X123924000Y-63590000D01*
X122924000Y-64340000D02*
X123924000Y-64340000D01*
X122924000Y-63590000D02*
X122924000Y-64340000D01*
X127234000Y-63580000D02*
X119614000Y-63580000D01*
X127234000Y-69550000D02*
X127234000Y-63580000D01*
X119614000Y-69550000D02*
X127234000Y-69550000D01*
X119614000Y-63580000D02*
X119614000Y-69550000D01*
X165294000Y-114330000D02*
X166624000Y-114330000D01*
X165294000Y-115660000D02*
X165294000Y-114330000D01*
X165294000Y-116930000D02*
X167954000Y-116930000D01*
X167954000Y-116930000D02*
X167954000Y-116990000D01*
X165294000Y-116930000D02*
X165294000Y-116990000D01*
X165294000Y-116990000D02*
X167954000Y-116990000D01*
X165294000Y-75930000D02*
X166624000Y-75930000D01*
X165294000Y-77260000D02*
X165294000Y-75930000D01*
X165294000Y-78530000D02*
X167954000Y-78530000D01*
X167954000Y-78530000D02*
X167954000Y-78590000D01*
X165294000Y-78530000D02*
X165294000Y-78590000D01*
X165294000Y-78590000D02*
X167954000Y-78590000D01*
X131124000Y-121790000D02*
X131124000Y-119130000D01*
X118364000Y-121790000D02*
X131124000Y-121790000D01*
X118364000Y-119130000D02*
X131124000Y-119130000D01*
X118364000Y-121790000D02*
X118364000Y-119130000D01*
X117094000Y-121790000D02*
X115764000Y-121790000D01*
X115764000Y-121790000D02*
X115764000Y-120460000D01*
X119574000Y-114330000D02*
X120904000Y-114330000D01*
X119574000Y-115660000D02*
X119574000Y-114330000D01*
X119574000Y-116930000D02*
X122234000Y-116930000D01*
X122234000Y-116930000D02*
X122234000Y-116990000D01*
X119574000Y-116930000D02*
X119574000Y-116990000D01*
X119574000Y-116990000D02*
X122234000Y-116990000D01*
X119574000Y-75930000D02*
X120904000Y-75930000D01*
X119574000Y-77260000D02*
X119574000Y-75930000D01*
X119574000Y-78530000D02*
X122234000Y-78530000D01*
X122234000Y-78530000D02*
X122234000Y-78590000D01*
X119574000Y-78530000D02*
X119574000Y-78590000D01*
X119574000Y-78590000D02*
X122234000Y-78590000D01*
D10*
X135207476Y-97242380D02*
X135207476Y-97956666D01*
X135159857Y-98099523D01*
X135064619Y-98194761D01*
X134921761Y-98242380D01*
X134826523Y-98242380D01*
X136207476Y-98242380D02*
X135636047Y-98242380D01*
X135921761Y-98242380D02*
X135921761Y-97242380D01*
X135826523Y-97385238D01*
X135731285Y-97480476D01*
X135636047Y-97528095D01*
X136540809Y-97242380D02*
X137207476Y-97242380D01*
X136778904Y-98242380D01*
X149685476Y-103719380D02*
X149685476Y-104433666D01*
X149637857Y-104576523D01*
X149542619Y-104671761D01*
X149399761Y-104719380D01*
X149304523Y-104719380D01*
X150685476Y-104719380D02*
X150114047Y-104719380D01*
X150399761Y-104719380D02*
X150399761Y-103719380D01*
X150304523Y-103862238D01*
X150209285Y-103957476D01*
X150114047Y-104005095D01*
X151542619Y-103719380D02*
X151352142Y-103719380D01*
X151256904Y-103767000D01*
X151209285Y-103814619D01*
X151114047Y-103957476D01*
X151066428Y-104147952D01*
X151066428Y-104528904D01*
X151114047Y-104624142D01*
X151161666Y-104671761D01*
X151256904Y-104719380D01*
X151447380Y-104719380D01*
X151542619Y-104671761D01*
X151590238Y-104624142D01*
X151637857Y-104528904D01*
X151637857Y-104290809D01*
X151590238Y-104195571D01*
X151542619Y-104147952D01*
X151447380Y-104100333D01*
X151256904Y-104100333D01*
X151161666Y-104147952D01*
X151114047Y-104195571D01*
X151066428Y-104290809D01*
X149558476Y-95845380D02*
X149558476Y-96559666D01*
X149510857Y-96702523D01*
X149415619Y-96797761D01*
X149272761Y-96845380D01*
X149177523Y-96845380D01*
X150558476Y-96845380D02*
X149987047Y-96845380D01*
X150272761Y-96845380D02*
X150272761Y-95845380D01*
X150177523Y-95988238D01*
X150082285Y-96083476D01*
X149987047Y-96131095D01*
X151463238Y-95845380D02*
X150987047Y-95845380D01*
X150939428Y-96321571D01*
X150987047Y-96273952D01*
X151082285Y-96226333D01*
X151320380Y-96226333D01*
X151415619Y-96273952D01*
X151463238Y-96321571D01*
X151510857Y-96416809D01*
X151510857Y-96654904D01*
X151463238Y-96750142D01*
X151415619Y-96797761D01*
X151320380Y-96845380D01*
X151082285Y-96845380D01*
X150987047Y-96797761D01*
X150939428Y-96750142D01*
X170132476Y-119975380D02*
X170132476Y-120689666D01*
X170084857Y-120832523D01*
X169989619Y-120927761D01*
X169846761Y-120975380D01*
X169751523Y-120975380D01*
X171132476Y-120975380D02*
X170561047Y-120975380D01*
X170846761Y-120975380D02*
X170846761Y-119975380D01*
X170751523Y-120118238D01*
X170656285Y-120213476D01*
X170561047Y-120261095D01*
X171513428Y-120070619D02*
X171561047Y-120023000D01*
X171656285Y-119975380D01*
X171894380Y-119975380D01*
X171989619Y-120023000D01*
X172037238Y-120070619D01*
X172084857Y-120165857D01*
X172084857Y-120261095D01*
X172037238Y-120403952D01*
X171465809Y-120975380D01*
X172084857Y-120975380D01*
X146816380Y-94373333D02*
X147530666Y-94373333D01*
X147673523Y-94420952D01*
X147768761Y-94516190D01*
X147816380Y-94659047D01*
X147816380Y-94754285D01*
X147816380Y-93849523D02*
X147816380Y-93659047D01*
X147768761Y-93563809D01*
X147721142Y-93516190D01*
X147578285Y-93420952D01*
X147387809Y-93373333D01*
X147006857Y-93373333D01*
X146911619Y-93420952D01*
X146864000Y-93468571D01*
X146816380Y-93563809D01*
X146816380Y-93754285D01*
X146864000Y-93849523D01*
X146911619Y-93897142D01*
X147006857Y-93944761D01*
X147244952Y-93944761D01*
X147340190Y-93897142D01*
X147387809Y-93849523D01*
X147435428Y-93754285D01*
X147435428Y-93563809D01*
X147387809Y-93468571D01*
X147340190Y-93420952D01*
X147244952Y-93373333D01*
X134750666Y-65492380D02*
X134750666Y-66206666D01*
X134703047Y-66349523D01*
X134607809Y-66444761D01*
X134464952Y-66492380D01*
X134369714Y-66492380D01*
X135369714Y-65920952D02*
X135274476Y-65873333D01*
X135226857Y-65825714D01*
X135179238Y-65730476D01*
X135179238Y-65682857D01*
X135226857Y-65587619D01*
X135274476Y-65540000D01*
X135369714Y-65492380D01*
X135560190Y-65492380D01*
X135655428Y-65540000D01*
X135703047Y-65587619D01*
X135750666Y-65682857D01*
X135750666Y-65730476D01*
X135703047Y-65825714D01*
X135655428Y-65873333D01*
X135560190Y-65920952D01*
X135369714Y-65920952D01*
X135274476Y-65968571D01*
X135226857Y-66016190D01*
X135179238Y-66111428D01*
X135179238Y-66301904D01*
X135226857Y-66397142D01*
X135274476Y-66444761D01*
X135369714Y-66492380D01*
X135560190Y-66492380D01*
X135655428Y-66444761D01*
X135703047Y-66397142D01*
X135750666Y-66301904D01*
X135750666Y-66111428D01*
X135703047Y-66016190D01*
X135655428Y-65968571D01*
X135560190Y-65920952D01*
X154860666Y-120102380D02*
X154860666Y-120816666D01*
X154813047Y-120959523D01*
X154717809Y-121054761D01*
X154574952Y-121102380D01*
X154479714Y-121102380D01*
X155241619Y-120102380D02*
X155908285Y-120102380D01*
X155479714Y-121102380D01*
X117776666Y-66254380D02*
X117776666Y-66968666D01*
X117729047Y-67111523D01*
X117633809Y-67206761D01*
X117490952Y-67254380D01*
X117395714Y-67254380D01*
X118681428Y-66254380D02*
X118490952Y-66254380D01*
X118395714Y-66302000D01*
X118348095Y-66349619D01*
X118252857Y-66492476D01*
X118205238Y-66682952D01*
X118205238Y-67063904D01*
X118252857Y-67159142D01*
X118300476Y-67206761D01*
X118395714Y-67254380D01*
X118586190Y-67254380D01*
X118681428Y-67206761D01*
X118729047Y-67159142D01*
X118776666Y-67063904D01*
X118776666Y-66825809D01*
X118729047Y-66730571D01*
X118681428Y-66682952D01*
X118586190Y-66635333D01*
X118395714Y-66635333D01*
X118300476Y-66682952D01*
X118252857Y-66730571D01*
X118205238Y-66825809D01*
X166290666Y-112782380D02*
X166290666Y-113496666D01*
X166243047Y-113639523D01*
X166147809Y-113734761D01*
X166004952Y-113782380D01*
X165909714Y-113782380D01*
X167243047Y-112782380D02*
X166766857Y-112782380D01*
X166719238Y-113258571D01*
X166766857Y-113210952D01*
X166862095Y-113163333D01*
X167100190Y-113163333D01*
X167195428Y-113210952D01*
X167243047Y-113258571D01*
X167290666Y-113353809D01*
X167290666Y-113591904D01*
X167243047Y-113687142D01*
X167195428Y-113734761D01*
X167100190Y-113782380D01*
X166862095Y-113782380D01*
X166766857Y-113734761D01*
X166719238Y-113687142D01*
X166290666Y-74382380D02*
X166290666Y-75096666D01*
X166243047Y-75239523D01*
X166147809Y-75334761D01*
X166004952Y-75382380D01*
X165909714Y-75382380D01*
X167195428Y-74715714D02*
X167195428Y-75382380D01*
X166957333Y-74334761D02*
X166719238Y-75049047D01*
X167338285Y-75049047D01*
X114220666Y-119086380D02*
X114220666Y-119800666D01*
X114173047Y-119943523D01*
X114077809Y-120038761D01*
X113934952Y-120086380D01*
X113839714Y-120086380D01*
X114601619Y-119086380D02*
X115220666Y-119086380D01*
X114887333Y-119467333D01*
X115030190Y-119467333D01*
X115125428Y-119514952D01*
X115173047Y-119562571D01*
X115220666Y-119657809D01*
X115220666Y-119895904D01*
X115173047Y-119991142D01*
X115125428Y-120038761D01*
X115030190Y-120086380D01*
X114744476Y-120086380D01*
X114649238Y-120038761D01*
X114601619Y-119991142D01*
X120570666Y-112782380D02*
X120570666Y-113496666D01*
X120523047Y-113639523D01*
X120427809Y-113734761D01*
X120284952Y-113782380D01*
X120189714Y-113782380D01*
X120999238Y-112877619D02*
X121046857Y-112830000D01*
X121142095Y-112782380D01*
X121380190Y-112782380D01*
X121475428Y-112830000D01*
X121523047Y-112877619D01*
X121570666Y-112972857D01*
X121570666Y-113068095D01*
X121523047Y-113210952D01*
X120951619Y-113782380D01*
X121570666Y-113782380D01*
X120570666Y-74382380D02*
X120570666Y-75096666D01*
X120523047Y-75239523D01*
X120427809Y-75334761D01*
X120284952Y-75382380D01*
X120189714Y-75382380D01*
X121570666Y-75382380D02*
X120999238Y-75382380D01*
X121284952Y-75382380D02*
X121284952Y-74382380D01*
X121189714Y-74525238D01*
X121094476Y-74620476D01*
X120999238Y-74668095D01*
M02*
