M48
; DRILL file {KiCad (5.1.4-0-10_14)} date 2022 November 21, Monday 22:37:02
; FORMAT={-:-/ absolute / metric / decimal}
; #@! TF.CreationDate,2022-11-21T22:37:02+09:00
; #@! TF.GenerationSoftware,Kicad,Pcbnew,(5.1.4-0-10_14)
FMAT,2
METRIC
T1C1.000
%
G90
G05
T1
X117.094Y-120.46
X119.634Y-120.46
X122.174Y-120.46
X124.714Y-120.46
X127.254Y-120.46
X129.794Y-120.46
X132.334Y-101.66
X134.874Y-101.66
X137.414Y-101.66
X139.954Y-101.66
X145.034Y-101.66
X147.574Y-101.66
X150.114Y-101.66
X134.874Y-120.46
X137.414Y-120.46
X139.954Y-120.46
X142.494Y-120.46
X145.034Y-120.46
X147.574Y-120.46
X150.114Y-120.46
X152.654Y-120.46
X120.904Y-115.66
X160.274Y-120.46
X162.814Y-120.46
X165.354Y-120.46
X167.894Y-120.46
X137.414Y-66.04
X139.954Y-66.04
X120.904Y-77.26
X145.034Y-94.04
X145.034Y-66.04
X147.574Y-66.04
X150.114Y-66.04
X166.624Y-77.26
X142.494Y-66.04
X122.174Y-66.04
X124.674Y-66.04
X166.624Y-115.66
X142.494Y-94.04
X145.034Y-99.12
X147.574Y-99.12
X150.114Y-99.12
X165.354Y-66.04
X165.354Y-68.58
X165.354Y-71.12
T0
M30
