G04 #@! TF.GenerationSoftware,KiCad,Pcbnew,(5.1.4-0-10_14)*
G04 #@! TF.CreationDate,2022-11-21T22:36:57+09:00*
G04 #@! TF.ProjectId,NX19,4e583139-2e6b-4696-9361-645f70636258,rev?*
G04 #@! TF.SameCoordinates,Original*
G04 #@! TF.FileFunction,Copper,L2,Bot*
G04 #@! TF.FilePolarity,Positive*
%FSLAX46Y46*%
G04 Gerber Fmt 4.6, Leading zero omitted, Abs format (unit mm)*
G04 Created by KiCad (PCBNEW (5.1.4-0-10_14)) date 2022-11-21 22:36:57*
%MOMM*%
%LPD*%
G04 APERTURE LIST*
%ADD10O,1.700000X1.700000*%
%ADD11R,1.700000X1.700000*%
%ADD12O,1.700000X2.000000*%
%ADD13C,0.100000*%
%ADD14C,1.700000*%
%ADD15C,1.200000*%
%ADD16C,0.600000*%
%ADD17C,0.254000*%
G04 APERTURE END LIST*
D10*
X165354000Y-71120000D03*
X165354000Y-68580000D03*
D11*
X165354000Y-66040000D03*
D10*
X132334000Y-101660000D03*
X134874000Y-101660000D03*
X137414000Y-101660000D03*
D11*
X139954000Y-101660000D03*
D10*
X145034000Y-101660000D03*
X147574000Y-101660000D03*
D11*
X150114000Y-101660000D03*
D10*
X145034000Y-99120000D03*
X147574000Y-99120000D03*
D11*
X150114000Y-99120000D03*
D10*
X160274000Y-120460000D03*
X162814000Y-120460000D03*
X165354000Y-120460000D03*
D11*
X167894000Y-120460000D03*
D10*
X142494000Y-94040000D03*
D11*
X145034000Y-94040000D03*
D10*
X150114000Y-66040000D03*
X147574000Y-66040000D03*
X145034000Y-66040000D03*
X142494000Y-66040000D03*
X139954000Y-66040000D03*
D11*
X137414000Y-66040000D03*
D10*
X152654000Y-120460000D03*
X150114000Y-120460000D03*
X147574000Y-120460000D03*
X145034000Y-120460000D03*
X142494000Y-120460000D03*
X139954000Y-120460000D03*
X137414000Y-120460000D03*
D11*
X134874000Y-120460000D03*
D12*
X124674000Y-66040000D03*
D13*
G36*
X122798504Y-65041204D02*
G01*
X122822773Y-65044804D01*
X122846571Y-65050765D01*
X122869671Y-65059030D01*
X122891849Y-65069520D01*
X122912893Y-65082133D01*
X122932598Y-65096747D01*
X122950777Y-65113223D01*
X122967253Y-65131402D01*
X122981867Y-65151107D01*
X122994480Y-65172151D01*
X123004970Y-65194329D01*
X123013235Y-65217429D01*
X123019196Y-65241227D01*
X123022796Y-65265496D01*
X123024000Y-65290000D01*
X123024000Y-66790000D01*
X123022796Y-66814504D01*
X123019196Y-66838773D01*
X123013235Y-66862571D01*
X123004970Y-66885671D01*
X122994480Y-66907849D01*
X122981867Y-66928893D01*
X122967253Y-66948598D01*
X122950777Y-66966777D01*
X122932598Y-66983253D01*
X122912893Y-66997867D01*
X122891849Y-67010480D01*
X122869671Y-67020970D01*
X122846571Y-67029235D01*
X122822773Y-67035196D01*
X122798504Y-67038796D01*
X122774000Y-67040000D01*
X121574000Y-67040000D01*
X121549496Y-67038796D01*
X121525227Y-67035196D01*
X121501429Y-67029235D01*
X121478329Y-67020970D01*
X121456151Y-67010480D01*
X121435107Y-66997867D01*
X121415402Y-66983253D01*
X121397223Y-66966777D01*
X121380747Y-66948598D01*
X121366133Y-66928893D01*
X121353520Y-66907849D01*
X121343030Y-66885671D01*
X121334765Y-66862571D01*
X121328804Y-66838773D01*
X121325204Y-66814504D01*
X121324000Y-66790000D01*
X121324000Y-65290000D01*
X121325204Y-65265496D01*
X121328804Y-65241227D01*
X121334765Y-65217429D01*
X121343030Y-65194329D01*
X121353520Y-65172151D01*
X121366133Y-65151107D01*
X121380747Y-65131402D01*
X121397223Y-65113223D01*
X121415402Y-65096747D01*
X121435107Y-65082133D01*
X121456151Y-65069520D01*
X121478329Y-65059030D01*
X121501429Y-65050765D01*
X121525227Y-65044804D01*
X121549496Y-65041204D01*
X121574000Y-65040000D01*
X122774000Y-65040000D01*
X122798504Y-65041204D01*
X122798504Y-65041204D01*
G37*
D14*
X122174000Y-66040000D03*
D11*
X166624000Y-115660000D03*
X166624000Y-77260000D03*
X117094000Y-120460000D03*
D10*
X119634000Y-120460000D03*
X122174000Y-120460000D03*
X124714000Y-120460000D03*
X127254000Y-120460000D03*
X129794000Y-120460000D03*
D11*
X120904000Y-115660000D03*
X120904000Y-77260000D03*
D15*
X120904000Y-67310000D02*
X122174000Y-66040000D01*
X120904000Y-77260000D02*
X120904000Y-67310000D01*
X145034000Y-94040000D02*
X145034000Y-89408000D01*
X120904000Y-99060000D02*
X120904000Y-115660000D01*
X130556000Y-89408000D02*
X120904000Y-99060000D01*
X145034000Y-89408000D02*
X130556000Y-89408000D01*
X132842000Y-73406000D02*
X132842000Y-68562000D01*
X134366000Y-74930000D02*
X132842000Y-73406000D01*
X135364000Y-66040000D02*
X137414000Y-66040000D01*
X132842000Y-68562000D02*
X135364000Y-66040000D01*
X145034000Y-96580000D02*
X147574000Y-99120000D01*
X145034000Y-94040000D02*
X145034000Y-96580000D01*
X147574000Y-99120000D02*
X147574000Y-101660000D01*
X145034000Y-89408000D02*
X165100000Y-89408000D01*
X165100000Y-89408000D02*
X169164000Y-85344000D01*
X167404000Y-66040000D02*
X165354000Y-66040000D01*
X169164000Y-67800000D02*
X167404000Y-66040000D01*
X165100000Y-74930000D02*
X169164000Y-74930000D01*
X134366000Y-74930000D02*
X165100000Y-74930000D01*
X169164000Y-74930000D02*
X169164000Y-67800000D01*
X169164000Y-85344000D02*
X169164000Y-74930000D01*
X167894000Y-116930000D02*
X166624000Y-115660000D01*
X167894000Y-120460000D02*
X167894000Y-116930000D01*
X166624000Y-115660000D02*
X166624000Y-113610000D01*
X142494000Y-96580000D02*
X145034000Y-99120000D01*
X142494000Y-94040000D02*
X142494000Y-96580000D01*
X145034000Y-101660000D02*
X145034000Y-99120000D01*
X147514000Y-104140000D02*
X145034000Y-101660000D01*
X157154000Y-104140000D02*
X147514000Y-104140000D01*
D16*
X130643999Y-119610001D02*
X129794000Y-120460000D01*
X136124001Y-119109999D02*
X131144001Y-119109999D01*
X131144001Y-119109999D02*
X130643999Y-119610001D01*
X136564001Y-119549999D02*
X136124001Y-119109999D01*
X136564001Y-119610001D02*
X136564001Y-119549999D01*
X137414000Y-120460000D02*
X136564001Y-119610001D01*
X139954000Y-101660000D02*
X145034000Y-101660000D01*
X163593042Y-110970500D02*
X163984500Y-110970500D01*
X155453543Y-119109999D02*
X163593042Y-110970500D01*
X136124001Y-119109999D02*
X155453543Y-119109999D01*
D15*
X163984500Y-110970500D02*
X166624000Y-113610000D01*
X157154000Y-104140000D02*
X163984500Y-110970500D01*
D16*
X152654000Y-68580000D02*
X165354000Y-68580000D01*
X150114000Y-66040000D02*
X152654000Y-68580000D01*
X134874000Y-121910000D02*
X135900000Y-122936000D01*
X134874000Y-120460000D02*
X134874000Y-121910000D01*
X162878000Y-122936000D02*
X165354000Y-120460000D01*
X135900000Y-122936000D02*
X162878000Y-122936000D01*
X117094000Y-121910000D02*
X118120000Y-122936000D01*
X117094000Y-120460000D02*
X117094000Y-121910000D01*
X118120000Y-122936000D02*
X133858000Y-122936000D01*
X134874000Y-121920000D02*
X134874000Y-121910000D01*
X133858000Y-122936000D02*
X134874000Y-121920000D01*
X145034000Y-71120000D02*
X139954000Y-66040000D01*
X165354000Y-71120000D02*
X145034000Y-71120000D01*
X138453990Y-64539990D02*
X139954000Y-66040000D01*
X117094000Y-68709322D02*
X121263332Y-64539990D01*
X121263332Y-64539990D02*
X138453990Y-64539990D01*
X117094000Y-120460000D02*
X117094000Y-68709322D01*
D15*
X164574000Y-77260000D02*
X166624000Y-77260000D01*
X129133998Y-77260000D02*
X164574000Y-77260000D01*
X124674000Y-72800002D02*
X129133998Y-77260000D01*
X124674000Y-66040000D02*
X124674000Y-72800002D01*
D17*
G36*
X175995001Y-69849448D02*
G01*
X175995001Y-70776722D01*
X175965124Y-70626522D01*
X175825964Y-70290559D01*
X175623934Y-69988200D01*
X175366800Y-69731066D01*
X175064441Y-69529036D01*
X174728478Y-69389876D01*
X174371822Y-69318932D01*
X174008178Y-69318932D01*
X173651522Y-69389876D01*
X173315559Y-69529036D01*
X173013200Y-69731066D01*
X172756066Y-69988200D01*
X172554036Y-70290559D01*
X172414876Y-70626522D01*
X172343932Y-70983178D01*
X172343932Y-71346822D01*
X172414876Y-71703478D01*
X172554036Y-72039441D01*
X172756066Y-72341800D01*
X173013200Y-72598934D01*
X173315559Y-72800964D01*
X173651522Y-72940124D01*
X174008178Y-73011068D01*
X174371822Y-73011068D01*
X174728478Y-72940124D01*
X175064441Y-72800964D01*
X175366800Y-72598934D01*
X175623934Y-72341800D01*
X175825964Y-72039441D01*
X175965124Y-71703478D01*
X175995001Y-71553278D01*
X175995001Y-76322736D01*
X175747301Y-76157228D01*
X175429450Y-76025570D01*
X175092020Y-75958451D01*
X174747980Y-75958451D01*
X174410550Y-76025570D01*
X174092699Y-76157228D01*
X173806640Y-76348367D01*
X173563367Y-76591640D01*
X173372228Y-76877699D01*
X173240570Y-77195550D01*
X173173451Y-77532980D01*
X173173451Y-77877020D01*
X173240570Y-78214450D01*
X173372228Y-78532301D01*
X173563367Y-78818360D01*
X173806640Y-79061633D01*
X174092699Y-79252772D01*
X174410550Y-79384430D01*
X174747980Y-79451549D01*
X175092020Y-79451549D01*
X175429450Y-79384430D01*
X175747301Y-79252772D01*
X175995001Y-79087264D01*
X175995000Y-121576717D01*
X175965124Y-121426522D01*
X175825964Y-121090559D01*
X175623934Y-120788200D01*
X175366800Y-120531066D01*
X175064441Y-120329036D01*
X174728478Y-120189876D01*
X174371822Y-120118932D01*
X174008178Y-120118932D01*
X173651522Y-120189876D01*
X173315559Y-120329036D01*
X173013200Y-120531066D01*
X172756066Y-120788200D01*
X172554036Y-121090559D01*
X172414876Y-121426522D01*
X172343932Y-121783178D01*
X172343932Y-122146822D01*
X172414876Y-122503478D01*
X172554036Y-122839441D01*
X172756066Y-123141800D01*
X173013200Y-123398934D01*
X173315559Y-123600964D01*
X173651522Y-123740124D01*
X173801717Y-123770000D01*
X163301163Y-123770000D01*
X163399972Y-123717186D01*
X163542344Y-123600344D01*
X163571630Y-123564659D01*
X165199337Y-121936952D01*
X165281050Y-121945000D01*
X165426950Y-121945000D01*
X165645111Y-121923513D01*
X165925034Y-121838599D01*
X166183014Y-121700706D01*
X166409134Y-121515134D01*
X166433607Y-121485313D01*
X166454498Y-121554180D01*
X166513463Y-121664494D01*
X166592815Y-121761185D01*
X166689506Y-121840537D01*
X166799820Y-121899502D01*
X166919518Y-121935812D01*
X167044000Y-121948072D01*
X167608250Y-121945000D01*
X167767000Y-121786250D01*
X167767000Y-120587000D01*
X168021000Y-120587000D01*
X168021000Y-121786250D01*
X168179750Y-121945000D01*
X168744000Y-121948072D01*
X168868482Y-121935812D01*
X168988180Y-121899502D01*
X169098494Y-121840537D01*
X169195185Y-121761185D01*
X169274537Y-121664494D01*
X169333502Y-121554180D01*
X169369812Y-121434482D01*
X169382072Y-121310000D01*
X169379000Y-120745750D01*
X169220250Y-120587000D01*
X168021000Y-120587000D01*
X167767000Y-120587000D01*
X167747000Y-120587000D01*
X167747000Y-120333000D01*
X167767000Y-120333000D01*
X167767000Y-119133750D01*
X168021000Y-119133750D01*
X168021000Y-120333000D01*
X169220250Y-120333000D01*
X169379000Y-120174250D01*
X169382072Y-119610000D01*
X169369812Y-119485518D01*
X169333502Y-119365820D01*
X169274537Y-119255506D01*
X169195185Y-119158815D01*
X169098494Y-119079463D01*
X168988180Y-119020498D01*
X168868482Y-118984188D01*
X168744000Y-118971928D01*
X168179750Y-118975000D01*
X168021000Y-119133750D01*
X167767000Y-119133750D01*
X167608250Y-118975000D01*
X167044000Y-118971928D01*
X166919518Y-118984188D01*
X166799820Y-119020498D01*
X166689506Y-119079463D01*
X166592815Y-119158815D01*
X166513463Y-119255506D01*
X166454498Y-119365820D01*
X166433607Y-119434687D01*
X166409134Y-119404866D01*
X166183014Y-119219294D01*
X165925034Y-119081401D01*
X165645111Y-118996487D01*
X165426950Y-118975000D01*
X165281050Y-118975000D01*
X165062889Y-118996487D01*
X164782966Y-119081401D01*
X164524986Y-119219294D01*
X164298866Y-119404866D01*
X164113294Y-119630986D01*
X164084000Y-119685791D01*
X164054706Y-119630986D01*
X163869134Y-119404866D01*
X163643014Y-119219294D01*
X163385034Y-119081401D01*
X163105111Y-118996487D01*
X162886950Y-118975000D01*
X162741050Y-118975000D01*
X162522889Y-118996487D01*
X162242966Y-119081401D01*
X161984986Y-119219294D01*
X161758866Y-119404866D01*
X161573294Y-119630986D01*
X161544000Y-119685791D01*
X161514706Y-119630986D01*
X161329134Y-119404866D01*
X161103014Y-119219294D01*
X160845034Y-119081401D01*
X160565111Y-118996487D01*
X160346950Y-118975000D01*
X160201050Y-118975000D01*
X159982889Y-118996487D01*
X159702966Y-119081401D01*
X159444986Y-119219294D01*
X159218866Y-119404866D01*
X159033294Y-119630986D01*
X158895401Y-119888966D01*
X158810487Y-120168889D01*
X158781815Y-120460000D01*
X158810487Y-120751111D01*
X158895401Y-121031034D01*
X159033294Y-121289014D01*
X159218866Y-121515134D01*
X159444986Y-121700706D01*
X159702966Y-121838599D01*
X159982889Y-121923513D01*
X160201050Y-121945000D01*
X160346950Y-121945000D01*
X160565111Y-121923513D01*
X160845034Y-121838599D01*
X161103014Y-121700706D01*
X161329134Y-121515134D01*
X161514706Y-121289014D01*
X161544000Y-121234209D01*
X161573294Y-121289014D01*
X161758866Y-121515134D01*
X161984986Y-121700706D01*
X162242966Y-121838599D01*
X162522889Y-121923513D01*
X162564136Y-121927575D01*
X162490711Y-122001000D01*
X136287290Y-122001000D01*
X136105040Y-121818751D01*
X136175185Y-121761185D01*
X136254537Y-121664494D01*
X136313502Y-121554180D01*
X136337966Y-121473534D01*
X136413731Y-121557588D01*
X136647080Y-121731641D01*
X136909901Y-121856825D01*
X137057110Y-121901476D01*
X137287000Y-121780155D01*
X137287000Y-120587000D01*
X137267000Y-120587000D01*
X137267000Y-120333000D01*
X137287000Y-120333000D01*
X137287000Y-119139845D01*
X137541000Y-119139845D01*
X137541000Y-120333000D01*
X137561000Y-120333000D01*
X137561000Y-120587000D01*
X137541000Y-120587000D01*
X137541000Y-121780155D01*
X137770890Y-121901476D01*
X137918099Y-121856825D01*
X138180920Y-121731641D01*
X138414269Y-121557588D01*
X138609178Y-121341355D01*
X138678799Y-121224477D01*
X138713294Y-121289014D01*
X138898866Y-121515134D01*
X139124986Y-121700706D01*
X139382966Y-121838599D01*
X139662889Y-121923513D01*
X139881050Y-121945000D01*
X140026950Y-121945000D01*
X140245111Y-121923513D01*
X140525034Y-121838599D01*
X140783014Y-121700706D01*
X141009134Y-121515134D01*
X141194706Y-121289014D01*
X141224000Y-121234209D01*
X141253294Y-121289014D01*
X141438866Y-121515134D01*
X141664986Y-121700706D01*
X141922966Y-121838599D01*
X142202889Y-121923513D01*
X142421050Y-121945000D01*
X142566950Y-121945000D01*
X142785111Y-121923513D01*
X143065034Y-121838599D01*
X143323014Y-121700706D01*
X143549134Y-121515134D01*
X143734706Y-121289014D01*
X143764000Y-121234209D01*
X143793294Y-121289014D01*
X143978866Y-121515134D01*
X144204986Y-121700706D01*
X144462966Y-121838599D01*
X144742889Y-121923513D01*
X144961050Y-121945000D01*
X145106950Y-121945000D01*
X145325111Y-121923513D01*
X145605034Y-121838599D01*
X145863014Y-121700706D01*
X146089134Y-121515134D01*
X146274706Y-121289014D01*
X146304000Y-121234209D01*
X146333294Y-121289014D01*
X146518866Y-121515134D01*
X146744986Y-121700706D01*
X147002966Y-121838599D01*
X147282889Y-121923513D01*
X147501050Y-121945000D01*
X147646950Y-121945000D01*
X147865111Y-121923513D01*
X148145034Y-121838599D01*
X148403014Y-121700706D01*
X148629134Y-121515134D01*
X148814706Y-121289014D01*
X148844000Y-121234209D01*
X148873294Y-121289014D01*
X149058866Y-121515134D01*
X149284986Y-121700706D01*
X149542966Y-121838599D01*
X149822889Y-121923513D01*
X150041050Y-121945000D01*
X150186950Y-121945000D01*
X150405111Y-121923513D01*
X150685034Y-121838599D01*
X150943014Y-121700706D01*
X151169134Y-121515134D01*
X151354706Y-121289014D01*
X151384000Y-121234209D01*
X151413294Y-121289014D01*
X151598866Y-121515134D01*
X151824986Y-121700706D01*
X152082966Y-121838599D01*
X152362889Y-121923513D01*
X152581050Y-121945000D01*
X152726950Y-121945000D01*
X152945111Y-121923513D01*
X153225034Y-121838599D01*
X153483014Y-121700706D01*
X153709134Y-121515134D01*
X153894706Y-121289014D01*
X154032599Y-121031034D01*
X154117513Y-120751111D01*
X154146185Y-120460000D01*
X154117513Y-120168889D01*
X154032599Y-119888966D01*
X153894706Y-119630986D01*
X153709134Y-119404866D01*
X153483014Y-119219294D01*
X153225034Y-119081401D01*
X152945111Y-118996487D01*
X152726950Y-118975000D01*
X152581050Y-118975000D01*
X152362889Y-118996487D01*
X152082966Y-119081401D01*
X151824986Y-119219294D01*
X151598866Y-119404866D01*
X151413294Y-119630986D01*
X151384000Y-119685791D01*
X151354706Y-119630986D01*
X151169134Y-119404866D01*
X150943014Y-119219294D01*
X150685034Y-119081401D01*
X150405111Y-118996487D01*
X150186950Y-118975000D01*
X150041050Y-118975000D01*
X149822889Y-118996487D01*
X149542966Y-119081401D01*
X149284986Y-119219294D01*
X149058866Y-119404866D01*
X148873294Y-119630986D01*
X148844000Y-119685791D01*
X148814706Y-119630986D01*
X148629134Y-119404866D01*
X148403014Y-119219294D01*
X148145034Y-119081401D01*
X147865111Y-118996487D01*
X147646950Y-118975000D01*
X147501050Y-118975000D01*
X147282889Y-118996487D01*
X147002966Y-119081401D01*
X146744986Y-119219294D01*
X146518866Y-119404866D01*
X146333294Y-119630986D01*
X146304000Y-119685791D01*
X146274706Y-119630986D01*
X146089134Y-119404866D01*
X145863014Y-119219294D01*
X145605034Y-119081401D01*
X145325111Y-118996487D01*
X145106950Y-118975000D01*
X144961050Y-118975000D01*
X144742889Y-118996487D01*
X144462966Y-119081401D01*
X144204986Y-119219294D01*
X143978866Y-119404866D01*
X143793294Y-119630986D01*
X143764000Y-119685791D01*
X143734706Y-119630986D01*
X143549134Y-119404866D01*
X143323014Y-119219294D01*
X143065034Y-119081401D01*
X142785111Y-118996487D01*
X142566950Y-118975000D01*
X142421050Y-118975000D01*
X142202889Y-118996487D01*
X141922966Y-119081401D01*
X141664986Y-119219294D01*
X141438866Y-119404866D01*
X141253294Y-119630986D01*
X141224000Y-119685791D01*
X141194706Y-119630986D01*
X141009134Y-119404866D01*
X140783014Y-119219294D01*
X140525034Y-119081401D01*
X140245111Y-118996487D01*
X140026950Y-118975000D01*
X139881050Y-118975000D01*
X139662889Y-118996487D01*
X139382966Y-119081401D01*
X139124986Y-119219294D01*
X138898866Y-119404866D01*
X138713294Y-119630986D01*
X138678799Y-119695523D01*
X138609178Y-119578645D01*
X138414269Y-119362412D01*
X138180920Y-119188359D01*
X137918099Y-119063175D01*
X137770890Y-119018524D01*
X137541000Y-119139845D01*
X137287000Y-119139845D01*
X137057110Y-119018524D01*
X136909901Y-119063175D01*
X136647080Y-119188359D01*
X136413731Y-119362412D01*
X136337966Y-119446466D01*
X136313502Y-119365820D01*
X136254537Y-119255506D01*
X136175185Y-119158815D01*
X136078494Y-119079463D01*
X135968180Y-119020498D01*
X135848482Y-118984188D01*
X135724000Y-118971928D01*
X134024000Y-118971928D01*
X133899518Y-118984188D01*
X133779820Y-119020498D01*
X133669506Y-119079463D01*
X133572815Y-119158815D01*
X133493463Y-119255506D01*
X133434498Y-119365820D01*
X133398188Y-119485518D01*
X133385928Y-119610000D01*
X133385928Y-121310000D01*
X133398188Y-121434482D01*
X133434498Y-121554180D01*
X133493463Y-121664494D01*
X133572815Y-121761185D01*
X133648452Y-121823259D01*
X133470711Y-122001000D01*
X118507290Y-122001000D01*
X118325040Y-121818751D01*
X118395185Y-121761185D01*
X118474537Y-121664494D01*
X118533502Y-121554180D01*
X118554393Y-121485313D01*
X118578866Y-121515134D01*
X118804986Y-121700706D01*
X119062966Y-121838599D01*
X119342889Y-121923513D01*
X119561050Y-121945000D01*
X119706950Y-121945000D01*
X119925111Y-121923513D01*
X120205034Y-121838599D01*
X120463014Y-121700706D01*
X120689134Y-121515134D01*
X120874706Y-121289014D01*
X120904000Y-121234209D01*
X120933294Y-121289014D01*
X121118866Y-121515134D01*
X121344986Y-121700706D01*
X121602966Y-121838599D01*
X121882889Y-121923513D01*
X122101050Y-121945000D01*
X122246950Y-121945000D01*
X122465111Y-121923513D01*
X122745034Y-121838599D01*
X123003014Y-121700706D01*
X123229134Y-121515134D01*
X123414706Y-121289014D01*
X123444000Y-121234209D01*
X123473294Y-121289014D01*
X123658866Y-121515134D01*
X123884986Y-121700706D01*
X124142966Y-121838599D01*
X124422889Y-121923513D01*
X124641050Y-121945000D01*
X124786950Y-121945000D01*
X125005111Y-121923513D01*
X125285034Y-121838599D01*
X125543014Y-121700706D01*
X125769134Y-121515134D01*
X125954706Y-121289014D01*
X125984000Y-121234209D01*
X126013294Y-121289014D01*
X126198866Y-121515134D01*
X126424986Y-121700706D01*
X126682966Y-121838599D01*
X126962889Y-121923513D01*
X127181050Y-121945000D01*
X127326950Y-121945000D01*
X127545111Y-121923513D01*
X127825034Y-121838599D01*
X128083014Y-121700706D01*
X128309134Y-121515134D01*
X128494706Y-121289014D01*
X128529201Y-121224477D01*
X128598822Y-121341355D01*
X128793731Y-121557588D01*
X129027080Y-121731641D01*
X129289901Y-121856825D01*
X129437110Y-121901476D01*
X129667000Y-121780155D01*
X129667000Y-120587000D01*
X129921000Y-120587000D01*
X129921000Y-121780155D01*
X130150890Y-121901476D01*
X130298099Y-121856825D01*
X130560920Y-121731641D01*
X130794269Y-121557588D01*
X130989178Y-121341355D01*
X131138157Y-121091252D01*
X131235481Y-120816891D01*
X131114814Y-120587000D01*
X129921000Y-120587000D01*
X129667000Y-120587000D01*
X129647000Y-120587000D01*
X129647000Y-120333000D01*
X129667000Y-120333000D01*
X129667000Y-119139845D01*
X129921000Y-119139845D01*
X129921000Y-120333000D01*
X131114814Y-120333000D01*
X131235481Y-120103109D01*
X131138157Y-119828748D01*
X130989178Y-119578645D01*
X130794269Y-119362412D01*
X130560920Y-119188359D01*
X130298099Y-119063175D01*
X130150890Y-119018524D01*
X129921000Y-119139845D01*
X129667000Y-119139845D01*
X129437110Y-119018524D01*
X129289901Y-119063175D01*
X129027080Y-119188359D01*
X128793731Y-119362412D01*
X128598822Y-119578645D01*
X128529201Y-119695523D01*
X128494706Y-119630986D01*
X128309134Y-119404866D01*
X128083014Y-119219294D01*
X127825034Y-119081401D01*
X127545111Y-118996487D01*
X127326950Y-118975000D01*
X127181050Y-118975000D01*
X126962889Y-118996487D01*
X126682966Y-119081401D01*
X126424986Y-119219294D01*
X126198866Y-119404866D01*
X126013294Y-119630986D01*
X125984000Y-119685791D01*
X125954706Y-119630986D01*
X125769134Y-119404866D01*
X125543014Y-119219294D01*
X125285034Y-119081401D01*
X125005111Y-118996487D01*
X124786950Y-118975000D01*
X124641050Y-118975000D01*
X124422889Y-118996487D01*
X124142966Y-119081401D01*
X123884986Y-119219294D01*
X123658866Y-119404866D01*
X123473294Y-119630986D01*
X123444000Y-119685791D01*
X123414706Y-119630986D01*
X123229134Y-119404866D01*
X123003014Y-119219294D01*
X122745034Y-119081401D01*
X122465111Y-118996487D01*
X122246950Y-118975000D01*
X122101050Y-118975000D01*
X121882889Y-118996487D01*
X121602966Y-119081401D01*
X121344986Y-119219294D01*
X121118866Y-119404866D01*
X120933294Y-119630986D01*
X120904000Y-119685791D01*
X120874706Y-119630986D01*
X120689134Y-119404866D01*
X120463014Y-119219294D01*
X120205034Y-119081401D01*
X119925111Y-118996487D01*
X119706950Y-118975000D01*
X119561050Y-118975000D01*
X119342889Y-118996487D01*
X119062966Y-119081401D01*
X118804986Y-119219294D01*
X118578866Y-119404866D01*
X118554393Y-119434687D01*
X118533502Y-119365820D01*
X118474537Y-119255506D01*
X118395185Y-119158815D01*
X118298494Y-119079463D01*
X118188180Y-119020498D01*
X118068482Y-118984188D01*
X118029000Y-118980299D01*
X118029000Y-69096611D01*
X119669001Y-67456610D01*
X119669000Y-75904498D01*
X119602815Y-75958815D01*
X119523463Y-76055506D01*
X119464498Y-76165820D01*
X119428188Y-76285518D01*
X119415928Y-76410000D01*
X119415928Y-78110000D01*
X119428188Y-78234482D01*
X119464498Y-78354180D01*
X119523463Y-78464494D01*
X119602815Y-78561185D01*
X119699506Y-78640537D01*
X119809820Y-78699502D01*
X119929518Y-78735812D01*
X120054000Y-78748072D01*
X121754000Y-78748072D01*
X121878482Y-78735812D01*
X121998180Y-78699502D01*
X122108494Y-78640537D01*
X122205185Y-78561185D01*
X122284537Y-78464494D01*
X122343502Y-78354180D01*
X122379812Y-78234482D01*
X122392072Y-78110000D01*
X122392072Y-76410000D01*
X122379812Y-76285518D01*
X122343502Y-76165820D01*
X122284537Y-76055506D01*
X122205185Y-75958815D01*
X122139000Y-75904499D01*
X122139000Y-67821553D01*
X122282481Y-67678072D01*
X122774000Y-67678072D01*
X122947254Y-67661008D01*
X123113850Y-67610472D01*
X123267386Y-67528405D01*
X123401962Y-67417962D01*
X123439000Y-67372831D01*
X123439001Y-72739327D01*
X123433025Y-72800002D01*
X123456870Y-73042104D01*
X123527489Y-73274901D01*
X123527490Y-73274903D01*
X123642168Y-73489451D01*
X123796499Y-73677504D01*
X123843621Y-73716176D01*
X128217824Y-78090380D01*
X128256496Y-78137502D01*
X128444549Y-78291833D01*
X128659097Y-78406511D01*
X128850241Y-78464494D01*
X128891896Y-78477130D01*
X129133998Y-78500975D01*
X129194663Y-78495000D01*
X165268499Y-78495000D01*
X165322815Y-78561185D01*
X165419506Y-78640537D01*
X165529820Y-78699502D01*
X165649518Y-78735812D01*
X165774000Y-78748072D01*
X167474000Y-78748072D01*
X167598482Y-78735812D01*
X167718180Y-78699502D01*
X167828494Y-78640537D01*
X167925185Y-78561185D01*
X167929001Y-78556536D01*
X167929000Y-84832446D01*
X164588447Y-88173000D01*
X145094665Y-88173000D01*
X145034000Y-88167025D01*
X144973335Y-88173000D01*
X130616662Y-88173000D01*
X130555999Y-88167025D01*
X130495336Y-88173000D01*
X130495335Y-88173000D01*
X130313898Y-88190870D01*
X130081099Y-88261489D01*
X129866551Y-88376167D01*
X129678498Y-88530498D01*
X129639826Y-88577620D01*
X120073626Y-98143821D01*
X120026498Y-98182498D01*
X119872167Y-98370552D01*
X119757489Y-98585100D01*
X119739288Y-98645100D01*
X119686870Y-98817898D01*
X119663025Y-99060000D01*
X119669000Y-99120665D01*
X119669001Y-114304498D01*
X119602815Y-114358815D01*
X119523463Y-114455506D01*
X119464498Y-114565820D01*
X119428188Y-114685518D01*
X119415928Y-114810000D01*
X119415928Y-116510000D01*
X119428188Y-116634482D01*
X119464498Y-116754180D01*
X119523463Y-116864494D01*
X119602815Y-116961185D01*
X119699506Y-117040537D01*
X119809820Y-117099502D01*
X119929518Y-117135812D01*
X120054000Y-117148072D01*
X121754000Y-117148072D01*
X121878482Y-117135812D01*
X121998180Y-117099502D01*
X122108494Y-117040537D01*
X122205185Y-116961185D01*
X122284537Y-116864494D01*
X122343502Y-116754180D01*
X122379812Y-116634482D01*
X122392072Y-116510000D01*
X122392072Y-114810000D01*
X122379812Y-114685518D01*
X122343502Y-114565820D01*
X122284537Y-114455506D01*
X122205185Y-114358815D01*
X122139000Y-114304499D01*
X122139000Y-105505000D01*
X130471444Y-105505000D01*
X130475001Y-105541115D01*
X130475000Y-117468895D01*
X130471444Y-117505000D01*
X130485635Y-117649085D01*
X130527663Y-117787633D01*
X130595913Y-117915320D01*
X130687762Y-118027238D01*
X130799680Y-118119087D01*
X130927367Y-118187337D01*
X131065915Y-118229365D01*
X131210000Y-118243556D01*
X131246105Y-118240000D01*
X156173895Y-118240000D01*
X156210000Y-118243556D01*
X156246105Y-118240000D01*
X156354085Y-118229365D01*
X156492633Y-118187337D01*
X156620320Y-118119087D01*
X156732238Y-118027238D01*
X156824087Y-117915320D01*
X156892337Y-117787633D01*
X156934365Y-117649085D01*
X156948556Y-117505000D01*
X156945000Y-117468895D01*
X156945000Y-116510000D01*
X165135928Y-116510000D01*
X165148188Y-116634482D01*
X165184498Y-116754180D01*
X165243463Y-116864494D01*
X165322815Y-116961185D01*
X165419506Y-117040537D01*
X165529820Y-117099502D01*
X165649518Y-117135812D01*
X165774000Y-117148072D01*
X166338250Y-117145000D01*
X166497000Y-116986250D01*
X166497000Y-115787000D01*
X166751000Y-115787000D01*
X166751000Y-116986250D01*
X166909750Y-117145000D01*
X167474000Y-117148072D01*
X167598482Y-117135812D01*
X167718180Y-117099502D01*
X167828494Y-117040537D01*
X167925185Y-116961185D01*
X168004537Y-116864494D01*
X168063502Y-116754180D01*
X168099812Y-116634482D01*
X168112072Y-116510000D01*
X168109000Y-115945750D01*
X167950250Y-115787000D01*
X166751000Y-115787000D01*
X166497000Y-115787000D01*
X165297750Y-115787000D01*
X165139000Y-115945750D01*
X165135928Y-116510000D01*
X156945000Y-116510000D01*
X156945000Y-114810000D01*
X165135928Y-114810000D01*
X165139000Y-115374250D01*
X165297750Y-115533000D01*
X166497000Y-115533000D01*
X166497000Y-114333750D01*
X166751000Y-114333750D01*
X166751000Y-115533000D01*
X167950250Y-115533000D01*
X168109000Y-115374250D01*
X168112072Y-114810000D01*
X168099812Y-114685518D01*
X168063502Y-114565820D01*
X168004537Y-114455506D01*
X167925185Y-114358815D01*
X167828494Y-114279463D01*
X167718180Y-114220498D01*
X167598482Y-114184188D01*
X167474000Y-114171928D01*
X166909750Y-114175000D01*
X166751000Y-114333750D01*
X166497000Y-114333750D01*
X166338250Y-114175000D01*
X165774000Y-114171928D01*
X165649518Y-114184188D01*
X165529820Y-114220498D01*
X165419506Y-114279463D01*
X165322815Y-114358815D01*
X165243463Y-114455506D01*
X165184498Y-114565820D01*
X165148188Y-114685518D01*
X165135928Y-114810000D01*
X156945000Y-114810000D01*
X156945000Y-105541105D01*
X156948556Y-105505000D01*
X156934365Y-105360915D01*
X156892337Y-105222367D01*
X156824087Y-105094680D01*
X156732238Y-104982762D01*
X156620320Y-104890913D01*
X156492633Y-104822663D01*
X156354085Y-104780635D01*
X156246105Y-104770000D01*
X156210000Y-104766444D01*
X156173895Y-104770000D01*
X131246105Y-104770000D01*
X131210000Y-104766444D01*
X131173895Y-104770000D01*
X131065915Y-104780635D01*
X130927367Y-104822663D01*
X130799680Y-104890913D01*
X130687762Y-104982762D01*
X130595913Y-105094680D01*
X130527663Y-105222367D01*
X130485635Y-105360915D01*
X130471444Y-105505000D01*
X122139000Y-105505000D01*
X122139000Y-101660000D01*
X130841815Y-101660000D01*
X130870487Y-101951111D01*
X130955401Y-102231034D01*
X131093294Y-102489014D01*
X131278866Y-102715134D01*
X131504986Y-102900706D01*
X131762966Y-103038599D01*
X132042889Y-103123513D01*
X132261050Y-103145000D01*
X132406950Y-103145000D01*
X132625111Y-103123513D01*
X132905034Y-103038599D01*
X133163014Y-102900706D01*
X133389134Y-102715134D01*
X133574706Y-102489014D01*
X133604000Y-102434209D01*
X133633294Y-102489014D01*
X133818866Y-102715134D01*
X134044986Y-102900706D01*
X134302966Y-103038599D01*
X134582889Y-103123513D01*
X134801050Y-103145000D01*
X134946950Y-103145000D01*
X135165111Y-103123513D01*
X135445034Y-103038599D01*
X135703014Y-102900706D01*
X135929134Y-102715134D01*
X136114706Y-102489014D01*
X136144000Y-102434209D01*
X136173294Y-102489014D01*
X136358866Y-102715134D01*
X136584986Y-102900706D01*
X136842966Y-103038599D01*
X137122889Y-103123513D01*
X137341050Y-103145000D01*
X137486950Y-103145000D01*
X137705111Y-103123513D01*
X137985034Y-103038599D01*
X138243014Y-102900706D01*
X138469134Y-102715134D01*
X138493607Y-102685313D01*
X138514498Y-102754180D01*
X138573463Y-102864494D01*
X138652815Y-102961185D01*
X138749506Y-103040537D01*
X138859820Y-103099502D01*
X138979518Y-103135812D01*
X139104000Y-103148072D01*
X139668250Y-103145000D01*
X139827000Y-102986250D01*
X139827000Y-101787000D01*
X140081000Y-101787000D01*
X140081000Y-102986250D01*
X140239750Y-103145000D01*
X140804000Y-103148072D01*
X140928482Y-103135812D01*
X141048180Y-103099502D01*
X141158494Y-103040537D01*
X141255185Y-102961185D01*
X141334537Y-102864494D01*
X141393502Y-102754180D01*
X141429812Y-102634482D01*
X141442072Y-102510000D01*
X141439388Y-102016891D01*
X143592519Y-102016891D01*
X143689843Y-102291252D01*
X143838822Y-102541355D01*
X144033731Y-102757588D01*
X144267080Y-102931641D01*
X144529901Y-103056825D01*
X144677110Y-103101476D01*
X144907000Y-102980155D01*
X144907000Y-101787000D01*
X143713186Y-101787000D01*
X143592519Y-102016891D01*
X141439388Y-102016891D01*
X141439000Y-101945750D01*
X141280250Y-101787000D01*
X140081000Y-101787000D01*
X139827000Y-101787000D01*
X139807000Y-101787000D01*
X139807000Y-101533000D01*
X139827000Y-101533000D01*
X139827000Y-100333750D01*
X140081000Y-100333750D01*
X140081000Y-101533000D01*
X141280250Y-101533000D01*
X141439000Y-101374250D01*
X141442072Y-100810000D01*
X141429812Y-100685518D01*
X141393502Y-100565820D01*
X141334537Y-100455506D01*
X141255185Y-100358815D01*
X141158494Y-100279463D01*
X141048180Y-100220498D01*
X140928482Y-100184188D01*
X140804000Y-100171928D01*
X140239750Y-100175000D01*
X140081000Y-100333750D01*
X139827000Y-100333750D01*
X139668250Y-100175000D01*
X139104000Y-100171928D01*
X138979518Y-100184188D01*
X138859820Y-100220498D01*
X138749506Y-100279463D01*
X138652815Y-100358815D01*
X138573463Y-100455506D01*
X138514498Y-100565820D01*
X138493607Y-100634687D01*
X138469134Y-100604866D01*
X138243014Y-100419294D01*
X137985034Y-100281401D01*
X137705111Y-100196487D01*
X137486950Y-100175000D01*
X137341050Y-100175000D01*
X137122889Y-100196487D01*
X136842966Y-100281401D01*
X136584986Y-100419294D01*
X136358866Y-100604866D01*
X136173294Y-100830986D01*
X136144000Y-100885791D01*
X136114706Y-100830986D01*
X135929134Y-100604866D01*
X135703014Y-100419294D01*
X135445034Y-100281401D01*
X135165111Y-100196487D01*
X134946950Y-100175000D01*
X134801050Y-100175000D01*
X134582889Y-100196487D01*
X134302966Y-100281401D01*
X134044986Y-100419294D01*
X133818866Y-100604866D01*
X133633294Y-100830986D01*
X133604000Y-100885791D01*
X133574706Y-100830986D01*
X133389134Y-100604866D01*
X133163014Y-100419294D01*
X132905034Y-100281401D01*
X132625111Y-100196487D01*
X132406950Y-100175000D01*
X132261050Y-100175000D01*
X132042889Y-100196487D01*
X131762966Y-100281401D01*
X131504986Y-100419294D01*
X131278866Y-100604866D01*
X131093294Y-100830986D01*
X130955401Y-101088966D01*
X130870487Y-101368889D01*
X130841815Y-101660000D01*
X122139000Y-101660000D01*
X122139000Y-99571553D01*
X122233662Y-99476891D01*
X143592519Y-99476891D01*
X143689843Y-99751252D01*
X143838822Y-100001355D01*
X144033731Y-100217588D01*
X144264880Y-100390000D01*
X144033731Y-100562412D01*
X143838822Y-100778645D01*
X143689843Y-101028748D01*
X143592519Y-101303109D01*
X143713186Y-101533000D01*
X144907000Y-101533000D01*
X144907000Y-99247000D01*
X143713186Y-99247000D01*
X143592519Y-99476891D01*
X122233662Y-99476891D01*
X127313662Y-94396891D01*
X141052519Y-94396891D01*
X141149843Y-94671252D01*
X141298822Y-94921355D01*
X141493731Y-95137588D01*
X141727080Y-95311641D01*
X141989901Y-95436825D01*
X142137110Y-95481476D01*
X142367000Y-95360155D01*
X142367000Y-94167000D01*
X141173186Y-94167000D01*
X141052519Y-94396891D01*
X127313662Y-94396891D01*
X128027444Y-93683109D01*
X141052519Y-93683109D01*
X141173186Y-93913000D01*
X142367000Y-93913000D01*
X142367000Y-92719845D01*
X142137110Y-92598524D01*
X141989901Y-92643175D01*
X141727080Y-92768359D01*
X141493731Y-92942412D01*
X141298822Y-93158645D01*
X141149843Y-93408748D01*
X141052519Y-93683109D01*
X128027444Y-93683109D01*
X131067554Y-90643000D01*
X143799001Y-90643000D01*
X143799000Y-92684498D01*
X143732815Y-92738815D01*
X143653463Y-92835506D01*
X143594498Y-92945820D01*
X143570034Y-93026466D01*
X143494269Y-92942412D01*
X143260920Y-92768359D01*
X142998099Y-92643175D01*
X142850890Y-92598524D01*
X142621000Y-92719845D01*
X142621000Y-93913000D01*
X142641000Y-93913000D01*
X142641000Y-94167000D01*
X142621000Y-94167000D01*
X142621000Y-95360155D01*
X142850890Y-95481476D01*
X142998099Y-95436825D01*
X143260920Y-95311641D01*
X143494269Y-95137588D01*
X143570034Y-95053534D01*
X143594498Y-95134180D01*
X143653463Y-95244494D01*
X143732815Y-95341185D01*
X143799001Y-95395502D01*
X143799001Y-96519325D01*
X143793025Y-96580000D01*
X143816870Y-96822102D01*
X143887489Y-97054899D01*
X143887490Y-97054901D01*
X144002168Y-97269449D01*
X144156499Y-97457502D01*
X144203621Y-97496174D01*
X144462653Y-97755206D01*
X144267080Y-97848359D01*
X144033731Y-98022412D01*
X143838822Y-98238645D01*
X143689843Y-98488748D01*
X143592519Y-98763109D01*
X143713186Y-98993000D01*
X144907000Y-98993000D01*
X144907000Y-98973000D01*
X145161000Y-98973000D01*
X145161000Y-98993000D01*
X145181000Y-98993000D01*
X145181000Y-99247000D01*
X145161000Y-99247000D01*
X145161000Y-101533000D01*
X145181000Y-101533000D01*
X145181000Y-101787000D01*
X145161000Y-101787000D01*
X145161000Y-102980155D01*
X145390890Y-103101476D01*
X145538099Y-103056825D01*
X145800920Y-102931641D01*
X146034269Y-102757588D01*
X146229178Y-102541355D01*
X146298799Y-102424477D01*
X146333294Y-102489014D01*
X146518866Y-102715134D01*
X146744986Y-102900706D01*
X147002966Y-103038599D01*
X147282889Y-103123513D01*
X147501050Y-103145000D01*
X147646950Y-103145000D01*
X147865111Y-103123513D01*
X148145034Y-103038599D01*
X148403014Y-102900706D01*
X148629134Y-102715134D01*
X148653607Y-102685313D01*
X148674498Y-102754180D01*
X148733463Y-102864494D01*
X148812815Y-102961185D01*
X148909506Y-103040537D01*
X149019820Y-103099502D01*
X149139518Y-103135812D01*
X149264000Y-103148072D01*
X150964000Y-103148072D01*
X151088482Y-103135812D01*
X151208180Y-103099502D01*
X151318494Y-103040537D01*
X151415185Y-102961185D01*
X151494537Y-102864494D01*
X151553502Y-102754180D01*
X151589812Y-102634482D01*
X151602072Y-102510000D01*
X151602072Y-100810000D01*
X151589812Y-100685518D01*
X151553502Y-100565820D01*
X151494537Y-100455506D01*
X151440778Y-100390000D01*
X151494537Y-100324494D01*
X151553502Y-100214180D01*
X151589812Y-100094482D01*
X151602072Y-99970000D01*
X151602072Y-98270000D01*
X151589812Y-98145518D01*
X151553502Y-98025820D01*
X151494537Y-97915506D01*
X151415185Y-97818815D01*
X151318494Y-97739463D01*
X151208180Y-97680498D01*
X151088482Y-97644188D01*
X150964000Y-97631928D01*
X149264000Y-97631928D01*
X149139518Y-97644188D01*
X149019820Y-97680498D01*
X148909506Y-97739463D01*
X148812815Y-97818815D01*
X148733463Y-97915506D01*
X148674498Y-98025820D01*
X148653607Y-98094687D01*
X148629134Y-98064866D01*
X148403014Y-97879294D01*
X148145034Y-97741401D01*
X147865111Y-97656487D01*
X147856159Y-97655605D01*
X146269000Y-96068447D01*
X146269000Y-95395501D01*
X146335185Y-95341185D01*
X146414537Y-95244494D01*
X146473502Y-95134180D01*
X146509812Y-95014482D01*
X146522072Y-94890000D01*
X146522072Y-93190000D01*
X146509812Y-93065518D01*
X146473502Y-92945820D01*
X146414537Y-92835506D01*
X146335185Y-92738815D01*
X146269000Y-92684499D01*
X146269000Y-90643000D01*
X165039335Y-90643000D01*
X165100000Y-90648975D01*
X165160665Y-90643000D01*
X165342102Y-90625130D01*
X165574901Y-90554511D01*
X165789449Y-90439833D01*
X165977502Y-90285502D01*
X166016178Y-90238375D01*
X169994381Y-86260173D01*
X170041502Y-86221502D01*
X170195833Y-86033449D01*
X170310511Y-85818901D01*
X170381130Y-85586102D01*
X170399000Y-85404665D01*
X170399000Y-85404664D01*
X170404975Y-85344000D01*
X170399000Y-85283335D01*
X170399000Y-74990664D01*
X170404975Y-74930000D01*
X170399000Y-74869335D01*
X170399000Y-67860665D01*
X170404975Y-67800000D01*
X170381130Y-67557898D01*
X170364632Y-67503513D01*
X170310511Y-67325099D01*
X170195833Y-67110551D01*
X170041502Y-66922498D01*
X169994380Y-66883826D01*
X168320178Y-65209625D01*
X168281502Y-65162498D01*
X168093449Y-65008167D01*
X167878901Y-64893489D01*
X167646102Y-64822870D01*
X167464665Y-64805000D01*
X167404000Y-64799025D01*
X167343335Y-64805000D01*
X166709501Y-64805000D01*
X166655185Y-64738815D01*
X166558494Y-64659463D01*
X166448180Y-64600498D01*
X166328482Y-64564188D01*
X166204000Y-64551928D01*
X164504000Y-64551928D01*
X164379518Y-64564188D01*
X164259820Y-64600498D01*
X164149506Y-64659463D01*
X164052815Y-64738815D01*
X163973463Y-64835506D01*
X163914498Y-64945820D01*
X163878188Y-65065518D01*
X163865928Y-65190000D01*
X163865928Y-66890000D01*
X163878188Y-67014482D01*
X163914498Y-67134180D01*
X163973463Y-67244494D01*
X164052815Y-67341185D01*
X164149506Y-67420537D01*
X164259820Y-67479502D01*
X164340466Y-67503966D01*
X164256412Y-67579731D01*
X164082359Y-67813080D01*
X163957175Y-68075901D01*
X163912524Y-68223110D01*
X164033845Y-68453000D01*
X165227000Y-68453000D01*
X165227000Y-68433000D01*
X165481000Y-68433000D01*
X165481000Y-68453000D01*
X166674155Y-68453000D01*
X166795476Y-68223110D01*
X166750825Y-68075901D01*
X166625641Y-67813080D01*
X166451588Y-67579731D01*
X166367534Y-67503966D01*
X166448180Y-67479502D01*
X166558494Y-67420537D01*
X166655185Y-67341185D01*
X166709501Y-67275000D01*
X166892447Y-67275000D01*
X167929001Y-68311555D01*
X167929000Y-73695000D01*
X134877554Y-73695000D01*
X134077000Y-72894447D01*
X134077000Y-69073553D01*
X135875553Y-67275000D01*
X136058499Y-67275000D01*
X136112815Y-67341185D01*
X136209506Y-67420537D01*
X136319820Y-67479502D01*
X136439518Y-67515812D01*
X136564000Y-67528072D01*
X138264000Y-67528072D01*
X138388482Y-67515812D01*
X138508180Y-67479502D01*
X138618494Y-67420537D01*
X138715185Y-67341185D01*
X138794537Y-67244494D01*
X138853502Y-67134180D01*
X138874393Y-67065313D01*
X138898866Y-67095134D01*
X139124986Y-67280706D01*
X139382966Y-67418599D01*
X139662889Y-67503513D01*
X139881050Y-67525000D01*
X140026950Y-67525000D01*
X140108663Y-67516952D01*
X144340370Y-71748659D01*
X144369656Y-71784344D01*
X144512028Y-71901186D01*
X144674460Y-71988007D01*
X144844016Y-72039441D01*
X144850708Y-72041471D01*
X145034000Y-72059524D01*
X145079932Y-72055000D01*
X164200275Y-72055000D01*
X164298866Y-72175134D01*
X164524986Y-72360706D01*
X164782966Y-72498599D01*
X165062889Y-72583513D01*
X165281050Y-72605000D01*
X165426950Y-72605000D01*
X165645111Y-72583513D01*
X165925034Y-72498599D01*
X166183014Y-72360706D01*
X166409134Y-72175134D01*
X166594706Y-71949014D01*
X166732599Y-71691034D01*
X166817513Y-71411111D01*
X166846185Y-71120000D01*
X166817513Y-70828889D01*
X166732599Y-70548966D01*
X166594706Y-70290986D01*
X166409134Y-70064866D01*
X166183014Y-69879294D01*
X166118477Y-69844799D01*
X166235355Y-69775178D01*
X166451588Y-69580269D01*
X166625641Y-69346920D01*
X166750825Y-69084099D01*
X166795476Y-68936890D01*
X166674155Y-68707000D01*
X165481000Y-68707000D01*
X165481000Y-68727000D01*
X165227000Y-68727000D01*
X165227000Y-68707000D01*
X164033845Y-68707000D01*
X163912524Y-68936890D01*
X163957175Y-69084099D01*
X164082359Y-69346920D01*
X164256412Y-69580269D01*
X164472645Y-69775178D01*
X164589523Y-69844799D01*
X164524986Y-69879294D01*
X164298866Y-70064866D01*
X164200275Y-70185000D01*
X145421289Y-70185000D01*
X142743864Y-67507575D01*
X142785111Y-67503513D01*
X143065034Y-67418599D01*
X143323014Y-67280706D01*
X143549134Y-67095134D01*
X143734706Y-66869014D01*
X143764000Y-66814209D01*
X143793294Y-66869014D01*
X143978866Y-67095134D01*
X144204986Y-67280706D01*
X144462966Y-67418599D01*
X144742889Y-67503513D01*
X144961050Y-67525000D01*
X145106950Y-67525000D01*
X145325111Y-67503513D01*
X145605034Y-67418599D01*
X145863014Y-67280706D01*
X146089134Y-67095134D01*
X146274706Y-66869014D01*
X146304000Y-66814209D01*
X146333294Y-66869014D01*
X146518866Y-67095134D01*
X146744986Y-67280706D01*
X147002966Y-67418599D01*
X147282889Y-67503513D01*
X147501050Y-67525000D01*
X147646950Y-67525000D01*
X147865111Y-67503513D01*
X148145034Y-67418599D01*
X148403014Y-67280706D01*
X148629134Y-67095134D01*
X148814706Y-66869014D01*
X148849201Y-66804477D01*
X148918822Y-66921355D01*
X149113731Y-67137588D01*
X149347080Y-67311641D01*
X149609901Y-67436825D01*
X149757110Y-67481476D01*
X149987000Y-67360155D01*
X149987000Y-66167000D01*
X150241000Y-66167000D01*
X150241000Y-67360155D01*
X150470890Y-67481476D01*
X150618099Y-67436825D01*
X150880920Y-67311641D01*
X151114269Y-67137588D01*
X151309178Y-66921355D01*
X151458157Y-66671252D01*
X151555481Y-66396891D01*
X151434814Y-66167000D01*
X150241000Y-66167000D01*
X149987000Y-66167000D01*
X149967000Y-66167000D01*
X149967000Y-65913000D01*
X149987000Y-65913000D01*
X149987000Y-64719845D01*
X150241000Y-64719845D01*
X150241000Y-65913000D01*
X151434814Y-65913000D01*
X151555481Y-65683109D01*
X151458157Y-65408748D01*
X151309178Y-65158645D01*
X151114269Y-64942412D01*
X150880920Y-64768359D01*
X150618099Y-64643175D01*
X150470890Y-64598524D01*
X150241000Y-64719845D01*
X149987000Y-64719845D01*
X149757110Y-64598524D01*
X149609901Y-64643175D01*
X149347080Y-64768359D01*
X149113731Y-64942412D01*
X148918822Y-65158645D01*
X148849201Y-65275523D01*
X148814706Y-65210986D01*
X148629134Y-64984866D01*
X148403014Y-64799294D01*
X148145034Y-64661401D01*
X147865111Y-64576487D01*
X147646950Y-64555000D01*
X147501050Y-64555000D01*
X147282889Y-64576487D01*
X147002966Y-64661401D01*
X146744986Y-64799294D01*
X146518866Y-64984866D01*
X146333294Y-65210986D01*
X146304000Y-65265791D01*
X146274706Y-65210986D01*
X146089134Y-64984866D01*
X145863014Y-64799294D01*
X145605034Y-64661401D01*
X145325111Y-64576487D01*
X145106950Y-64555000D01*
X144961050Y-64555000D01*
X144742889Y-64576487D01*
X144462966Y-64661401D01*
X144204986Y-64799294D01*
X143978866Y-64984866D01*
X143793294Y-65210986D01*
X143764000Y-65265791D01*
X143734706Y-65210986D01*
X143549134Y-64984866D01*
X143323014Y-64799294D01*
X143065034Y-64661401D01*
X142785111Y-64576487D01*
X142566950Y-64555000D01*
X142421050Y-64555000D01*
X142202889Y-64576487D01*
X141922966Y-64661401D01*
X141664986Y-64799294D01*
X141438866Y-64984866D01*
X141253294Y-65210986D01*
X141224000Y-65265791D01*
X141194706Y-65210986D01*
X141009134Y-64984866D01*
X140783014Y-64799294D01*
X140525034Y-64661401D01*
X140245111Y-64576487D01*
X140026950Y-64555000D01*
X139881050Y-64555000D01*
X139799337Y-64563048D01*
X139516289Y-64280000D01*
X170425554Y-64280000D01*
X175995001Y-69849448D01*
X175995001Y-69849448D01*
G37*
X175995001Y-69849448D02*
X175995001Y-70776722D01*
X175965124Y-70626522D01*
X175825964Y-70290559D01*
X175623934Y-69988200D01*
X175366800Y-69731066D01*
X175064441Y-69529036D01*
X174728478Y-69389876D01*
X174371822Y-69318932D01*
X174008178Y-69318932D01*
X173651522Y-69389876D01*
X173315559Y-69529036D01*
X173013200Y-69731066D01*
X172756066Y-69988200D01*
X172554036Y-70290559D01*
X172414876Y-70626522D01*
X172343932Y-70983178D01*
X172343932Y-71346822D01*
X172414876Y-71703478D01*
X172554036Y-72039441D01*
X172756066Y-72341800D01*
X173013200Y-72598934D01*
X173315559Y-72800964D01*
X173651522Y-72940124D01*
X174008178Y-73011068D01*
X174371822Y-73011068D01*
X174728478Y-72940124D01*
X175064441Y-72800964D01*
X175366800Y-72598934D01*
X175623934Y-72341800D01*
X175825964Y-72039441D01*
X175965124Y-71703478D01*
X175995001Y-71553278D01*
X175995001Y-76322736D01*
X175747301Y-76157228D01*
X175429450Y-76025570D01*
X175092020Y-75958451D01*
X174747980Y-75958451D01*
X174410550Y-76025570D01*
X174092699Y-76157228D01*
X173806640Y-76348367D01*
X173563367Y-76591640D01*
X173372228Y-76877699D01*
X173240570Y-77195550D01*
X173173451Y-77532980D01*
X173173451Y-77877020D01*
X173240570Y-78214450D01*
X173372228Y-78532301D01*
X173563367Y-78818360D01*
X173806640Y-79061633D01*
X174092699Y-79252772D01*
X174410550Y-79384430D01*
X174747980Y-79451549D01*
X175092020Y-79451549D01*
X175429450Y-79384430D01*
X175747301Y-79252772D01*
X175995001Y-79087264D01*
X175995000Y-121576717D01*
X175965124Y-121426522D01*
X175825964Y-121090559D01*
X175623934Y-120788200D01*
X175366800Y-120531066D01*
X175064441Y-120329036D01*
X174728478Y-120189876D01*
X174371822Y-120118932D01*
X174008178Y-120118932D01*
X173651522Y-120189876D01*
X173315559Y-120329036D01*
X173013200Y-120531066D01*
X172756066Y-120788200D01*
X172554036Y-121090559D01*
X172414876Y-121426522D01*
X172343932Y-121783178D01*
X172343932Y-122146822D01*
X172414876Y-122503478D01*
X172554036Y-122839441D01*
X172756066Y-123141800D01*
X173013200Y-123398934D01*
X173315559Y-123600964D01*
X173651522Y-123740124D01*
X173801717Y-123770000D01*
X163301163Y-123770000D01*
X163399972Y-123717186D01*
X163542344Y-123600344D01*
X163571630Y-123564659D01*
X165199337Y-121936952D01*
X165281050Y-121945000D01*
X165426950Y-121945000D01*
X165645111Y-121923513D01*
X165925034Y-121838599D01*
X166183014Y-121700706D01*
X166409134Y-121515134D01*
X166433607Y-121485313D01*
X166454498Y-121554180D01*
X166513463Y-121664494D01*
X166592815Y-121761185D01*
X166689506Y-121840537D01*
X166799820Y-121899502D01*
X166919518Y-121935812D01*
X167044000Y-121948072D01*
X167608250Y-121945000D01*
X167767000Y-121786250D01*
X167767000Y-120587000D01*
X168021000Y-120587000D01*
X168021000Y-121786250D01*
X168179750Y-121945000D01*
X168744000Y-121948072D01*
X168868482Y-121935812D01*
X168988180Y-121899502D01*
X169098494Y-121840537D01*
X169195185Y-121761185D01*
X169274537Y-121664494D01*
X169333502Y-121554180D01*
X169369812Y-121434482D01*
X169382072Y-121310000D01*
X169379000Y-120745750D01*
X169220250Y-120587000D01*
X168021000Y-120587000D01*
X167767000Y-120587000D01*
X167747000Y-120587000D01*
X167747000Y-120333000D01*
X167767000Y-120333000D01*
X167767000Y-119133750D01*
X168021000Y-119133750D01*
X168021000Y-120333000D01*
X169220250Y-120333000D01*
X169379000Y-120174250D01*
X169382072Y-119610000D01*
X169369812Y-119485518D01*
X169333502Y-119365820D01*
X169274537Y-119255506D01*
X169195185Y-119158815D01*
X169098494Y-119079463D01*
X168988180Y-119020498D01*
X168868482Y-118984188D01*
X168744000Y-118971928D01*
X168179750Y-118975000D01*
X168021000Y-119133750D01*
X167767000Y-119133750D01*
X167608250Y-118975000D01*
X167044000Y-118971928D01*
X166919518Y-118984188D01*
X166799820Y-119020498D01*
X166689506Y-119079463D01*
X166592815Y-119158815D01*
X166513463Y-119255506D01*
X166454498Y-119365820D01*
X166433607Y-119434687D01*
X166409134Y-119404866D01*
X166183014Y-119219294D01*
X165925034Y-119081401D01*
X165645111Y-118996487D01*
X165426950Y-118975000D01*
X165281050Y-118975000D01*
X165062889Y-118996487D01*
X164782966Y-119081401D01*
X164524986Y-119219294D01*
X164298866Y-119404866D01*
X164113294Y-119630986D01*
X164084000Y-119685791D01*
X164054706Y-119630986D01*
X163869134Y-119404866D01*
X163643014Y-119219294D01*
X163385034Y-119081401D01*
X163105111Y-118996487D01*
X162886950Y-118975000D01*
X162741050Y-118975000D01*
X162522889Y-118996487D01*
X162242966Y-119081401D01*
X161984986Y-119219294D01*
X161758866Y-119404866D01*
X161573294Y-119630986D01*
X161544000Y-119685791D01*
X161514706Y-119630986D01*
X161329134Y-119404866D01*
X161103014Y-119219294D01*
X160845034Y-119081401D01*
X160565111Y-118996487D01*
X160346950Y-118975000D01*
X160201050Y-118975000D01*
X159982889Y-118996487D01*
X159702966Y-119081401D01*
X159444986Y-119219294D01*
X159218866Y-119404866D01*
X159033294Y-119630986D01*
X158895401Y-119888966D01*
X158810487Y-120168889D01*
X158781815Y-120460000D01*
X158810487Y-120751111D01*
X158895401Y-121031034D01*
X159033294Y-121289014D01*
X159218866Y-121515134D01*
X159444986Y-121700706D01*
X159702966Y-121838599D01*
X159982889Y-121923513D01*
X160201050Y-121945000D01*
X160346950Y-121945000D01*
X160565111Y-121923513D01*
X160845034Y-121838599D01*
X161103014Y-121700706D01*
X161329134Y-121515134D01*
X161514706Y-121289014D01*
X161544000Y-121234209D01*
X161573294Y-121289014D01*
X161758866Y-121515134D01*
X161984986Y-121700706D01*
X162242966Y-121838599D01*
X162522889Y-121923513D01*
X162564136Y-121927575D01*
X162490711Y-122001000D01*
X136287290Y-122001000D01*
X136105040Y-121818751D01*
X136175185Y-121761185D01*
X136254537Y-121664494D01*
X136313502Y-121554180D01*
X136337966Y-121473534D01*
X136413731Y-121557588D01*
X136647080Y-121731641D01*
X136909901Y-121856825D01*
X137057110Y-121901476D01*
X137287000Y-121780155D01*
X137287000Y-120587000D01*
X137267000Y-120587000D01*
X137267000Y-120333000D01*
X137287000Y-120333000D01*
X137287000Y-119139845D01*
X137541000Y-119139845D01*
X137541000Y-120333000D01*
X137561000Y-120333000D01*
X137561000Y-120587000D01*
X137541000Y-120587000D01*
X137541000Y-121780155D01*
X137770890Y-121901476D01*
X137918099Y-121856825D01*
X138180920Y-121731641D01*
X138414269Y-121557588D01*
X138609178Y-121341355D01*
X138678799Y-121224477D01*
X138713294Y-121289014D01*
X138898866Y-121515134D01*
X139124986Y-121700706D01*
X139382966Y-121838599D01*
X139662889Y-121923513D01*
X139881050Y-121945000D01*
X140026950Y-121945000D01*
X140245111Y-121923513D01*
X140525034Y-121838599D01*
X140783014Y-121700706D01*
X141009134Y-121515134D01*
X141194706Y-121289014D01*
X141224000Y-121234209D01*
X141253294Y-121289014D01*
X141438866Y-121515134D01*
X141664986Y-121700706D01*
X141922966Y-121838599D01*
X142202889Y-121923513D01*
X142421050Y-121945000D01*
X142566950Y-121945000D01*
X142785111Y-121923513D01*
X143065034Y-121838599D01*
X143323014Y-121700706D01*
X143549134Y-121515134D01*
X143734706Y-121289014D01*
X143764000Y-121234209D01*
X143793294Y-121289014D01*
X143978866Y-121515134D01*
X144204986Y-121700706D01*
X144462966Y-121838599D01*
X144742889Y-121923513D01*
X144961050Y-121945000D01*
X145106950Y-121945000D01*
X145325111Y-121923513D01*
X145605034Y-121838599D01*
X145863014Y-121700706D01*
X146089134Y-121515134D01*
X146274706Y-121289014D01*
X146304000Y-121234209D01*
X146333294Y-121289014D01*
X146518866Y-121515134D01*
X146744986Y-121700706D01*
X147002966Y-121838599D01*
X147282889Y-121923513D01*
X147501050Y-121945000D01*
X147646950Y-121945000D01*
X147865111Y-121923513D01*
X148145034Y-121838599D01*
X148403014Y-121700706D01*
X148629134Y-121515134D01*
X148814706Y-121289014D01*
X148844000Y-121234209D01*
X148873294Y-121289014D01*
X149058866Y-121515134D01*
X149284986Y-121700706D01*
X149542966Y-121838599D01*
X149822889Y-121923513D01*
X150041050Y-121945000D01*
X150186950Y-121945000D01*
X150405111Y-121923513D01*
X150685034Y-121838599D01*
X150943014Y-121700706D01*
X151169134Y-121515134D01*
X151354706Y-121289014D01*
X151384000Y-121234209D01*
X151413294Y-121289014D01*
X151598866Y-121515134D01*
X151824986Y-121700706D01*
X152082966Y-121838599D01*
X152362889Y-121923513D01*
X152581050Y-121945000D01*
X152726950Y-121945000D01*
X152945111Y-121923513D01*
X153225034Y-121838599D01*
X153483014Y-121700706D01*
X153709134Y-121515134D01*
X153894706Y-121289014D01*
X154032599Y-121031034D01*
X154117513Y-120751111D01*
X154146185Y-120460000D01*
X154117513Y-120168889D01*
X154032599Y-119888966D01*
X153894706Y-119630986D01*
X153709134Y-119404866D01*
X153483014Y-119219294D01*
X153225034Y-119081401D01*
X152945111Y-118996487D01*
X152726950Y-118975000D01*
X152581050Y-118975000D01*
X152362889Y-118996487D01*
X152082966Y-119081401D01*
X151824986Y-119219294D01*
X151598866Y-119404866D01*
X151413294Y-119630986D01*
X151384000Y-119685791D01*
X151354706Y-119630986D01*
X151169134Y-119404866D01*
X150943014Y-119219294D01*
X150685034Y-119081401D01*
X150405111Y-118996487D01*
X150186950Y-118975000D01*
X150041050Y-118975000D01*
X149822889Y-118996487D01*
X149542966Y-119081401D01*
X149284986Y-119219294D01*
X149058866Y-119404866D01*
X148873294Y-119630986D01*
X148844000Y-119685791D01*
X148814706Y-119630986D01*
X148629134Y-119404866D01*
X148403014Y-119219294D01*
X148145034Y-119081401D01*
X147865111Y-118996487D01*
X147646950Y-118975000D01*
X147501050Y-118975000D01*
X147282889Y-118996487D01*
X147002966Y-119081401D01*
X146744986Y-119219294D01*
X146518866Y-119404866D01*
X146333294Y-119630986D01*
X146304000Y-119685791D01*
X146274706Y-119630986D01*
X146089134Y-119404866D01*
X145863014Y-119219294D01*
X145605034Y-119081401D01*
X145325111Y-118996487D01*
X145106950Y-118975000D01*
X144961050Y-118975000D01*
X144742889Y-118996487D01*
X144462966Y-119081401D01*
X144204986Y-119219294D01*
X143978866Y-119404866D01*
X143793294Y-119630986D01*
X143764000Y-119685791D01*
X143734706Y-119630986D01*
X143549134Y-119404866D01*
X143323014Y-119219294D01*
X143065034Y-119081401D01*
X142785111Y-118996487D01*
X142566950Y-118975000D01*
X142421050Y-118975000D01*
X142202889Y-118996487D01*
X141922966Y-119081401D01*
X141664986Y-119219294D01*
X141438866Y-119404866D01*
X141253294Y-119630986D01*
X141224000Y-119685791D01*
X141194706Y-119630986D01*
X141009134Y-119404866D01*
X140783014Y-119219294D01*
X140525034Y-119081401D01*
X140245111Y-118996487D01*
X140026950Y-118975000D01*
X139881050Y-118975000D01*
X139662889Y-118996487D01*
X139382966Y-119081401D01*
X139124986Y-119219294D01*
X138898866Y-119404866D01*
X138713294Y-119630986D01*
X138678799Y-119695523D01*
X138609178Y-119578645D01*
X138414269Y-119362412D01*
X138180920Y-119188359D01*
X137918099Y-119063175D01*
X137770890Y-119018524D01*
X137541000Y-119139845D01*
X137287000Y-119139845D01*
X137057110Y-119018524D01*
X136909901Y-119063175D01*
X136647080Y-119188359D01*
X136413731Y-119362412D01*
X136337966Y-119446466D01*
X136313502Y-119365820D01*
X136254537Y-119255506D01*
X136175185Y-119158815D01*
X136078494Y-119079463D01*
X135968180Y-119020498D01*
X135848482Y-118984188D01*
X135724000Y-118971928D01*
X134024000Y-118971928D01*
X133899518Y-118984188D01*
X133779820Y-119020498D01*
X133669506Y-119079463D01*
X133572815Y-119158815D01*
X133493463Y-119255506D01*
X133434498Y-119365820D01*
X133398188Y-119485518D01*
X133385928Y-119610000D01*
X133385928Y-121310000D01*
X133398188Y-121434482D01*
X133434498Y-121554180D01*
X133493463Y-121664494D01*
X133572815Y-121761185D01*
X133648452Y-121823259D01*
X133470711Y-122001000D01*
X118507290Y-122001000D01*
X118325040Y-121818751D01*
X118395185Y-121761185D01*
X118474537Y-121664494D01*
X118533502Y-121554180D01*
X118554393Y-121485313D01*
X118578866Y-121515134D01*
X118804986Y-121700706D01*
X119062966Y-121838599D01*
X119342889Y-121923513D01*
X119561050Y-121945000D01*
X119706950Y-121945000D01*
X119925111Y-121923513D01*
X120205034Y-121838599D01*
X120463014Y-121700706D01*
X120689134Y-121515134D01*
X120874706Y-121289014D01*
X120904000Y-121234209D01*
X120933294Y-121289014D01*
X121118866Y-121515134D01*
X121344986Y-121700706D01*
X121602966Y-121838599D01*
X121882889Y-121923513D01*
X122101050Y-121945000D01*
X122246950Y-121945000D01*
X122465111Y-121923513D01*
X122745034Y-121838599D01*
X123003014Y-121700706D01*
X123229134Y-121515134D01*
X123414706Y-121289014D01*
X123444000Y-121234209D01*
X123473294Y-121289014D01*
X123658866Y-121515134D01*
X123884986Y-121700706D01*
X124142966Y-121838599D01*
X124422889Y-121923513D01*
X124641050Y-121945000D01*
X124786950Y-121945000D01*
X125005111Y-121923513D01*
X125285034Y-121838599D01*
X125543014Y-121700706D01*
X125769134Y-121515134D01*
X125954706Y-121289014D01*
X125984000Y-121234209D01*
X126013294Y-121289014D01*
X126198866Y-121515134D01*
X126424986Y-121700706D01*
X126682966Y-121838599D01*
X126962889Y-121923513D01*
X127181050Y-121945000D01*
X127326950Y-121945000D01*
X127545111Y-121923513D01*
X127825034Y-121838599D01*
X128083014Y-121700706D01*
X128309134Y-121515134D01*
X128494706Y-121289014D01*
X128529201Y-121224477D01*
X128598822Y-121341355D01*
X128793731Y-121557588D01*
X129027080Y-121731641D01*
X129289901Y-121856825D01*
X129437110Y-121901476D01*
X129667000Y-121780155D01*
X129667000Y-120587000D01*
X129921000Y-120587000D01*
X129921000Y-121780155D01*
X130150890Y-121901476D01*
X130298099Y-121856825D01*
X130560920Y-121731641D01*
X130794269Y-121557588D01*
X130989178Y-121341355D01*
X131138157Y-121091252D01*
X131235481Y-120816891D01*
X131114814Y-120587000D01*
X129921000Y-120587000D01*
X129667000Y-120587000D01*
X129647000Y-120587000D01*
X129647000Y-120333000D01*
X129667000Y-120333000D01*
X129667000Y-119139845D01*
X129921000Y-119139845D01*
X129921000Y-120333000D01*
X131114814Y-120333000D01*
X131235481Y-120103109D01*
X131138157Y-119828748D01*
X130989178Y-119578645D01*
X130794269Y-119362412D01*
X130560920Y-119188359D01*
X130298099Y-119063175D01*
X130150890Y-119018524D01*
X129921000Y-119139845D01*
X129667000Y-119139845D01*
X129437110Y-119018524D01*
X129289901Y-119063175D01*
X129027080Y-119188359D01*
X128793731Y-119362412D01*
X128598822Y-119578645D01*
X128529201Y-119695523D01*
X128494706Y-119630986D01*
X128309134Y-119404866D01*
X128083014Y-119219294D01*
X127825034Y-119081401D01*
X127545111Y-118996487D01*
X127326950Y-118975000D01*
X127181050Y-118975000D01*
X126962889Y-118996487D01*
X126682966Y-119081401D01*
X126424986Y-119219294D01*
X126198866Y-119404866D01*
X126013294Y-119630986D01*
X125984000Y-119685791D01*
X125954706Y-119630986D01*
X125769134Y-119404866D01*
X125543014Y-119219294D01*
X125285034Y-119081401D01*
X125005111Y-118996487D01*
X124786950Y-118975000D01*
X124641050Y-118975000D01*
X124422889Y-118996487D01*
X124142966Y-119081401D01*
X123884986Y-119219294D01*
X123658866Y-119404866D01*
X123473294Y-119630986D01*
X123444000Y-119685791D01*
X123414706Y-119630986D01*
X123229134Y-119404866D01*
X123003014Y-119219294D01*
X122745034Y-119081401D01*
X122465111Y-118996487D01*
X122246950Y-118975000D01*
X122101050Y-118975000D01*
X121882889Y-118996487D01*
X121602966Y-119081401D01*
X121344986Y-119219294D01*
X121118866Y-119404866D01*
X120933294Y-119630986D01*
X120904000Y-119685791D01*
X120874706Y-119630986D01*
X120689134Y-119404866D01*
X120463014Y-119219294D01*
X120205034Y-119081401D01*
X119925111Y-118996487D01*
X119706950Y-118975000D01*
X119561050Y-118975000D01*
X119342889Y-118996487D01*
X119062966Y-119081401D01*
X118804986Y-119219294D01*
X118578866Y-119404866D01*
X118554393Y-119434687D01*
X118533502Y-119365820D01*
X118474537Y-119255506D01*
X118395185Y-119158815D01*
X118298494Y-119079463D01*
X118188180Y-119020498D01*
X118068482Y-118984188D01*
X118029000Y-118980299D01*
X118029000Y-69096611D01*
X119669001Y-67456610D01*
X119669000Y-75904498D01*
X119602815Y-75958815D01*
X119523463Y-76055506D01*
X119464498Y-76165820D01*
X119428188Y-76285518D01*
X119415928Y-76410000D01*
X119415928Y-78110000D01*
X119428188Y-78234482D01*
X119464498Y-78354180D01*
X119523463Y-78464494D01*
X119602815Y-78561185D01*
X119699506Y-78640537D01*
X119809820Y-78699502D01*
X119929518Y-78735812D01*
X120054000Y-78748072D01*
X121754000Y-78748072D01*
X121878482Y-78735812D01*
X121998180Y-78699502D01*
X122108494Y-78640537D01*
X122205185Y-78561185D01*
X122284537Y-78464494D01*
X122343502Y-78354180D01*
X122379812Y-78234482D01*
X122392072Y-78110000D01*
X122392072Y-76410000D01*
X122379812Y-76285518D01*
X122343502Y-76165820D01*
X122284537Y-76055506D01*
X122205185Y-75958815D01*
X122139000Y-75904499D01*
X122139000Y-67821553D01*
X122282481Y-67678072D01*
X122774000Y-67678072D01*
X122947254Y-67661008D01*
X123113850Y-67610472D01*
X123267386Y-67528405D01*
X123401962Y-67417962D01*
X123439000Y-67372831D01*
X123439001Y-72739327D01*
X123433025Y-72800002D01*
X123456870Y-73042104D01*
X123527489Y-73274901D01*
X123527490Y-73274903D01*
X123642168Y-73489451D01*
X123796499Y-73677504D01*
X123843621Y-73716176D01*
X128217824Y-78090380D01*
X128256496Y-78137502D01*
X128444549Y-78291833D01*
X128659097Y-78406511D01*
X128850241Y-78464494D01*
X128891896Y-78477130D01*
X129133998Y-78500975D01*
X129194663Y-78495000D01*
X165268499Y-78495000D01*
X165322815Y-78561185D01*
X165419506Y-78640537D01*
X165529820Y-78699502D01*
X165649518Y-78735812D01*
X165774000Y-78748072D01*
X167474000Y-78748072D01*
X167598482Y-78735812D01*
X167718180Y-78699502D01*
X167828494Y-78640537D01*
X167925185Y-78561185D01*
X167929001Y-78556536D01*
X167929000Y-84832446D01*
X164588447Y-88173000D01*
X145094665Y-88173000D01*
X145034000Y-88167025D01*
X144973335Y-88173000D01*
X130616662Y-88173000D01*
X130555999Y-88167025D01*
X130495336Y-88173000D01*
X130495335Y-88173000D01*
X130313898Y-88190870D01*
X130081099Y-88261489D01*
X129866551Y-88376167D01*
X129678498Y-88530498D01*
X129639826Y-88577620D01*
X120073626Y-98143821D01*
X120026498Y-98182498D01*
X119872167Y-98370552D01*
X119757489Y-98585100D01*
X119739288Y-98645100D01*
X119686870Y-98817898D01*
X119663025Y-99060000D01*
X119669000Y-99120665D01*
X119669001Y-114304498D01*
X119602815Y-114358815D01*
X119523463Y-114455506D01*
X119464498Y-114565820D01*
X119428188Y-114685518D01*
X119415928Y-114810000D01*
X119415928Y-116510000D01*
X119428188Y-116634482D01*
X119464498Y-116754180D01*
X119523463Y-116864494D01*
X119602815Y-116961185D01*
X119699506Y-117040537D01*
X119809820Y-117099502D01*
X119929518Y-117135812D01*
X120054000Y-117148072D01*
X121754000Y-117148072D01*
X121878482Y-117135812D01*
X121998180Y-117099502D01*
X122108494Y-117040537D01*
X122205185Y-116961185D01*
X122284537Y-116864494D01*
X122343502Y-116754180D01*
X122379812Y-116634482D01*
X122392072Y-116510000D01*
X122392072Y-114810000D01*
X122379812Y-114685518D01*
X122343502Y-114565820D01*
X122284537Y-114455506D01*
X122205185Y-114358815D01*
X122139000Y-114304499D01*
X122139000Y-105505000D01*
X130471444Y-105505000D01*
X130475001Y-105541115D01*
X130475000Y-117468895D01*
X130471444Y-117505000D01*
X130485635Y-117649085D01*
X130527663Y-117787633D01*
X130595913Y-117915320D01*
X130687762Y-118027238D01*
X130799680Y-118119087D01*
X130927367Y-118187337D01*
X131065915Y-118229365D01*
X131210000Y-118243556D01*
X131246105Y-118240000D01*
X156173895Y-118240000D01*
X156210000Y-118243556D01*
X156246105Y-118240000D01*
X156354085Y-118229365D01*
X156492633Y-118187337D01*
X156620320Y-118119087D01*
X156732238Y-118027238D01*
X156824087Y-117915320D01*
X156892337Y-117787633D01*
X156934365Y-117649085D01*
X156948556Y-117505000D01*
X156945000Y-117468895D01*
X156945000Y-116510000D01*
X165135928Y-116510000D01*
X165148188Y-116634482D01*
X165184498Y-116754180D01*
X165243463Y-116864494D01*
X165322815Y-116961185D01*
X165419506Y-117040537D01*
X165529820Y-117099502D01*
X165649518Y-117135812D01*
X165774000Y-117148072D01*
X166338250Y-117145000D01*
X166497000Y-116986250D01*
X166497000Y-115787000D01*
X166751000Y-115787000D01*
X166751000Y-116986250D01*
X166909750Y-117145000D01*
X167474000Y-117148072D01*
X167598482Y-117135812D01*
X167718180Y-117099502D01*
X167828494Y-117040537D01*
X167925185Y-116961185D01*
X168004537Y-116864494D01*
X168063502Y-116754180D01*
X168099812Y-116634482D01*
X168112072Y-116510000D01*
X168109000Y-115945750D01*
X167950250Y-115787000D01*
X166751000Y-115787000D01*
X166497000Y-115787000D01*
X165297750Y-115787000D01*
X165139000Y-115945750D01*
X165135928Y-116510000D01*
X156945000Y-116510000D01*
X156945000Y-114810000D01*
X165135928Y-114810000D01*
X165139000Y-115374250D01*
X165297750Y-115533000D01*
X166497000Y-115533000D01*
X166497000Y-114333750D01*
X166751000Y-114333750D01*
X166751000Y-115533000D01*
X167950250Y-115533000D01*
X168109000Y-115374250D01*
X168112072Y-114810000D01*
X168099812Y-114685518D01*
X168063502Y-114565820D01*
X168004537Y-114455506D01*
X167925185Y-114358815D01*
X167828494Y-114279463D01*
X167718180Y-114220498D01*
X167598482Y-114184188D01*
X167474000Y-114171928D01*
X166909750Y-114175000D01*
X166751000Y-114333750D01*
X166497000Y-114333750D01*
X166338250Y-114175000D01*
X165774000Y-114171928D01*
X165649518Y-114184188D01*
X165529820Y-114220498D01*
X165419506Y-114279463D01*
X165322815Y-114358815D01*
X165243463Y-114455506D01*
X165184498Y-114565820D01*
X165148188Y-114685518D01*
X165135928Y-114810000D01*
X156945000Y-114810000D01*
X156945000Y-105541105D01*
X156948556Y-105505000D01*
X156934365Y-105360915D01*
X156892337Y-105222367D01*
X156824087Y-105094680D01*
X156732238Y-104982762D01*
X156620320Y-104890913D01*
X156492633Y-104822663D01*
X156354085Y-104780635D01*
X156246105Y-104770000D01*
X156210000Y-104766444D01*
X156173895Y-104770000D01*
X131246105Y-104770000D01*
X131210000Y-104766444D01*
X131173895Y-104770000D01*
X131065915Y-104780635D01*
X130927367Y-104822663D01*
X130799680Y-104890913D01*
X130687762Y-104982762D01*
X130595913Y-105094680D01*
X130527663Y-105222367D01*
X130485635Y-105360915D01*
X130471444Y-105505000D01*
X122139000Y-105505000D01*
X122139000Y-101660000D01*
X130841815Y-101660000D01*
X130870487Y-101951111D01*
X130955401Y-102231034D01*
X131093294Y-102489014D01*
X131278866Y-102715134D01*
X131504986Y-102900706D01*
X131762966Y-103038599D01*
X132042889Y-103123513D01*
X132261050Y-103145000D01*
X132406950Y-103145000D01*
X132625111Y-103123513D01*
X132905034Y-103038599D01*
X133163014Y-102900706D01*
X133389134Y-102715134D01*
X133574706Y-102489014D01*
X133604000Y-102434209D01*
X133633294Y-102489014D01*
X133818866Y-102715134D01*
X134044986Y-102900706D01*
X134302966Y-103038599D01*
X134582889Y-103123513D01*
X134801050Y-103145000D01*
X134946950Y-103145000D01*
X135165111Y-103123513D01*
X135445034Y-103038599D01*
X135703014Y-102900706D01*
X135929134Y-102715134D01*
X136114706Y-102489014D01*
X136144000Y-102434209D01*
X136173294Y-102489014D01*
X136358866Y-102715134D01*
X136584986Y-102900706D01*
X136842966Y-103038599D01*
X137122889Y-103123513D01*
X137341050Y-103145000D01*
X137486950Y-103145000D01*
X137705111Y-103123513D01*
X137985034Y-103038599D01*
X138243014Y-102900706D01*
X138469134Y-102715134D01*
X138493607Y-102685313D01*
X138514498Y-102754180D01*
X138573463Y-102864494D01*
X138652815Y-102961185D01*
X138749506Y-103040537D01*
X138859820Y-103099502D01*
X138979518Y-103135812D01*
X139104000Y-103148072D01*
X139668250Y-103145000D01*
X139827000Y-102986250D01*
X139827000Y-101787000D01*
X140081000Y-101787000D01*
X140081000Y-102986250D01*
X140239750Y-103145000D01*
X140804000Y-103148072D01*
X140928482Y-103135812D01*
X141048180Y-103099502D01*
X141158494Y-103040537D01*
X141255185Y-102961185D01*
X141334537Y-102864494D01*
X141393502Y-102754180D01*
X141429812Y-102634482D01*
X141442072Y-102510000D01*
X141439388Y-102016891D01*
X143592519Y-102016891D01*
X143689843Y-102291252D01*
X143838822Y-102541355D01*
X144033731Y-102757588D01*
X144267080Y-102931641D01*
X144529901Y-103056825D01*
X144677110Y-103101476D01*
X144907000Y-102980155D01*
X144907000Y-101787000D01*
X143713186Y-101787000D01*
X143592519Y-102016891D01*
X141439388Y-102016891D01*
X141439000Y-101945750D01*
X141280250Y-101787000D01*
X140081000Y-101787000D01*
X139827000Y-101787000D01*
X139807000Y-101787000D01*
X139807000Y-101533000D01*
X139827000Y-101533000D01*
X139827000Y-100333750D01*
X140081000Y-100333750D01*
X140081000Y-101533000D01*
X141280250Y-101533000D01*
X141439000Y-101374250D01*
X141442072Y-100810000D01*
X141429812Y-100685518D01*
X141393502Y-100565820D01*
X141334537Y-100455506D01*
X141255185Y-100358815D01*
X141158494Y-100279463D01*
X141048180Y-100220498D01*
X140928482Y-100184188D01*
X140804000Y-100171928D01*
X140239750Y-100175000D01*
X140081000Y-100333750D01*
X139827000Y-100333750D01*
X139668250Y-100175000D01*
X139104000Y-100171928D01*
X138979518Y-100184188D01*
X138859820Y-100220498D01*
X138749506Y-100279463D01*
X138652815Y-100358815D01*
X138573463Y-100455506D01*
X138514498Y-100565820D01*
X138493607Y-100634687D01*
X138469134Y-100604866D01*
X138243014Y-100419294D01*
X137985034Y-100281401D01*
X137705111Y-100196487D01*
X137486950Y-100175000D01*
X137341050Y-100175000D01*
X137122889Y-100196487D01*
X136842966Y-100281401D01*
X136584986Y-100419294D01*
X136358866Y-100604866D01*
X136173294Y-100830986D01*
X136144000Y-100885791D01*
X136114706Y-100830986D01*
X135929134Y-100604866D01*
X135703014Y-100419294D01*
X135445034Y-100281401D01*
X135165111Y-100196487D01*
X134946950Y-100175000D01*
X134801050Y-100175000D01*
X134582889Y-100196487D01*
X134302966Y-100281401D01*
X134044986Y-100419294D01*
X133818866Y-100604866D01*
X133633294Y-100830986D01*
X133604000Y-100885791D01*
X133574706Y-100830986D01*
X133389134Y-100604866D01*
X133163014Y-100419294D01*
X132905034Y-100281401D01*
X132625111Y-100196487D01*
X132406950Y-100175000D01*
X132261050Y-100175000D01*
X132042889Y-100196487D01*
X131762966Y-100281401D01*
X131504986Y-100419294D01*
X131278866Y-100604866D01*
X131093294Y-100830986D01*
X130955401Y-101088966D01*
X130870487Y-101368889D01*
X130841815Y-101660000D01*
X122139000Y-101660000D01*
X122139000Y-99571553D01*
X122233662Y-99476891D01*
X143592519Y-99476891D01*
X143689843Y-99751252D01*
X143838822Y-100001355D01*
X144033731Y-100217588D01*
X144264880Y-100390000D01*
X144033731Y-100562412D01*
X143838822Y-100778645D01*
X143689843Y-101028748D01*
X143592519Y-101303109D01*
X143713186Y-101533000D01*
X144907000Y-101533000D01*
X144907000Y-99247000D01*
X143713186Y-99247000D01*
X143592519Y-99476891D01*
X122233662Y-99476891D01*
X127313662Y-94396891D01*
X141052519Y-94396891D01*
X141149843Y-94671252D01*
X141298822Y-94921355D01*
X141493731Y-95137588D01*
X141727080Y-95311641D01*
X141989901Y-95436825D01*
X142137110Y-95481476D01*
X142367000Y-95360155D01*
X142367000Y-94167000D01*
X141173186Y-94167000D01*
X141052519Y-94396891D01*
X127313662Y-94396891D01*
X128027444Y-93683109D01*
X141052519Y-93683109D01*
X141173186Y-93913000D01*
X142367000Y-93913000D01*
X142367000Y-92719845D01*
X142137110Y-92598524D01*
X141989901Y-92643175D01*
X141727080Y-92768359D01*
X141493731Y-92942412D01*
X141298822Y-93158645D01*
X141149843Y-93408748D01*
X141052519Y-93683109D01*
X128027444Y-93683109D01*
X131067554Y-90643000D01*
X143799001Y-90643000D01*
X143799000Y-92684498D01*
X143732815Y-92738815D01*
X143653463Y-92835506D01*
X143594498Y-92945820D01*
X143570034Y-93026466D01*
X143494269Y-92942412D01*
X143260920Y-92768359D01*
X142998099Y-92643175D01*
X142850890Y-92598524D01*
X142621000Y-92719845D01*
X142621000Y-93913000D01*
X142641000Y-93913000D01*
X142641000Y-94167000D01*
X142621000Y-94167000D01*
X142621000Y-95360155D01*
X142850890Y-95481476D01*
X142998099Y-95436825D01*
X143260920Y-95311641D01*
X143494269Y-95137588D01*
X143570034Y-95053534D01*
X143594498Y-95134180D01*
X143653463Y-95244494D01*
X143732815Y-95341185D01*
X143799001Y-95395502D01*
X143799001Y-96519325D01*
X143793025Y-96580000D01*
X143816870Y-96822102D01*
X143887489Y-97054899D01*
X143887490Y-97054901D01*
X144002168Y-97269449D01*
X144156499Y-97457502D01*
X144203621Y-97496174D01*
X144462653Y-97755206D01*
X144267080Y-97848359D01*
X144033731Y-98022412D01*
X143838822Y-98238645D01*
X143689843Y-98488748D01*
X143592519Y-98763109D01*
X143713186Y-98993000D01*
X144907000Y-98993000D01*
X144907000Y-98973000D01*
X145161000Y-98973000D01*
X145161000Y-98993000D01*
X145181000Y-98993000D01*
X145181000Y-99247000D01*
X145161000Y-99247000D01*
X145161000Y-101533000D01*
X145181000Y-101533000D01*
X145181000Y-101787000D01*
X145161000Y-101787000D01*
X145161000Y-102980155D01*
X145390890Y-103101476D01*
X145538099Y-103056825D01*
X145800920Y-102931641D01*
X146034269Y-102757588D01*
X146229178Y-102541355D01*
X146298799Y-102424477D01*
X146333294Y-102489014D01*
X146518866Y-102715134D01*
X146744986Y-102900706D01*
X147002966Y-103038599D01*
X147282889Y-103123513D01*
X147501050Y-103145000D01*
X147646950Y-103145000D01*
X147865111Y-103123513D01*
X148145034Y-103038599D01*
X148403014Y-102900706D01*
X148629134Y-102715134D01*
X148653607Y-102685313D01*
X148674498Y-102754180D01*
X148733463Y-102864494D01*
X148812815Y-102961185D01*
X148909506Y-103040537D01*
X149019820Y-103099502D01*
X149139518Y-103135812D01*
X149264000Y-103148072D01*
X150964000Y-103148072D01*
X151088482Y-103135812D01*
X151208180Y-103099502D01*
X151318494Y-103040537D01*
X151415185Y-102961185D01*
X151494537Y-102864494D01*
X151553502Y-102754180D01*
X151589812Y-102634482D01*
X151602072Y-102510000D01*
X151602072Y-100810000D01*
X151589812Y-100685518D01*
X151553502Y-100565820D01*
X151494537Y-100455506D01*
X151440778Y-100390000D01*
X151494537Y-100324494D01*
X151553502Y-100214180D01*
X151589812Y-100094482D01*
X151602072Y-99970000D01*
X151602072Y-98270000D01*
X151589812Y-98145518D01*
X151553502Y-98025820D01*
X151494537Y-97915506D01*
X151415185Y-97818815D01*
X151318494Y-97739463D01*
X151208180Y-97680498D01*
X151088482Y-97644188D01*
X150964000Y-97631928D01*
X149264000Y-97631928D01*
X149139518Y-97644188D01*
X149019820Y-97680498D01*
X148909506Y-97739463D01*
X148812815Y-97818815D01*
X148733463Y-97915506D01*
X148674498Y-98025820D01*
X148653607Y-98094687D01*
X148629134Y-98064866D01*
X148403014Y-97879294D01*
X148145034Y-97741401D01*
X147865111Y-97656487D01*
X147856159Y-97655605D01*
X146269000Y-96068447D01*
X146269000Y-95395501D01*
X146335185Y-95341185D01*
X146414537Y-95244494D01*
X146473502Y-95134180D01*
X146509812Y-95014482D01*
X146522072Y-94890000D01*
X146522072Y-93190000D01*
X146509812Y-93065518D01*
X146473502Y-92945820D01*
X146414537Y-92835506D01*
X146335185Y-92738815D01*
X146269000Y-92684499D01*
X146269000Y-90643000D01*
X165039335Y-90643000D01*
X165100000Y-90648975D01*
X165160665Y-90643000D01*
X165342102Y-90625130D01*
X165574901Y-90554511D01*
X165789449Y-90439833D01*
X165977502Y-90285502D01*
X166016178Y-90238375D01*
X169994381Y-86260173D01*
X170041502Y-86221502D01*
X170195833Y-86033449D01*
X170310511Y-85818901D01*
X170381130Y-85586102D01*
X170399000Y-85404665D01*
X170399000Y-85404664D01*
X170404975Y-85344000D01*
X170399000Y-85283335D01*
X170399000Y-74990664D01*
X170404975Y-74930000D01*
X170399000Y-74869335D01*
X170399000Y-67860665D01*
X170404975Y-67800000D01*
X170381130Y-67557898D01*
X170364632Y-67503513D01*
X170310511Y-67325099D01*
X170195833Y-67110551D01*
X170041502Y-66922498D01*
X169994380Y-66883826D01*
X168320178Y-65209625D01*
X168281502Y-65162498D01*
X168093449Y-65008167D01*
X167878901Y-64893489D01*
X167646102Y-64822870D01*
X167464665Y-64805000D01*
X167404000Y-64799025D01*
X167343335Y-64805000D01*
X166709501Y-64805000D01*
X166655185Y-64738815D01*
X166558494Y-64659463D01*
X166448180Y-64600498D01*
X166328482Y-64564188D01*
X166204000Y-64551928D01*
X164504000Y-64551928D01*
X164379518Y-64564188D01*
X164259820Y-64600498D01*
X164149506Y-64659463D01*
X164052815Y-64738815D01*
X163973463Y-64835506D01*
X163914498Y-64945820D01*
X163878188Y-65065518D01*
X163865928Y-65190000D01*
X163865928Y-66890000D01*
X163878188Y-67014482D01*
X163914498Y-67134180D01*
X163973463Y-67244494D01*
X164052815Y-67341185D01*
X164149506Y-67420537D01*
X164259820Y-67479502D01*
X164340466Y-67503966D01*
X164256412Y-67579731D01*
X164082359Y-67813080D01*
X163957175Y-68075901D01*
X163912524Y-68223110D01*
X164033845Y-68453000D01*
X165227000Y-68453000D01*
X165227000Y-68433000D01*
X165481000Y-68433000D01*
X165481000Y-68453000D01*
X166674155Y-68453000D01*
X166795476Y-68223110D01*
X166750825Y-68075901D01*
X166625641Y-67813080D01*
X166451588Y-67579731D01*
X166367534Y-67503966D01*
X166448180Y-67479502D01*
X166558494Y-67420537D01*
X166655185Y-67341185D01*
X166709501Y-67275000D01*
X166892447Y-67275000D01*
X167929001Y-68311555D01*
X167929000Y-73695000D01*
X134877554Y-73695000D01*
X134077000Y-72894447D01*
X134077000Y-69073553D01*
X135875553Y-67275000D01*
X136058499Y-67275000D01*
X136112815Y-67341185D01*
X136209506Y-67420537D01*
X136319820Y-67479502D01*
X136439518Y-67515812D01*
X136564000Y-67528072D01*
X138264000Y-67528072D01*
X138388482Y-67515812D01*
X138508180Y-67479502D01*
X138618494Y-67420537D01*
X138715185Y-67341185D01*
X138794537Y-67244494D01*
X138853502Y-67134180D01*
X138874393Y-67065313D01*
X138898866Y-67095134D01*
X139124986Y-67280706D01*
X139382966Y-67418599D01*
X139662889Y-67503513D01*
X139881050Y-67525000D01*
X140026950Y-67525000D01*
X140108663Y-67516952D01*
X144340370Y-71748659D01*
X144369656Y-71784344D01*
X144512028Y-71901186D01*
X144674460Y-71988007D01*
X144844016Y-72039441D01*
X144850708Y-72041471D01*
X145034000Y-72059524D01*
X145079932Y-72055000D01*
X164200275Y-72055000D01*
X164298866Y-72175134D01*
X164524986Y-72360706D01*
X164782966Y-72498599D01*
X165062889Y-72583513D01*
X165281050Y-72605000D01*
X165426950Y-72605000D01*
X165645111Y-72583513D01*
X165925034Y-72498599D01*
X166183014Y-72360706D01*
X166409134Y-72175134D01*
X166594706Y-71949014D01*
X166732599Y-71691034D01*
X166817513Y-71411111D01*
X166846185Y-71120000D01*
X166817513Y-70828889D01*
X166732599Y-70548966D01*
X166594706Y-70290986D01*
X166409134Y-70064866D01*
X166183014Y-69879294D01*
X166118477Y-69844799D01*
X166235355Y-69775178D01*
X166451588Y-69580269D01*
X166625641Y-69346920D01*
X166750825Y-69084099D01*
X166795476Y-68936890D01*
X166674155Y-68707000D01*
X165481000Y-68707000D01*
X165481000Y-68727000D01*
X165227000Y-68727000D01*
X165227000Y-68707000D01*
X164033845Y-68707000D01*
X163912524Y-68936890D01*
X163957175Y-69084099D01*
X164082359Y-69346920D01*
X164256412Y-69580269D01*
X164472645Y-69775178D01*
X164589523Y-69844799D01*
X164524986Y-69879294D01*
X164298866Y-70064866D01*
X164200275Y-70185000D01*
X145421289Y-70185000D01*
X142743864Y-67507575D01*
X142785111Y-67503513D01*
X143065034Y-67418599D01*
X143323014Y-67280706D01*
X143549134Y-67095134D01*
X143734706Y-66869014D01*
X143764000Y-66814209D01*
X143793294Y-66869014D01*
X143978866Y-67095134D01*
X144204986Y-67280706D01*
X144462966Y-67418599D01*
X144742889Y-67503513D01*
X144961050Y-67525000D01*
X145106950Y-67525000D01*
X145325111Y-67503513D01*
X145605034Y-67418599D01*
X145863014Y-67280706D01*
X146089134Y-67095134D01*
X146274706Y-66869014D01*
X146304000Y-66814209D01*
X146333294Y-66869014D01*
X146518866Y-67095134D01*
X146744986Y-67280706D01*
X147002966Y-67418599D01*
X147282889Y-67503513D01*
X147501050Y-67525000D01*
X147646950Y-67525000D01*
X147865111Y-67503513D01*
X148145034Y-67418599D01*
X148403014Y-67280706D01*
X148629134Y-67095134D01*
X148814706Y-66869014D01*
X148849201Y-66804477D01*
X148918822Y-66921355D01*
X149113731Y-67137588D01*
X149347080Y-67311641D01*
X149609901Y-67436825D01*
X149757110Y-67481476D01*
X149987000Y-67360155D01*
X149987000Y-66167000D01*
X150241000Y-66167000D01*
X150241000Y-67360155D01*
X150470890Y-67481476D01*
X150618099Y-67436825D01*
X150880920Y-67311641D01*
X151114269Y-67137588D01*
X151309178Y-66921355D01*
X151458157Y-66671252D01*
X151555481Y-66396891D01*
X151434814Y-66167000D01*
X150241000Y-66167000D01*
X149987000Y-66167000D01*
X149967000Y-66167000D01*
X149967000Y-65913000D01*
X149987000Y-65913000D01*
X149987000Y-64719845D01*
X150241000Y-64719845D01*
X150241000Y-65913000D01*
X151434814Y-65913000D01*
X151555481Y-65683109D01*
X151458157Y-65408748D01*
X151309178Y-65158645D01*
X151114269Y-64942412D01*
X150880920Y-64768359D01*
X150618099Y-64643175D01*
X150470890Y-64598524D01*
X150241000Y-64719845D01*
X149987000Y-64719845D01*
X149757110Y-64598524D01*
X149609901Y-64643175D01*
X149347080Y-64768359D01*
X149113731Y-64942412D01*
X148918822Y-65158645D01*
X148849201Y-65275523D01*
X148814706Y-65210986D01*
X148629134Y-64984866D01*
X148403014Y-64799294D01*
X148145034Y-64661401D01*
X147865111Y-64576487D01*
X147646950Y-64555000D01*
X147501050Y-64555000D01*
X147282889Y-64576487D01*
X147002966Y-64661401D01*
X146744986Y-64799294D01*
X146518866Y-64984866D01*
X146333294Y-65210986D01*
X146304000Y-65265791D01*
X146274706Y-65210986D01*
X146089134Y-64984866D01*
X145863014Y-64799294D01*
X145605034Y-64661401D01*
X145325111Y-64576487D01*
X145106950Y-64555000D01*
X144961050Y-64555000D01*
X144742889Y-64576487D01*
X144462966Y-64661401D01*
X144204986Y-64799294D01*
X143978866Y-64984866D01*
X143793294Y-65210986D01*
X143764000Y-65265791D01*
X143734706Y-65210986D01*
X143549134Y-64984866D01*
X143323014Y-64799294D01*
X143065034Y-64661401D01*
X142785111Y-64576487D01*
X142566950Y-64555000D01*
X142421050Y-64555000D01*
X142202889Y-64576487D01*
X141922966Y-64661401D01*
X141664986Y-64799294D01*
X141438866Y-64984866D01*
X141253294Y-65210986D01*
X141224000Y-65265791D01*
X141194706Y-65210986D01*
X141009134Y-64984866D01*
X140783014Y-64799294D01*
X140525034Y-64661401D01*
X140245111Y-64576487D01*
X140026950Y-64555000D01*
X139881050Y-64555000D01*
X139799337Y-64563048D01*
X139516289Y-64280000D01*
X170425554Y-64280000D01*
X175995001Y-69849448D01*
M02*
