G04 #@! TF.GenerationSoftware,KiCad,Pcbnew,(5.1.4-0-10_14)*
G04 #@! TF.CreationDate,2022-11-21T22:36:57+09:00*
G04 #@! TF.ProjectId,NX19,4e583139-2e6b-4696-9361-645f70636258,rev?*
G04 #@! TF.SameCoordinates,Original*
G04 #@! TF.FileFunction,Copper,L1,Top*
G04 #@! TF.FilePolarity,Positive*
%FSLAX46Y46*%
G04 Gerber Fmt 4.6, Leading zero omitted, Abs format (unit mm)*
G04 Created by KiCad (PCBNEW (5.1.4-0-10_14)) date 2022-11-21 22:36:57*
%MOMM*%
%LPD*%
G04 APERTURE LIST*
%ADD10O,1.700000X1.700000*%
%ADD11R,1.700000X1.700000*%
%ADD12O,1.700000X2.000000*%
%ADD13C,0.100000*%
%ADD14C,1.700000*%
%ADD15C,1.200000*%
%ADD16C,0.600000*%
%ADD17C,0.254000*%
G04 APERTURE END LIST*
D10*
X165354000Y-71120000D03*
X165354000Y-68580000D03*
D11*
X165354000Y-66040000D03*
D10*
X132334000Y-101660000D03*
X134874000Y-101660000D03*
X137414000Y-101660000D03*
D11*
X139954000Y-101660000D03*
D10*
X145034000Y-101660000D03*
X147574000Y-101660000D03*
D11*
X150114000Y-101660000D03*
D10*
X145034000Y-99120000D03*
X147574000Y-99120000D03*
D11*
X150114000Y-99120000D03*
D10*
X160274000Y-120460000D03*
X162814000Y-120460000D03*
X165354000Y-120460000D03*
D11*
X167894000Y-120460000D03*
D10*
X142494000Y-94040000D03*
D11*
X145034000Y-94040000D03*
D10*
X150114000Y-66040000D03*
X147574000Y-66040000D03*
X145034000Y-66040000D03*
X142494000Y-66040000D03*
X139954000Y-66040000D03*
D11*
X137414000Y-66040000D03*
D10*
X152654000Y-120460000D03*
X150114000Y-120460000D03*
X147574000Y-120460000D03*
X145034000Y-120460000D03*
X142494000Y-120460000D03*
X139954000Y-120460000D03*
X137414000Y-120460000D03*
D11*
X134874000Y-120460000D03*
D12*
X124674000Y-66040000D03*
D13*
G36*
X122798504Y-65041204D02*
G01*
X122822773Y-65044804D01*
X122846571Y-65050765D01*
X122869671Y-65059030D01*
X122891849Y-65069520D01*
X122912893Y-65082133D01*
X122932598Y-65096747D01*
X122950777Y-65113223D01*
X122967253Y-65131402D01*
X122981867Y-65151107D01*
X122994480Y-65172151D01*
X123004970Y-65194329D01*
X123013235Y-65217429D01*
X123019196Y-65241227D01*
X123022796Y-65265496D01*
X123024000Y-65290000D01*
X123024000Y-66790000D01*
X123022796Y-66814504D01*
X123019196Y-66838773D01*
X123013235Y-66862571D01*
X123004970Y-66885671D01*
X122994480Y-66907849D01*
X122981867Y-66928893D01*
X122967253Y-66948598D01*
X122950777Y-66966777D01*
X122932598Y-66983253D01*
X122912893Y-66997867D01*
X122891849Y-67010480D01*
X122869671Y-67020970D01*
X122846571Y-67029235D01*
X122822773Y-67035196D01*
X122798504Y-67038796D01*
X122774000Y-67040000D01*
X121574000Y-67040000D01*
X121549496Y-67038796D01*
X121525227Y-67035196D01*
X121501429Y-67029235D01*
X121478329Y-67020970D01*
X121456151Y-67010480D01*
X121435107Y-66997867D01*
X121415402Y-66983253D01*
X121397223Y-66966777D01*
X121380747Y-66948598D01*
X121366133Y-66928893D01*
X121353520Y-66907849D01*
X121343030Y-66885671D01*
X121334765Y-66862571D01*
X121328804Y-66838773D01*
X121325204Y-66814504D01*
X121324000Y-66790000D01*
X121324000Y-65290000D01*
X121325204Y-65265496D01*
X121328804Y-65241227D01*
X121334765Y-65217429D01*
X121343030Y-65194329D01*
X121353520Y-65172151D01*
X121366133Y-65151107D01*
X121380747Y-65131402D01*
X121397223Y-65113223D01*
X121415402Y-65096747D01*
X121435107Y-65082133D01*
X121456151Y-65069520D01*
X121478329Y-65059030D01*
X121501429Y-65050765D01*
X121525227Y-65044804D01*
X121549496Y-65041204D01*
X121574000Y-65040000D01*
X122774000Y-65040000D01*
X122798504Y-65041204D01*
X122798504Y-65041204D01*
G37*
D14*
X122174000Y-66040000D03*
D11*
X166624000Y-115660000D03*
X166624000Y-77260000D03*
X117094000Y-120460000D03*
D10*
X119634000Y-120460000D03*
X122174000Y-120460000D03*
X124714000Y-120460000D03*
X127254000Y-120460000D03*
X129794000Y-120460000D03*
D11*
X120904000Y-115660000D03*
X120904000Y-77260000D03*
D15*
X166624000Y-113610000D02*
X166624000Y-115660000D01*
X168656000Y-111578000D02*
X166624000Y-113610000D01*
X168656000Y-71882000D02*
X168656000Y-111578000D01*
X165354000Y-68580000D02*
X168656000Y-71882000D01*
D16*
X141143999Y-119109999D02*
X131966457Y-119109999D01*
X131966457Y-119109999D02*
X129794000Y-116937542D01*
X142494000Y-120460000D02*
X141143999Y-119109999D01*
X142494000Y-83058000D02*
X142494000Y-66040000D01*
X129794000Y-95758000D02*
X142494000Y-83058000D01*
X131144001Y-118287543D02*
X129794000Y-116937542D01*
X126238456Y-116937542D02*
X129794000Y-116937542D01*
X123565997Y-119610001D02*
X126238456Y-116937542D01*
X123023999Y-119610001D02*
X123565997Y-119610001D01*
X122174000Y-120460000D02*
X123023999Y-119610001D01*
X134874000Y-101660000D02*
X134874000Y-100457919D01*
X132714081Y-98298000D02*
X129794000Y-98298000D01*
X134874000Y-100457919D02*
X132714081Y-98298000D01*
X129794000Y-98298000D02*
X129794000Y-95758000D01*
X129794000Y-116937542D02*
X129794000Y-98298000D01*
X139104001Y-121309999D02*
X139954000Y-120460000D01*
X138603999Y-121810001D02*
X139104001Y-121309999D01*
X120984001Y-121810001D02*
X138603999Y-121810001D01*
X119634000Y-120460000D02*
X120984001Y-121810001D01*
X139954000Y-120460000D02*
X142104011Y-122610011D01*
X135195000Y-104521000D02*
X156083000Y-104521000D01*
X132334000Y-101660000D02*
X135195000Y-104521000D01*
X156083000Y-104521000D02*
X157480000Y-105918000D01*
X157480000Y-105918000D02*
X157480000Y-122538022D01*
X142104011Y-122610011D02*
X157551989Y-122610011D01*
X157551989Y-122610011D02*
X157480000Y-122538022D01*
X168343991Y-122610011D02*
X157551989Y-122610011D01*
X169244001Y-121710001D02*
X168343991Y-122610011D01*
X169244001Y-119209999D02*
X169244001Y-121710001D01*
X169144001Y-119109999D02*
X169244001Y-119209999D01*
X162852010Y-102677242D02*
X162852010Y-115624545D01*
X157144757Y-96969989D02*
X162852010Y-102677242D01*
X143425987Y-96969989D02*
X157144757Y-96969989D01*
X141143999Y-94688001D02*
X143425987Y-96969989D01*
X141143999Y-93391999D02*
X141143999Y-94688001D01*
X166337464Y-119109999D02*
X169144001Y-119109999D01*
X145034000Y-89501998D02*
X141143999Y-93391999D01*
X162852010Y-115624545D02*
X166337464Y-119109999D01*
X145034000Y-66040000D02*
X145034000Y-89501998D01*
X165354000Y-119257919D02*
X165354000Y-120460000D01*
X162052000Y-115955919D02*
X165354000Y-119257919D01*
X162052000Y-103008616D02*
X162052000Y-115955919D01*
X156813383Y-97769999D02*
X162052000Y-103008616D01*
X144385999Y-97769999D02*
X156813383Y-97769999D01*
X143683999Y-98471999D02*
X144385999Y-97769999D01*
X143683999Y-101011999D02*
X143683999Y-98471999D01*
X139474990Y-103720990D02*
X140975008Y-103720990D01*
X140975008Y-103720990D02*
X143683999Y-101011999D01*
X137414000Y-101660000D02*
X139474990Y-103720990D01*
X160274000Y-102362000D02*
X157032000Y-99120000D01*
X160274000Y-120460000D02*
X160274000Y-102362000D01*
X157032000Y-99120000D02*
X150114000Y-99120000D01*
X158923999Y-104567999D02*
X155956000Y-101600000D01*
X155896000Y-101660000D02*
X150114000Y-101660000D01*
X159625999Y-121810001D02*
X158923999Y-121108001D01*
X161463999Y-121810001D02*
X159625999Y-121810001D01*
X155956000Y-101600000D02*
X155896000Y-101660000D01*
X158923999Y-121108001D02*
X158923999Y-104567999D01*
X162814000Y-120460000D02*
X161463999Y-121810001D01*
D17*
G36*
X175995001Y-69849448D02*
G01*
X175995001Y-70776722D01*
X175965124Y-70626522D01*
X175825964Y-70290559D01*
X175623934Y-69988200D01*
X175366800Y-69731066D01*
X175064441Y-69529036D01*
X174728478Y-69389876D01*
X174371822Y-69318932D01*
X174008178Y-69318932D01*
X173651522Y-69389876D01*
X173315559Y-69529036D01*
X173013200Y-69731066D01*
X172756066Y-69988200D01*
X172554036Y-70290559D01*
X172414876Y-70626522D01*
X172343932Y-70983178D01*
X172343932Y-71346822D01*
X172414876Y-71703478D01*
X172554036Y-72039441D01*
X172756066Y-72341800D01*
X173013200Y-72598934D01*
X173315559Y-72800964D01*
X173651522Y-72940124D01*
X174008178Y-73011068D01*
X174371822Y-73011068D01*
X174728478Y-72940124D01*
X175064441Y-72800964D01*
X175366800Y-72598934D01*
X175623934Y-72341800D01*
X175825964Y-72039441D01*
X175965124Y-71703478D01*
X175995001Y-71553278D01*
X175995001Y-76322736D01*
X175747301Y-76157228D01*
X175429450Y-76025570D01*
X175092020Y-75958451D01*
X174747980Y-75958451D01*
X174410550Y-76025570D01*
X174092699Y-76157228D01*
X173806640Y-76348367D01*
X173563367Y-76591640D01*
X173372228Y-76877699D01*
X173240570Y-77195550D01*
X173173451Y-77532980D01*
X173173451Y-77877020D01*
X173240570Y-78214450D01*
X173372228Y-78532301D01*
X173563367Y-78818360D01*
X173806640Y-79061633D01*
X174092699Y-79252772D01*
X174410550Y-79384430D01*
X174747980Y-79451549D01*
X175092020Y-79451549D01*
X175429450Y-79384430D01*
X175747301Y-79252772D01*
X175995001Y-79087264D01*
X175995000Y-121576717D01*
X175965124Y-121426522D01*
X175825964Y-121090559D01*
X175623934Y-120788200D01*
X175366800Y-120531066D01*
X175064441Y-120329036D01*
X174728478Y-120189876D01*
X174371822Y-120118932D01*
X174008178Y-120118932D01*
X173651522Y-120189876D01*
X173315559Y-120329036D01*
X173013200Y-120531066D01*
X172756066Y-120788200D01*
X172554036Y-121090559D01*
X172414876Y-121426522D01*
X172343932Y-121783178D01*
X172343932Y-122146822D01*
X172414876Y-122503478D01*
X172554036Y-122839441D01*
X172756066Y-123141800D01*
X173013200Y-123398934D01*
X173315559Y-123600964D01*
X173651522Y-123740124D01*
X173801717Y-123770000D01*
X113618283Y-123770000D01*
X113768478Y-123740124D01*
X114104441Y-123600964D01*
X114406800Y-123398934D01*
X114663934Y-123141800D01*
X114865964Y-122839441D01*
X115005124Y-122503478D01*
X115076068Y-122146822D01*
X115076068Y-121783178D01*
X115005124Y-121426522D01*
X114865964Y-121090559D01*
X114663934Y-120788200D01*
X114406800Y-120531066D01*
X114104441Y-120329036D01*
X113768478Y-120189876D01*
X113411822Y-120118932D01*
X113048178Y-120118932D01*
X112691522Y-120189876D01*
X112355559Y-120329036D01*
X112053200Y-120531066D01*
X111796066Y-120788200D01*
X111594036Y-121090559D01*
X111454876Y-121426522D01*
X111425000Y-121576717D01*
X111425000Y-119610000D01*
X115605928Y-119610000D01*
X115605928Y-121310000D01*
X115618188Y-121434482D01*
X115654498Y-121554180D01*
X115713463Y-121664494D01*
X115792815Y-121761185D01*
X115889506Y-121840537D01*
X115999820Y-121899502D01*
X116119518Y-121935812D01*
X116244000Y-121948072D01*
X117944000Y-121948072D01*
X118068482Y-121935812D01*
X118188180Y-121899502D01*
X118298494Y-121840537D01*
X118395185Y-121761185D01*
X118474537Y-121664494D01*
X118533502Y-121554180D01*
X118554393Y-121485313D01*
X118578866Y-121515134D01*
X118804986Y-121700706D01*
X119062966Y-121838599D01*
X119342889Y-121923513D01*
X119561050Y-121945000D01*
X119706950Y-121945000D01*
X119788663Y-121936952D01*
X120290371Y-122438660D01*
X120319657Y-122474345D01*
X120462029Y-122591187D01*
X120537398Y-122631472D01*
X120624460Y-122678008D01*
X120800709Y-122731473D01*
X120984001Y-122749525D01*
X121029936Y-122745001D01*
X138558067Y-122745001D01*
X138603999Y-122749525D01*
X138649931Y-122745001D01*
X138787291Y-122731472D01*
X138963539Y-122678008D01*
X139125971Y-122591187D01*
X139268343Y-122474345D01*
X139297630Y-122438659D01*
X139732662Y-122003626D01*
X139732667Y-122003622D01*
X139799337Y-121936952D01*
X139881050Y-121945000D01*
X140026950Y-121945000D01*
X140108663Y-121936952D01*
X141410381Y-123238670D01*
X141439667Y-123274355D01*
X141582039Y-123391197D01*
X141687891Y-123447776D01*
X141744470Y-123478018D01*
X141920719Y-123531483D01*
X142104011Y-123549535D01*
X142149946Y-123545011D01*
X157506057Y-123545011D01*
X157551989Y-123549535D01*
X157597921Y-123545011D01*
X168298059Y-123545011D01*
X168343991Y-123549535D01*
X168389923Y-123545011D01*
X168527283Y-123531482D01*
X168703531Y-123478018D01*
X168865963Y-123391197D01*
X169008335Y-123274355D01*
X169037621Y-123238670D01*
X169872665Y-122403627D01*
X169908345Y-122374345D01*
X170025187Y-122231973D01*
X170112008Y-122069541D01*
X170165472Y-121893293D01*
X170183525Y-121710002D01*
X170179001Y-121664070D01*
X170179001Y-119255930D01*
X170183525Y-119209998D01*
X170165472Y-119026707D01*
X170112008Y-118850459D01*
X170025187Y-118688027D01*
X169908345Y-118545655D01*
X169872661Y-118516370D01*
X169837631Y-118481340D01*
X169808345Y-118445655D01*
X169665973Y-118328813D01*
X169503541Y-118241992D01*
X169327293Y-118188528D01*
X169189933Y-118174999D01*
X169144001Y-118170475D01*
X169098069Y-118174999D01*
X166724754Y-118174999D01*
X165689505Y-117139750D01*
X165774000Y-117148072D01*
X166338250Y-117145000D01*
X166497000Y-116986250D01*
X166497000Y-115787000D01*
X166751000Y-115787000D01*
X166751000Y-116986250D01*
X166909750Y-117145000D01*
X167474000Y-117148072D01*
X167598482Y-117135812D01*
X167718180Y-117099502D01*
X167828494Y-117040537D01*
X167925185Y-116961185D01*
X168004537Y-116864494D01*
X168063502Y-116754180D01*
X168099812Y-116634482D01*
X168112072Y-116510000D01*
X168109000Y-115945750D01*
X167950250Y-115787000D01*
X166751000Y-115787000D01*
X166497000Y-115787000D01*
X165297750Y-115787000D01*
X165139000Y-115945750D01*
X165135928Y-116510000D01*
X165144250Y-116594495D01*
X163787010Y-115237256D01*
X163787010Y-114810000D01*
X165135928Y-114810000D01*
X165139000Y-115374250D01*
X165297750Y-115533000D01*
X166497000Y-115533000D01*
X166497000Y-114333750D01*
X166751000Y-114333750D01*
X166751000Y-115533000D01*
X167950250Y-115533000D01*
X168109000Y-115374250D01*
X168112072Y-114810000D01*
X168099812Y-114685518D01*
X168063502Y-114565820D01*
X168004537Y-114455506D01*
X167925185Y-114358815D01*
X167828494Y-114279463D01*
X167718180Y-114220498D01*
X167598482Y-114184188D01*
X167474000Y-114171928D01*
X166909750Y-114175000D01*
X166751000Y-114333750D01*
X166497000Y-114333750D01*
X166338250Y-114175000D01*
X165774000Y-114171928D01*
X165649518Y-114184188D01*
X165529820Y-114220498D01*
X165419506Y-114279463D01*
X165322815Y-114358815D01*
X165243463Y-114455506D01*
X165184498Y-114565820D01*
X165148188Y-114685518D01*
X165135928Y-114810000D01*
X163787010Y-114810000D01*
X163787010Y-102723177D01*
X163791534Y-102677242D01*
X163773482Y-102493950D01*
X163720017Y-102317701D01*
X163673692Y-102231034D01*
X163633196Y-102155270D01*
X163516354Y-102012898D01*
X163480670Y-101983613D01*
X157838387Y-96341330D01*
X157809101Y-96305645D01*
X157666729Y-96188803D01*
X157504297Y-96101982D01*
X157328049Y-96048518D01*
X157190689Y-96034989D01*
X157144757Y-96030465D01*
X157098825Y-96034989D01*
X143813277Y-96034989D01*
X143145096Y-95366809D01*
X143260920Y-95311641D01*
X143494269Y-95137588D01*
X143570034Y-95053534D01*
X143594498Y-95134180D01*
X143653463Y-95244494D01*
X143732815Y-95341185D01*
X143829506Y-95420537D01*
X143939820Y-95479502D01*
X144059518Y-95515812D01*
X144184000Y-95528072D01*
X145884000Y-95528072D01*
X146008482Y-95515812D01*
X146128180Y-95479502D01*
X146238494Y-95420537D01*
X146335185Y-95341185D01*
X146414537Y-95244494D01*
X146473502Y-95134180D01*
X146509812Y-95014482D01*
X146522072Y-94890000D01*
X146522072Y-93190000D01*
X146509812Y-93065518D01*
X146473502Y-92945820D01*
X146414537Y-92835506D01*
X146335185Y-92738815D01*
X146238494Y-92659463D01*
X146128180Y-92600498D01*
X146008482Y-92564188D01*
X145884000Y-92551928D01*
X144184000Y-92551928D01*
X144059518Y-92564188D01*
X143939820Y-92600498D01*
X143829506Y-92659463D01*
X143732815Y-92738815D01*
X143653463Y-92835506D01*
X143594498Y-92945820D01*
X143570034Y-93026466D01*
X143494269Y-92942412D01*
X143260920Y-92768359D01*
X143145096Y-92713191D01*
X145662664Y-90195624D01*
X145698344Y-90166342D01*
X145815186Y-90023970D01*
X145902007Y-89861538D01*
X145955471Y-89685290D01*
X145969000Y-89547930D01*
X145973524Y-89501999D01*
X145969000Y-89456067D01*
X145969000Y-76410000D01*
X165135928Y-76410000D01*
X165135928Y-78110000D01*
X165148188Y-78234482D01*
X165184498Y-78354180D01*
X165243463Y-78464494D01*
X165322815Y-78561185D01*
X165419506Y-78640537D01*
X165529820Y-78699502D01*
X165649518Y-78735812D01*
X165774000Y-78748072D01*
X167474000Y-78748072D01*
X167598482Y-78735812D01*
X167718180Y-78699502D01*
X167828494Y-78640537D01*
X167925185Y-78561185D01*
X168004537Y-78464494D01*
X168063502Y-78354180D01*
X168099812Y-78234482D01*
X168112072Y-78110000D01*
X168112072Y-76410000D01*
X168099812Y-76285518D01*
X168063502Y-76165820D01*
X168004537Y-76055506D01*
X167925185Y-75958815D01*
X167828494Y-75879463D01*
X167718180Y-75820498D01*
X167598482Y-75784188D01*
X167474000Y-75771928D01*
X165774000Y-75771928D01*
X165649518Y-75784188D01*
X165529820Y-75820498D01*
X165419506Y-75879463D01*
X165322815Y-75958815D01*
X165243463Y-76055506D01*
X165184498Y-76165820D01*
X165148188Y-76285518D01*
X165135928Y-76410000D01*
X145969000Y-76410000D01*
X145969000Y-71120000D01*
X163861815Y-71120000D01*
X163890487Y-71411111D01*
X163975401Y-71691034D01*
X164113294Y-71949014D01*
X164298866Y-72175134D01*
X164524986Y-72360706D01*
X164782966Y-72498599D01*
X165062889Y-72583513D01*
X165281050Y-72605000D01*
X165426950Y-72605000D01*
X165645111Y-72583513D01*
X165925034Y-72498599D01*
X166183014Y-72360706D01*
X166409134Y-72175134D01*
X166594706Y-71949014D01*
X166732599Y-71691034D01*
X166817513Y-71411111D01*
X166846185Y-71120000D01*
X166817513Y-70828889D01*
X166732599Y-70548966D01*
X166594706Y-70290986D01*
X166409134Y-70064866D01*
X166183014Y-69879294D01*
X166118477Y-69844799D01*
X166235355Y-69775178D01*
X166451588Y-69580269D01*
X166625641Y-69346920D01*
X166750825Y-69084099D01*
X166795476Y-68936890D01*
X166674155Y-68707000D01*
X165481000Y-68707000D01*
X165481000Y-68727000D01*
X165227000Y-68727000D01*
X165227000Y-68707000D01*
X164033845Y-68707000D01*
X163912524Y-68936890D01*
X163957175Y-69084099D01*
X164082359Y-69346920D01*
X164256412Y-69580269D01*
X164472645Y-69775178D01*
X164589523Y-69844799D01*
X164524986Y-69879294D01*
X164298866Y-70064866D01*
X164113294Y-70290986D01*
X163975401Y-70548966D01*
X163890487Y-70828889D01*
X163861815Y-71120000D01*
X145969000Y-71120000D01*
X145969000Y-67193725D01*
X146089134Y-67095134D01*
X146274706Y-66869014D01*
X146304000Y-66814209D01*
X146333294Y-66869014D01*
X146518866Y-67095134D01*
X146744986Y-67280706D01*
X147002966Y-67418599D01*
X147282889Y-67503513D01*
X147501050Y-67525000D01*
X147646950Y-67525000D01*
X147865111Y-67503513D01*
X148145034Y-67418599D01*
X148403014Y-67280706D01*
X148629134Y-67095134D01*
X148814706Y-66869014D01*
X148849201Y-66804477D01*
X148918822Y-66921355D01*
X149113731Y-67137588D01*
X149347080Y-67311641D01*
X149609901Y-67436825D01*
X149757110Y-67481476D01*
X149987000Y-67360155D01*
X149987000Y-66167000D01*
X150241000Y-66167000D01*
X150241000Y-67360155D01*
X150470890Y-67481476D01*
X150618099Y-67436825D01*
X150880920Y-67311641D01*
X151114269Y-67137588D01*
X151309178Y-66921355D01*
X151458157Y-66671252D01*
X151555481Y-66396891D01*
X151434814Y-66167000D01*
X150241000Y-66167000D01*
X149987000Y-66167000D01*
X149967000Y-66167000D01*
X149967000Y-65913000D01*
X149987000Y-65913000D01*
X149987000Y-64719845D01*
X150241000Y-64719845D01*
X150241000Y-65913000D01*
X151434814Y-65913000D01*
X151555481Y-65683109D01*
X151458157Y-65408748D01*
X151327856Y-65190000D01*
X163865928Y-65190000D01*
X163865928Y-66890000D01*
X163878188Y-67014482D01*
X163914498Y-67134180D01*
X163973463Y-67244494D01*
X164052815Y-67341185D01*
X164149506Y-67420537D01*
X164259820Y-67479502D01*
X164340466Y-67503966D01*
X164256412Y-67579731D01*
X164082359Y-67813080D01*
X163957175Y-68075901D01*
X163912524Y-68223110D01*
X164033845Y-68453000D01*
X165227000Y-68453000D01*
X165227000Y-68433000D01*
X165481000Y-68433000D01*
X165481000Y-68453000D01*
X166674155Y-68453000D01*
X166795476Y-68223110D01*
X166750825Y-68075901D01*
X166625641Y-67813080D01*
X166451588Y-67579731D01*
X166367534Y-67503966D01*
X166448180Y-67479502D01*
X166558494Y-67420537D01*
X166655185Y-67341185D01*
X166734537Y-67244494D01*
X166793502Y-67134180D01*
X166829812Y-67014482D01*
X166842072Y-66890000D01*
X166842072Y-65190000D01*
X166829812Y-65065518D01*
X166793502Y-64945820D01*
X166734537Y-64835506D01*
X166655185Y-64738815D01*
X166558494Y-64659463D01*
X166448180Y-64600498D01*
X166328482Y-64564188D01*
X166204000Y-64551928D01*
X164504000Y-64551928D01*
X164379518Y-64564188D01*
X164259820Y-64600498D01*
X164149506Y-64659463D01*
X164052815Y-64738815D01*
X163973463Y-64835506D01*
X163914498Y-64945820D01*
X163878188Y-65065518D01*
X163865928Y-65190000D01*
X151327856Y-65190000D01*
X151309178Y-65158645D01*
X151114269Y-64942412D01*
X150880920Y-64768359D01*
X150618099Y-64643175D01*
X150470890Y-64598524D01*
X150241000Y-64719845D01*
X149987000Y-64719845D01*
X149757110Y-64598524D01*
X149609901Y-64643175D01*
X149347080Y-64768359D01*
X149113731Y-64942412D01*
X148918822Y-65158645D01*
X148849201Y-65275523D01*
X148814706Y-65210986D01*
X148629134Y-64984866D01*
X148403014Y-64799294D01*
X148145034Y-64661401D01*
X147865111Y-64576487D01*
X147646950Y-64555000D01*
X147501050Y-64555000D01*
X147282889Y-64576487D01*
X147002966Y-64661401D01*
X146744986Y-64799294D01*
X146518866Y-64984866D01*
X146333294Y-65210986D01*
X146304000Y-65265791D01*
X146274706Y-65210986D01*
X146089134Y-64984866D01*
X145863014Y-64799294D01*
X145605034Y-64661401D01*
X145325111Y-64576487D01*
X145106950Y-64555000D01*
X144961050Y-64555000D01*
X144742889Y-64576487D01*
X144462966Y-64661401D01*
X144204986Y-64799294D01*
X143978866Y-64984866D01*
X143793294Y-65210986D01*
X143764000Y-65265791D01*
X143734706Y-65210986D01*
X143549134Y-64984866D01*
X143323014Y-64799294D01*
X143065034Y-64661401D01*
X142785111Y-64576487D01*
X142566950Y-64555000D01*
X142421050Y-64555000D01*
X142202889Y-64576487D01*
X141922966Y-64661401D01*
X141664986Y-64799294D01*
X141438866Y-64984866D01*
X141253294Y-65210986D01*
X141224000Y-65265791D01*
X141194706Y-65210986D01*
X141009134Y-64984866D01*
X140783014Y-64799294D01*
X140525034Y-64661401D01*
X140245111Y-64576487D01*
X140026950Y-64555000D01*
X139881050Y-64555000D01*
X139662889Y-64576487D01*
X139382966Y-64661401D01*
X139124986Y-64799294D01*
X138898866Y-64984866D01*
X138874393Y-65014687D01*
X138853502Y-64945820D01*
X138794537Y-64835506D01*
X138715185Y-64738815D01*
X138618494Y-64659463D01*
X138508180Y-64600498D01*
X138388482Y-64564188D01*
X138264000Y-64551928D01*
X136564000Y-64551928D01*
X136439518Y-64564188D01*
X136319820Y-64600498D01*
X136209506Y-64659463D01*
X136112815Y-64738815D01*
X136033463Y-64835506D01*
X135974498Y-64945820D01*
X135938188Y-65065518D01*
X135925928Y-65190000D01*
X135925928Y-66890000D01*
X135938188Y-67014482D01*
X135974498Y-67134180D01*
X136033463Y-67244494D01*
X136112815Y-67341185D01*
X136209506Y-67420537D01*
X136319820Y-67479502D01*
X136439518Y-67515812D01*
X136564000Y-67528072D01*
X138264000Y-67528072D01*
X138388482Y-67515812D01*
X138508180Y-67479502D01*
X138618494Y-67420537D01*
X138715185Y-67341185D01*
X138794537Y-67244494D01*
X138853502Y-67134180D01*
X138874393Y-67065313D01*
X138898866Y-67095134D01*
X139124986Y-67280706D01*
X139382966Y-67418599D01*
X139662889Y-67503513D01*
X139881050Y-67525000D01*
X140026950Y-67525000D01*
X140245111Y-67503513D01*
X140525034Y-67418599D01*
X140783014Y-67280706D01*
X141009134Y-67095134D01*
X141194706Y-66869014D01*
X141224000Y-66814209D01*
X141253294Y-66869014D01*
X141438866Y-67095134D01*
X141559001Y-67193726D01*
X141559000Y-82670710D01*
X129165336Y-95064375D01*
X129129657Y-95093656D01*
X129012815Y-95236028D01*
X128969713Y-95316667D01*
X128925994Y-95398460D01*
X128872529Y-95574709D01*
X128854476Y-95758000D01*
X128859001Y-95803942D01*
X128859000Y-98252068D01*
X128854476Y-98298000D01*
X128859001Y-98343942D01*
X128859000Y-116002542D01*
X126284391Y-116002542D01*
X126238456Y-115998018D01*
X126055164Y-116016070D01*
X125951284Y-116047583D01*
X125878916Y-116069535D01*
X125716484Y-116156356D01*
X125574112Y-116273198D01*
X125544826Y-116308883D01*
X123178708Y-118675001D01*
X123069930Y-118675001D01*
X123023998Y-118670477D01*
X122840706Y-118688530D01*
X122787242Y-118704748D01*
X122664459Y-118741994D01*
X122502027Y-118828815D01*
X122359655Y-118945657D01*
X122330375Y-118981335D01*
X122328662Y-118983048D01*
X122246950Y-118975000D01*
X122101050Y-118975000D01*
X121882889Y-118996487D01*
X121602966Y-119081401D01*
X121344986Y-119219294D01*
X121118866Y-119404866D01*
X120933294Y-119630986D01*
X120904000Y-119685791D01*
X120874706Y-119630986D01*
X120689134Y-119404866D01*
X120463014Y-119219294D01*
X120205034Y-119081401D01*
X119925111Y-118996487D01*
X119706950Y-118975000D01*
X119561050Y-118975000D01*
X119342889Y-118996487D01*
X119062966Y-119081401D01*
X118804986Y-119219294D01*
X118578866Y-119404866D01*
X118554393Y-119434687D01*
X118533502Y-119365820D01*
X118474537Y-119255506D01*
X118395185Y-119158815D01*
X118298494Y-119079463D01*
X118188180Y-119020498D01*
X118068482Y-118984188D01*
X117944000Y-118971928D01*
X116244000Y-118971928D01*
X116119518Y-118984188D01*
X115999820Y-119020498D01*
X115889506Y-119079463D01*
X115792815Y-119158815D01*
X115713463Y-119255506D01*
X115654498Y-119365820D01*
X115618188Y-119485518D01*
X115605928Y-119610000D01*
X111425000Y-119610000D01*
X111425000Y-116687264D01*
X111672699Y-116852772D01*
X111990550Y-116984430D01*
X112327980Y-117051549D01*
X112672020Y-117051549D01*
X113009450Y-116984430D01*
X113327301Y-116852772D01*
X113613360Y-116661633D01*
X113856633Y-116418360D01*
X114047772Y-116132301D01*
X114179430Y-115814450D01*
X114246549Y-115477020D01*
X114246549Y-115132980D01*
X114182305Y-114810000D01*
X119415928Y-114810000D01*
X119415928Y-116510000D01*
X119428188Y-116634482D01*
X119464498Y-116754180D01*
X119523463Y-116864494D01*
X119602815Y-116961185D01*
X119699506Y-117040537D01*
X119809820Y-117099502D01*
X119929518Y-117135812D01*
X120054000Y-117148072D01*
X121754000Y-117148072D01*
X121878482Y-117135812D01*
X121998180Y-117099502D01*
X122108494Y-117040537D01*
X122205185Y-116961185D01*
X122284537Y-116864494D01*
X122343502Y-116754180D01*
X122379812Y-116634482D01*
X122392072Y-116510000D01*
X122392072Y-114810000D01*
X122379812Y-114685518D01*
X122343502Y-114565820D01*
X122284537Y-114455506D01*
X122205185Y-114358815D01*
X122108494Y-114279463D01*
X121998180Y-114220498D01*
X121878482Y-114184188D01*
X121754000Y-114171928D01*
X120054000Y-114171928D01*
X119929518Y-114184188D01*
X119809820Y-114220498D01*
X119699506Y-114279463D01*
X119602815Y-114358815D01*
X119523463Y-114455506D01*
X119464498Y-114565820D01*
X119428188Y-114685518D01*
X119415928Y-114810000D01*
X114182305Y-114810000D01*
X114179430Y-114795550D01*
X114047772Y-114477699D01*
X113856633Y-114191640D01*
X113613360Y-113948367D01*
X113327301Y-113757228D01*
X113009450Y-113625570D01*
X112672020Y-113558451D01*
X112327980Y-113558451D01*
X111990550Y-113625570D01*
X111672699Y-113757228D01*
X111425000Y-113922736D01*
X111425000Y-76410000D01*
X119415928Y-76410000D01*
X119415928Y-78110000D01*
X119428188Y-78234482D01*
X119464498Y-78354180D01*
X119523463Y-78464494D01*
X119602815Y-78561185D01*
X119699506Y-78640537D01*
X119809820Y-78699502D01*
X119929518Y-78735812D01*
X120054000Y-78748072D01*
X121754000Y-78748072D01*
X121878482Y-78735812D01*
X121998180Y-78699502D01*
X122108494Y-78640537D01*
X122205185Y-78561185D01*
X122284537Y-78464494D01*
X122343502Y-78354180D01*
X122379812Y-78234482D01*
X122392072Y-78110000D01*
X122392072Y-76410000D01*
X122379812Y-76285518D01*
X122343502Y-76165820D01*
X122284537Y-76055506D01*
X122205185Y-75958815D01*
X122108494Y-75879463D01*
X121998180Y-75820498D01*
X121878482Y-75784188D01*
X121754000Y-75771928D01*
X120054000Y-75771928D01*
X119929518Y-75784188D01*
X119809820Y-75820498D01*
X119699506Y-75879463D01*
X119602815Y-75958815D01*
X119523463Y-76055506D01*
X119464498Y-76165820D01*
X119428188Y-76285518D01*
X119415928Y-76410000D01*
X111425000Y-76410000D01*
X111425000Y-71553283D01*
X111454876Y-71703478D01*
X111594036Y-72039441D01*
X111796066Y-72341800D01*
X112053200Y-72598934D01*
X112355559Y-72800964D01*
X112691522Y-72940124D01*
X113048178Y-73011068D01*
X113411822Y-73011068D01*
X113768478Y-72940124D01*
X114104441Y-72800964D01*
X114406800Y-72598934D01*
X114663934Y-72341800D01*
X114865964Y-72039441D01*
X115005124Y-71703478D01*
X115076068Y-71346822D01*
X115076068Y-70983178D01*
X115005124Y-70626522D01*
X114865964Y-70290559D01*
X114663934Y-69988200D01*
X114406800Y-69731066D01*
X114104441Y-69529036D01*
X113768478Y-69389876D01*
X113411822Y-69318932D01*
X113048178Y-69318932D01*
X112691522Y-69389876D01*
X112355559Y-69529036D01*
X112053200Y-69731066D01*
X111796066Y-69988200D01*
X111594036Y-70290559D01*
X111454876Y-70626522D01*
X111425000Y-70776717D01*
X111425000Y-69849446D01*
X115984446Y-65290000D01*
X120685928Y-65290000D01*
X120685928Y-66790000D01*
X120702992Y-66963254D01*
X120753528Y-67129850D01*
X120835595Y-67283386D01*
X120946038Y-67417962D01*
X121080614Y-67528405D01*
X121234150Y-67610472D01*
X121400746Y-67661008D01*
X121574000Y-67678072D01*
X122774000Y-67678072D01*
X122947254Y-67661008D01*
X123113850Y-67610472D01*
X123267386Y-67528405D01*
X123401962Y-67417962D01*
X123512405Y-67283386D01*
X123566777Y-67181663D01*
X123618866Y-67245134D01*
X123844987Y-67430706D01*
X124102967Y-67568599D01*
X124382890Y-67653513D01*
X124674000Y-67682185D01*
X124965111Y-67653513D01*
X125245034Y-67568599D01*
X125503014Y-67430706D01*
X125729134Y-67245134D01*
X125914706Y-67019014D01*
X126052599Y-66761033D01*
X126137513Y-66481110D01*
X126159000Y-66262949D01*
X126159000Y-65817050D01*
X126137513Y-65598889D01*
X126052599Y-65318966D01*
X125914706Y-65060986D01*
X125729134Y-64834866D01*
X125503013Y-64649294D01*
X125245033Y-64511401D01*
X124965110Y-64426487D01*
X124674000Y-64397815D01*
X124382889Y-64426487D01*
X124102966Y-64511401D01*
X123844986Y-64649294D01*
X123618866Y-64834866D01*
X123566777Y-64898337D01*
X123512405Y-64796614D01*
X123401962Y-64662038D01*
X123267386Y-64551595D01*
X123113850Y-64469528D01*
X122947254Y-64418992D01*
X122774000Y-64401928D01*
X121574000Y-64401928D01*
X121400746Y-64418992D01*
X121234150Y-64469528D01*
X121080614Y-64551595D01*
X120946038Y-64662038D01*
X120835595Y-64796614D01*
X120753528Y-64950150D01*
X120702992Y-65116746D01*
X120685928Y-65290000D01*
X115984446Y-65290000D01*
X116994447Y-64280000D01*
X170425554Y-64280000D01*
X175995001Y-69849448D01*
X175995001Y-69849448D01*
G37*
X175995001Y-69849448D02*
X175995001Y-70776722D01*
X175965124Y-70626522D01*
X175825964Y-70290559D01*
X175623934Y-69988200D01*
X175366800Y-69731066D01*
X175064441Y-69529036D01*
X174728478Y-69389876D01*
X174371822Y-69318932D01*
X174008178Y-69318932D01*
X173651522Y-69389876D01*
X173315559Y-69529036D01*
X173013200Y-69731066D01*
X172756066Y-69988200D01*
X172554036Y-70290559D01*
X172414876Y-70626522D01*
X172343932Y-70983178D01*
X172343932Y-71346822D01*
X172414876Y-71703478D01*
X172554036Y-72039441D01*
X172756066Y-72341800D01*
X173013200Y-72598934D01*
X173315559Y-72800964D01*
X173651522Y-72940124D01*
X174008178Y-73011068D01*
X174371822Y-73011068D01*
X174728478Y-72940124D01*
X175064441Y-72800964D01*
X175366800Y-72598934D01*
X175623934Y-72341800D01*
X175825964Y-72039441D01*
X175965124Y-71703478D01*
X175995001Y-71553278D01*
X175995001Y-76322736D01*
X175747301Y-76157228D01*
X175429450Y-76025570D01*
X175092020Y-75958451D01*
X174747980Y-75958451D01*
X174410550Y-76025570D01*
X174092699Y-76157228D01*
X173806640Y-76348367D01*
X173563367Y-76591640D01*
X173372228Y-76877699D01*
X173240570Y-77195550D01*
X173173451Y-77532980D01*
X173173451Y-77877020D01*
X173240570Y-78214450D01*
X173372228Y-78532301D01*
X173563367Y-78818360D01*
X173806640Y-79061633D01*
X174092699Y-79252772D01*
X174410550Y-79384430D01*
X174747980Y-79451549D01*
X175092020Y-79451549D01*
X175429450Y-79384430D01*
X175747301Y-79252772D01*
X175995001Y-79087264D01*
X175995000Y-121576717D01*
X175965124Y-121426522D01*
X175825964Y-121090559D01*
X175623934Y-120788200D01*
X175366800Y-120531066D01*
X175064441Y-120329036D01*
X174728478Y-120189876D01*
X174371822Y-120118932D01*
X174008178Y-120118932D01*
X173651522Y-120189876D01*
X173315559Y-120329036D01*
X173013200Y-120531066D01*
X172756066Y-120788200D01*
X172554036Y-121090559D01*
X172414876Y-121426522D01*
X172343932Y-121783178D01*
X172343932Y-122146822D01*
X172414876Y-122503478D01*
X172554036Y-122839441D01*
X172756066Y-123141800D01*
X173013200Y-123398934D01*
X173315559Y-123600964D01*
X173651522Y-123740124D01*
X173801717Y-123770000D01*
X113618283Y-123770000D01*
X113768478Y-123740124D01*
X114104441Y-123600964D01*
X114406800Y-123398934D01*
X114663934Y-123141800D01*
X114865964Y-122839441D01*
X115005124Y-122503478D01*
X115076068Y-122146822D01*
X115076068Y-121783178D01*
X115005124Y-121426522D01*
X114865964Y-121090559D01*
X114663934Y-120788200D01*
X114406800Y-120531066D01*
X114104441Y-120329036D01*
X113768478Y-120189876D01*
X113411822Y-120118932D01*
X113048178Y-120118932D01*
X112691522Y-120189876D01*
X112355559Y-120329036D01*
X112053200Y-120531066D01*
X111796066Y-120788200D01*
X111594036Y-121090559D01*
X111454876Y-121426522D01*
X111425000Y-121576717D01*
X111425000Y-119610000D01*
X115605928Y-119610000D01*
X115605928Y-121310000D01*
X115618188Y-121434482D01*
X115654498Y-121554180D01*
X115713463Y-121664494D01*
X115792815Y-121761185D01*
X115889506Y-121840537D01*
X115999820Y-121899502D01*
X116119518Y-121935812D01*
X116244000Y-121948072D01*
X117944000Y-121948072D01*
X118068482Y-121935812D01*
X118188180Y-121899502D01*
X118298494Y-121840537D01*
X118395185Y-121761185D01*
X118474537Y-121664494D01*
X118533502Y-121554180D01*
X118554393Y-121485313D01*
X118578866Y-121515134D01*
X118804986Y-121700706D01*
X119062966Y-121838599D01*
X119342889Y-121923513D01*
X119561050Y-121945000D01*
X119706950Y-121945000D01*
X119788663Y-121936952D01*
X120290371Y-122438660D01*
X120319657Y-122474345D01*
X120462029Y-122591187D01*
X120537398Y-122631472D01*
X120624460Y-122678008D01*
X120800709Y-122731473D01*
X120984001Y-122749525D01*
X121029936Y-122745001D01*
X138558067Y-122745001D01*
X138603999Y-122749525D01*
X138649931Y-122745001D01*
X138787291Y-122731472D01*
X138963539Y-122678008D01*
X139125971Y-122591187D01*
X139268343Y-122474345D01*
X139297630Y-122438659D01*
X139732662Y-122003626D01*
X139732667Y-122003622D01*
X139799337Y-121936952D01*
X139881050Y-121945000D01*
X140026950Y-121945000D01*
X140108663Y-121936952D01*
X141410381Y-123238670D01*
X141439667Y-123274355D01*
X141582039Y-123391197D01*
X141687891Y-123447776D01*
X141744470Y-123478018D01*
X141920719Y-123531483D01*
X142104011Y-123549535D01*
X142149946Y-123545011D01*
X157506057Y-123545011D01*
X157551989Y-123549535D01*
X157597921Y-123545011D01*
X168298059Y-123545011D01*
X168343991Y-123549535D01*
X168389923Y-123545011D01*
X168527283Y-123531482D01*
X168703531Y-123478018D01*
X168865963Y-123391197D01*
X169008335Y-123274355D01*
X169037621Y-123238670D01*
X169872665Y-122403627D01*
X169908345Y-122374345D01*
X170025187Y-122231973D01*
X170112008Y-122069541D01*
X170165472Y-121893293D01*
X170183525Y-121710002D01*
X170179001Y-121664070D01*
X170179001Y-119255930D01*
X170183525Y-119209998D01*
X170165472Y-119026707D01*
X170112008Y-118850459D01*
X170025187Y-118688027D01*
X169908345Y-118545655D01*
X169872661Y-118516370D01*
X169837631Y-118481340D01*
X169808345Y-118445655D01*
X169665973Y-118328813D01*
X169503541Y-118241992D01*
X169327293Y-118188528D01*
X169189933Y-118174999D01*
X169144001Y-118170475D01*
X169098069Y-118174999D01*
X166724754Y-118174999D01*
X165689505Y-117139750D01*
X165774000Y-117148072D01*
X166338250Y-117145000D01*
X166497000Y-116986250D01*
X166497000Y-115787000D01*
X166751000Y-115787000D01*
X166751000Y-116986250D01*
X166909750Y-117145000D01*
X167474000Y-117148072D01*
X167598482Y-117135812D01*
X167718180Y-117099502D01*
X167828494Y-117040537D01*
X167925185Y-116961185D01*
X168004537Y-116864494D01*
X168063502Y-116754180D01*
X168099812Y-116634482D01*
X168112072Y-116510000D01*
X168109000Y-115945750D01*
X167950250Y-115787000D01*
X166751000Y-115787000D01*
X166497000Y-115787000D01*
X165297750Y-115787000D01*
X165139000Y-115945750D01*
X165135928Y-116510000D01*
X165144250Y-116594495D01*
X163787010Y-115237256D01*
X163787010Y-114810000D01*
X165135928Y-114810000D01*
X165139000Y-115374250D01*
X165297750Y-115533000D01*
X166497000Y-115533000D01*
X166497000Y-114333750D01*
X166751000Y-114333750D01*
X166751000Y-115533000D01*
X167950250Y-115533000D01*
X168109000Y-115374250D01*
X168112072Y-114810000D01*
X168099812Y-114685518D01*
X168063502Y-114565820D01*
X168004537Y-114455506D01*
X167925185Y-114358815D01*
X167828494Y-114279463D01*
X167718180Y-114220498D01*
X167598482Y-114184188D01*
X167474000Y-114171928D01*
X166909750Y-114175000D01*
X166751000Y-114333750D01*
X166497000Y-114333750D01*
X166338250Y-114175000D01*
X165774000Y-114171928D01*
X165649518Y-114184188D01*
X165529820Y-114220498D01*
X165419506Y-114279463D01*
X165322815Y-114358815D01*
X165243463Y-114455506D01*
X165184498Y-114565820D01*
X165148188Y-114685518D01*
X165135928Y-114810000D01*
X163787010Y-114810000D01*
X163787010Y-102723177D01*
X163791534Y-102677242D01*
X163773482Y-102493950D01*
X163720017Y-102317701D01*
X163673692Y-102231034D01*
X163633196Y-102155270D01*
X163516354Y-102012898D01*
X163480670Y-101983613D01*
X157838387Y-96341330D01*
X157809101Y-96305645D01*
X157666729Y-96188803D01*
X157504297Y-96101982D01*
X157328049Y-96048518D01*
X157190689Y-96034989D01*
X157144757Y-96030465D01*
X157098825Y-96034989D01*
X143813277Y-96034989D01*
X143145096Y-95366809D01*
X143260920Y-95311641D01*
X143494269Y-95137588D01*
X143570034Y-95053534D01*
X143594498Y-95134180D01*
X143653463Y-95244494D01*
X143732815Y-95341185D01*
X143829506Y-95420537D01*
X143939820Y-95479502D01*
X144059518Y-95515812D01*
X144184000Y-95528072D01*
X145884000Y-95528072D01*
X146008482Y-95515812D01*
X146128180Y-95479502D01*
X146238494Y-95420537D01*
X146335185Y-95341185D01*
X146414537Y-95244494D01*
X146473502Y-95134180D01*
X146509812Y-95014482D01*
X146522072Y-94890000D01*
X146522072Y-93190000D01*
X146509812Y-93065518D01*
X146473502Y-92945820D01*
X146414537Y-92835506D01*
X146335185Y-92738815D01*
X146238494Y-92659463D01*
X146128180Y-92600498D01*
X146008482Y-92564188D01*
X145884000Y-92551928D01*
X144184000Y-92551928D01*
X144059518Y-92564188D01*
X143939820Y-92600498D01*
X143829506Y-92659463D01*
X143732815Y-92738815D01*
X143653463Y-92835506D01*
X143594498Y-92945820D01*
X143570034Y-93026466D01*
X143494269Y-92942412D01*
X143260920Y-92768359D01*
X143145096Y-92713191D01*
X145662664Y-90195624D01*
X145698344Y-90166342D01*
X145815186Y-90023970D01*
X145902007Y-89861538D01*
X145955471Y-89685290D01*
X145969000Y-89547930D01*
X145973524Y-89501999D01*
X145969000Y-89456067D01*
X145969000Y-76410000D01*
X165135928Y-76410000D01*
X165135928Y-78110000D01*
X165148188Y-78234482D01*
X165184498Y-78354180D01*
X165243463Y-78464494D01*
X165322815Y-78561185D01*
X165419506Y-78640537D01*
X165529820Y-78699502D01*
X165649518Y-78735812D01*
X165774000Y-78748072D01*
X167474000Y-78748072D01*
X167598482Y-78735812D01*
X167718180Y-78699502D01*
X167828494Y-78640537D01*
X167925185Y-78561185D01*
X168004537Y-78464494D01*
X168063502Y-78354180D01*
X168099812Y-78234482D01*
X168112072Y-78110000D01*
X168112072Y-76410000D01*
X168099812Y-76285518D01*
X168063502Y-76165820D01*
X168004537Y-76055506D01*
X167925185Y-75958815D01*
X167828494Y-75879463D01*
X167718180Y-75820498D01*
X167598482Y-75784188D01*
X167474000Y-75771928D01*
X165774000Y-75771928D01*
X165649518Y-75784188D01*
X165529820Y-75820498D01*
X165419506Y-75879463D01*
X165322815Y-75958815D01*
X165243463Y-76055506D01*
X165184498Y-76165820D01*
X165148188Y-76285518D01*
X165135928Y-76410000D01*
X145969000Y-76410000D01*
X145969000Y-71120000D01*
X163861815Y-71120000D01*
X163890487Y-71411111D01*
X163975401Y-71691034D01*
X164113294Y-71949014D01*
X164298866Y-72175134D01*
X164524986Y-72360706D01*
X164782966Y-72498599D01*
X165062889Y-72583513D01*
X165281050Y-72605000D01*
X165426950Y-72605000D01*
X165645111Y-72583513D01*
X165925034Y-72498599D01*
X166183014Y-72360706D01*
X166409134Y-72175134D01*
X166594706Y-71949014D01*
X166732599Y-71691034D01*
X166817513Y-71411111D01*
X166846185Y-71120000D01*
X166817513Y-70828889D01*
X166732599Y-70548966D01*
X166594706Y-70290986D01*
X166409134Y-70064866D01*
X166183014Y-69879294D01*
X166118477Y-69844799D01*
X166235355Y-69775178D01*
X166451588Y-69580269D01*
X166625641Y-69346920D01*
X166750825Y-69084099D01*
X166795476Y-68936890D01*
X166674155Y-68707000D01*
X165481000Y-68707000D01*
X165481000Y-68727000D01*
X165227000Y-68727000D01*
X165227000Y-68707000D01*
X164033845Y-68707000D01*
X163912524Y-68936890D01*
X163957175Y-69084099D01*
X164082359Y-69346920D01*
X164256412Y-69580269D01*
X164472645Y-69775178D01*
X164589523Y-69844799D01*
X164524986Y-69879294D01*
X164298866Y-70064866D01*
X164113294Y-70290986D01*
X163975401Y-70548966D01*
X163890487Y-70828889D01*
X163861815Y-71120000D01*
X145969000Y-71120000D01*
X145969000Y-67193725D01*
X146089134Y-67095134D01*
X146274706Y-66869014D01*
X146304000Y-66814209D01*
X146333294Y-66869014D01*
X146518866Y-67095134D01*
X146744986Y-67280706D01*
X147002966Y-67418599D01*
X147282889Y-67503513D01*
X147501050Y-67525000D01*
X147646950Y-67525000D01*
X147865111Y-67503513D01*
X148145034Y-67418599D01*
X148403014Y-67280706D01*
X148629134Y-67095134D01*
X148814706Y-66869014D01*
X148849201Y-66804477D01*
X148918822Y-66921355D01*
X149113731Y-67137588D01*
X149347080Y-67311641D01*
X149609901Y-67436825D01*
X149757110Y-67481476D01*
X149987000Y-67360155D01*
X149987000Y-66167000D01*
X150241000Y-66167000D01*
X150241000Y-67360155D01*
X150470890Y-67481476D01*
X150618099Y-67436825D01*
X150880920Y-67311641D01*
X151114269Y-67137588D01*
X151309178Y-66921355D01*
X151458157Y-66671252D01*
X151555481Y-66396891D01*
X151434814Y-66167000D01*
X150241000Y-66167000D01*
X149987000Y-66167000D01*
X149967000Y-66167000D01*
X149967000Y-65913000D01*
X149987000Y-65913000D01*
X149987000Y-64719845D01*
X150241000Y-64719845D01*
X150241000Y-65913000D01*
X151434814Y-65913000D01*
X151555481Y-65683109D01*
X151458157Y-65408748D01*
X151327856Y-65190000D01*
X163865928Y-65190000D01*
X163865928Y-66890000D01*
X163878188Y-67014482D01*
X163914498Y-67134180D01*
X163973463Y-67244494D01*
X164052815Y-67341185D01*
X164149506Y-67420537D01*
X164259820Y-67479502D01*
X164340466Y-67503966D01*
X164256412Y-67579731D01*
X164082359Y-67813080D01*
X163957175Y-68075901D01*
X163912524Y-68223110D01*
X164033845Y-68453000D01*
X165227000Y-68453000D01*
X165227000Y-68433000D01*
X165481000Y-68433000D01*
X165481000Y-68453000D01*
X166674155Y-68453000D01*
X166795476Y-68223110D01*
X166750825Y-68075901D01*
X166625641Y-67813080D01*
X166451588Y-67579731D01*
X166367534Y-67503966D01*
X166448180Y-67479502D01*
X166558494Y-67420537D01*
X166655185Y-67341185D01*
X166734537Y-67244494D01*
X166793502Y-67134180D01*
X166829812Y-67014482D01*
X166842072Y-66890000D01*
X166842072Y-65190000D01*
X166829812Y-65065518D01*
X166793502Y-64945820D01*
X166734537Y-64835506D01*
X166655185Y-64738815D01*
X166558494Y-64659463D01*
X166448180Y-64600498D01*
X166328482Y-64564188D01*
X166204000Y-64551928D01*
X164504000Y-64551928D01*
X164379518Y-64564188D01*
X164259820Y-64600498D01*
X164149506Y-64659463D01*
X164052815Y-64738815D01*
X163973463Y-64835506D01*
X163914498Y-64945820D01*
X163878188Y-65065518D01*
X163865928Y-65190000D01*
X151327856Y-65190000D01*
X151309178Y-65158645D01*
X151114269Y-64942412D01*
X150880920Y-64768359D01*
X150618099Y-64643175D01*
X150470890Y-64598524D01*
X150241000Y-64719845D01*
X149987000Y-64719845D01*
X149757110Y-64598524D01*
X149609901Y-64643175D01*
X149347080Y-64768359D01*
X149113731Y-64942412D01*
X148918822Y-65158645D01*
X148849201Y-65275523D01*
X148814706Y-65210986D01*
X148629134Y-64984866D01*
X148403014Y-64799294D01*
X148145034Y-64661401D01*
X147865111Y-64576487D01*
X147646950Y-64555000D01*
X147501050Y-64555000D01*
X147282889Y-64576487D01*
X147002966Y-64661401D01*
X146744986Y-64799294D01*
X146518866Y-64984866D01*
X146333294Y-65210986D01*
X146304000Y-65265791D01*
X146274706Y-65210986D01*
X146089134Y-64984866D01*
X145863014Y-64799294D01*
X145605034Y-64661401D01*
X145325111Y-64576487D01*
X145106950Y-64555000D01*
X144961050Y-64555000D01*
X144742889Y-64576487D01*
X144462966Y-64661401D01*
X144204986Y-64799294D01*
X143978866Y-64984866D01*
X143793294Y-65210986D01*
X143764000Y-65265791D01*
X143734706Y-65210986D01*
X143549134Y-64984866D01*
X143323014Y-64799294D01*
X143065034Y-64661401D01*
X142785111Y-64576487D01*
X142566950Y-64555000D01*
X142421050Y-64555000D01*
X142202889Y-64576487D01*
X141922966Y-64661401D01*
X141664986Y-64799294D01*
X141438866Y-64984866D01*
X141253294Y-65210986D01*
X141224000Y-65265791D01*
X141194706Y-65210986D01*
X141009134Y-64984866D01*
X140783014Y-64799294D01*
X140525034Y-64661401D01*
X140245111Y-64576487D01*
X140026950Y-64555000D01*
X139881050Y-64555000D01*
X139662889Y-64576487D01*
X139382966Y-64661401D01*
X139124986Y-64799294D01*
X138898866Y-64984866D01*
X138874393Y-65014687D01*
X138853502Y-64945820D01*
X138794537Y-64835506D01*
X138715185Y-64738815D01*
X138618494Y-64659463D01*
X138508180Y-64600498D01*
X138388482Y-64564188D01*
X138264000Y-64551928D01*
X136564000Y-64551928D01*
X136439518Y-64564188D01*
X136319820Y-64600498D01*
X136209506Y-64659463D01*
X136112815Y-64738815D01*
X136033463Y-64835506D01*
X135974498Y-64945820D01*
X135938188Y-65065518D01*
X135925928Y-65190000D01*
X135925928Y-66890000D01*
X135938188Y-67014482D01*
X135974498Y-67134180D01*
X136033463Y-67244494D01*
X136112815Y-67341185D01*
X136209506Y-67420537D01*
X136319820Y-67479502D01*
X136439518Y-67515812D01*
X136564000Y-67528072D01*
X138264000Y-67528072D01*
X138388482Y-67515812D01*
X138508180Y-67479502D01*
X138618494Y-67420537D01*
X138715185Y-67341185D01*
X138794537Y-67244494D01*
X138853502Y-67134180D01*
X138874393Y-67065313D01*
X138898866Y-67095134D01*
X139124986Y-67280706D01*
X139382966Y-67418599D01*
X139662889Y-67503513D01*
X139881050Y-67525000D01*
X140026950Y-67525000D01*
X140245111Y-67503513D01*
X140525034Y-67418599D01*
X140783014Y-67280706D01*
X141009134Y-67095134D01*
X141194706Y-66869014D01*
X141224000Y-66814209D01*
X141253294Y-66869014D01*
X141438866Y-67095134D01*
X141559001Y-67193726D01*
X141559000Y-82670710D01*
X129165336Y-95064375D01*
X129129657Y-95093656D01*
X129012815Y-95236028D01*
X128969713Y-95316667D01*
X128925994Y-95398460D01*
X128872529Y-95574709D01*
X128854476Y-95758000D01*
X128859001Y-95803942D01*
X128859000Y-98252068D01*
X128854476Y-98298000D01*
X128859001Y-98343942D01*
X128859000Y-116002542D01*
X126284391Y-116002542D01*
X126238456Y-115998018D01*
X126055164Y-116016070D01*
X125951284Y-116047583D01*
X125878916Y-116069535D01*
X125716484Y-116156356D01*
X125574112Y-116273198D01*
X125544826Y-116308883D01*
X123178708Y-118675001D01*
X123069930Y-118675001D01*
X123023998Y-118670477D01*
X122840706Y-118688530D01*
X122787242Y-118704748D01*
X122664459Y-118741994D01*
X122502027Y-118828815D01*
X122359655Y-118945657D01*
X122330375Y-118981335D01*
X122328662Y-118983048D01*
X122246950Y-118975000D01*
X122101050Y-118975000D01*
X121882889Y-118996487D01*
X121602966Y-119081401D01*
X121344986Y-119219294D01*
X121118866Y-119404866D01*
X120933294Y-119630986D01*
X120904000Y-119685791D01*
X120874706Y-119630986D01*
X120689134Y-119404866D01*
X120463014Y-119219294D01*
X120205034Y-119081401D01*
X119925111Y-118996487D01*
X119706950Y-118975000D01*
X119561050Y-118975000D01*
X119342889Y-118996487D01*
X119062966Y-119081401D01*
X118804986Y-119219294D01*
X118578866Y-119404866D01*
X118554393Y-119434687D01*
X118533502Y-119365820D01*
X118474537Y-119255506D01*
X118395185Y-119158815D01*
X118298494Y-119079463D01*
X118188180Y-119020498D01*
X118068482Y-118984188D01*
X117944000Y-118971928D01*
X116244000Y-118971928D01*
X116119518Y-118984188D01*
X115999820Y-119020498D01*
X115889506Y-119079463D01*
X115792815Y-119158815D01*
X115713463Y-119255506D01*
X115654498Y-119365820D01*
X115618188Y-119485518D01*
X115605928Y-119610000D01*
X111425000Y-119610000D01*
X111425000Y-116687264D01*
X111672699Y-116852772D01*
X111990550Y-116984430D01*
X112327980Y-117051549D01*
X112672020Y-117051549D01*
X113009450Y-116984430D01*
X113327301Y-116852772D01*
X113613360Y-116661633D01*
X113856633Y-116418360D01*
X114047772Y-116132301D01*
X114179430Y-115814450D01*
X114246549Y-115477020D01*
X114246549Y-115132980D01*
X114182305Y-114810000D01*
X119415928Y-114810000D01*
X119415928Y-116510000D01*
X119428188Y-116634482D01*
X119464498Y-116754180D01*
X119523463Y-116864494D01*
X119602815Y-116961185D01*
X119699506Y-117040537D01*
X119809820Y-117099502D01*
X119929518Y-117135812D01*
X120054000Y-117148072D01*
X121754000Y-117148072D01*
X121878482Y-117135812D01*
X121998180Y-117099502D01*
X122108494Y-117040537D01*
X122205185Y-116961185D01*
X122284537Y-116864494D01*
X122343502Y-116754180D01*
X122379812Y-116634482D01*
X122392072Y-116510000D01*
X122392072Y-114810000D01*
X122379812Y-114685518D01*
X122343502Y-114565820D01*
X122284537Y-114455506D01*
X122205185Y-114358815D01*
X122108494Y-114279463D01*
X121998180Y-114220498D01*
X121878482Y-114184188D01*
X121754000Y-114171928D01*
X120054000Y-114171928D01*
X119929518Y-114184188D01*
X119809820Y-114220498D01*
X119699506Y-114279463D01*
X119602815Y-114358815D01*
X119523463Y-114455506D01*
X119464498Y-114565820D01*
X119428188Y-114685518D01*
X119415928Y-114810000D01*
X114182305Y-114810000D01*
X114179430Y-114795550D01*
X114047772Y-114477699D01*
X113856633Y-114191640D01*
X113613360Y-113948367D01*
X113327301Y-113757228D01*
X113009450Y-113625570D01*
X112672020Y-113558451D01*
X112327980Y-113558451D01*
X111990550Y-113625570D01*
X111672699Y-113757228D01*
X111425000Y-113922736D01*
X111425000Y-76410000D01*
X119415928Y-76410000D01*
X119415928Y-78110000D01*
X119428188Y-78234482D01*
X119464498Y-78354180D01*
X119523463Y-78464494D01*
X119602815Y-78561185D01*
X119699506Y-78640537D01*
X119809820Y-78699502D01*
X119929518Y-78735812D01*
X120054000Y-78748072D01*
X121754000Y-78748072D01*
X121878482Y-78735812D01*
X121998180Y-78699502D01*
X122108494Y-78640537D01*
X122205185Y-78561185D01*
X122284537Y-78464494D01*
X122343502Y-78354180D01*
X122379812Y-78234482D01*
X122392072Y-78110000D01*
X122392072Y-76410000D01*
X122379812Y-76285518D01*
X122343502Y-76165820D01*
X122284537Y-76055506D01*
X122205185Y-75958815D01*
X122108494Y-75879463D01*
X121998180Y-75820498D01*
X121878482Y-75784188D01*
X121754000Y-75771928D01*
X120054000Y-75771928D01*
X119929518Y-75784188D01*
X119809820Y-75820498D01*
X119699506Y-75879463D01*
X119602815Y-75958815D01*
X119523463Y-76055506D01*
X119464498Y-76165820D01*
X119428188Y-76285518D01*
X119415928Y-76410000D01*
X111425000Y-76410000D01*
X111425000Y-71553283D01*
X111454876Y-71703478D01*
X111594036Y-72039441D01*
X111796066Y-72341800D01*
X112053200Y-72598934D01*
X112355559Y-72800964D01*
X112691522Y-72940124D01*
X113048178Y-73011068D01*
X113411822Y-73011068D01*
X113768478Y-72940124D01*
X114104441Y-72800964D01*
X114406800Y-72598934D01*
X114663934Y-72341800D01*
X114865964Y-72039441D01*
X115005124Y-71703478D01*
X115076068Y-71346822D01*
X115076068Y-70983178D01*
X115005124Y-70626522D01*
X114865964Y-70290559D01*
X114663934Y-69988200D01*
X114406800Y-69731066D01*
X114104441Y-69529036D01*
X113768478Y-69389876D01*
X113411822Y-69318932D01*
X113048178Y-69318932D01*
X112691522Y-69389876D01*
X112355559Y-69529036D01*
X112053200Y-69731066D01*
X111796066Y-69988200D01*
X111594036Y-70290559D01*
X111454876Y-70626522D01*
X111425000Y-70776717D01*
X111425000Y-69849446D01*
X115984446Y-65290000D01*
X120685928Y-65290000D01*
X120685928Y-66790000D01*
X120702992Y-66963254D01*
X120753528Y-67129850D01*
X120835595Y-67283386D01*
X120946038Y-67417962D01*
X121080614Y-67528405D01*
X121234150Y-67610472D01*
X121400746Y-67661008D01*
X121574000Y-67678072D01*
X122774000Y-67678072D01*
X122947254Y-67661008D01*
X123113850Y-67610472D01*
X123267386Y-67528405D01*
X123401962Y-67417962D01*
X123512405Y-67283386D01*
X123566777Y-67181663D01*
X123618866Y-67245134D01*
X123844987Y-67430706D01*
X124102967Y-67568599D01*
X124382890Y-67653513D01*
X124674000Y-67682185D01*
X124965111Y-67653513D01*
X125245034Y-67568599D01*
X125503014Y-67430706D01*
X125729134Y-67245134D01*
X125914706Y-67019014D01*
X126052599Y-66761033D01*
X126137513Y-66481110D01*
X126159000Y-66262949D01*
X126159000Y-65817050D01*
X126137513Y-65598889D01*
X126052599Y-65318966D01*
X125914706Y-65060986D01*
X125729134Y-64834866D01*
X125503013Y-64649294D01*
X125245033Y-64511401D01*
X124965110Y-64426487D01*
X124674000Y-64397815D01*
X124382889Y-64426487D01*
X124102966Y-64511401D01*
X123844986Y-64649294D01*
X123618866Y-64834866D01*
X123566777Y-64898337D01*
X123512405Y-64796614D01*
X123401962Y-64662038D01*
X123267386Y-64551595D01*
X123113850Y-64469528D01*
X122947254Y-64418992D01*
X122774000Y-64401928D01*
X121574000Y-64401928D01*
X121400746Y-64418992D01*
X121234150Y-64469528D01*
X121080614Y-64551595D01*
X120946038Y-64662038D01*
X120835595Y-64796614D01*
X120753528Y-64950150D01*
X120702992Y-65116746D01*
X120685928Y-65290000D01*
X115984446Y-65290000D01*
X116994447Y-64280000D01*
X170425554Y-64280000D01*
X175995001Y-69849448D01*
G36*
X131272831Y-119738663D02*
G01*
X131302113Y-119774343D01*
X131444485Y-119891185D01*
X131606917Y-119978006D01*
X131729700Y-120015252D01*
X131783164Y-120031470D01*
X131966456Y-120049523D01*
X132012388Y-120044999D01*
X133385928Y-120044999D01*
X133385928Y-120875001D01*
X131214868Y-120875001D01*
X131235481Y-120816891D01*
X131114814Y-120587000D01*
X129921000Y-120587000D01*
X129921000Y-120607000D01*
X129667000Y-120607000D01*
X129667000Y-120587000D01*
X129647000Y-120587000D01*
X129647000Y-120333000D01*
X129667000Y-120333000D01*
X129667000Y-119139845D01*
X129921000Y-119139845D01*
X129921000Y-120333000D01*
X131114814Y-120333000D01*
X131235481Y-120103109D01*
X131138157Y-119828748D01*
X130989178Y-119578645D01*
X130794269Y-119362412D01*
X130560920Y-119188359D01*
X130298099Y-119063175D01*
X130150890Y-119018524D01*
X129921000Y-119139845D01*
X129667000Y-119139845D01*
X129437110Y-119018524D01*
X129289901Y-119063175D01*
X129027080Y-119188359D01*
X128793731Y-119362412D01*
X128598822Y-119578645D01*
X128529201Y-119695523D01*
X128494706Y-119630986D01*
X128309134Y-119404866D01*
X128083014Y-119219294D01*
X127825034Y-119081401D01*
X127545111Y-118996487D01*
X127326950Y-118975000D01*
X127181050Y-118975000D01*
X126962889Y-118996487D01*
X126682966Y-119081401D01*
X126424986Y-119219294D01*
X126198866Y-119404866D01*
X126013294Y-119630986D01*
X125984000Y-119685791D01*
X125954706Y-119630986D01*
X125769134Y-119404866D01*
X125543014Y-119219294D01*
X125370958Y-119127329D01*
X126625745Y-117872542D01*
X129406711Y-117872542D01*
X131272831Y-119738663D01*
X131272831Y-119738663D01*
G37*
X131272831Y-119738663D02*
X131302113Y-119774343D01*
X131444485Y-119891185D01*
X131606917Y-119978006D01*
X131729700Y-120015252D01*
X131783164Y-120031470D01*
X131966456Y-120049523D01*
X132012388Y-120044999D01*
X133385928Y-120044999D01*
X133385928Y-120875001D01*
X131214868Y-120875001D01*
X131235481Y-120816891D01*
X131114814Y-120587000D01*
X129921000Y-120587000D01*
X129921000Y-120607000D01*
X129667000Y-120607000D01*
X129667000Y-120587000D01*
X129647000Y-120587000D01*
X129647000Y-120333000D01*
X129667000Y-120333000D01*
X129667000Y-119139845D01*
X129921000Y-119139845D01*
X129921000Y-120333000D01*
X131114814Y-120333000D01*
X131235481Y-120103109D01*
X131138157Y-119828748D01*
X130989178Y-119578645D01*
X130794269Y-119362412D01*
X130560920Y-119188359D01*
X130298099Y-119063175D01*
X130150890Y-119018524D01*
X129921000Y-119139845D01*
X129667000Y-119139845D01*
X129437110Y-119018524D01*
X129289901Y-119063175D01*
X129027080Y-119188359D01*
X128793731Y-119362412D01*
X128598822Y-119578645D01*
X128529201Y-119695523D01*
X128494706Y-119630986D01*
X128309134Y-119404866D01*
X128083014Y-119219294D01*
X127825034Y-119081401D01*
X127545111Y-118996487D01*
X127326950Y-118975000D01*
X127181050Y-118975000D01*
X126962889Y-118996487D01*
X126682966Y-119081401D01*
X126424986Y-119219294D01*
X126198866Y-119404866D01*
X126013294Y-119630986D01*
X125984000Y-119685791D01*
X125954706Y-119630986D01*
X125769134Y-119404866D01*
X125543014Y-119219294D01*
X125370958Y-119127329D01*
X126625745Y-117872542D01*
X129406711Y-117872542D01*
X131272831Y-119738663D01*
G36*
X168021000Y-120333000D02*
G01*
X168041000Y-120333000D01*
X168041000Y-120587000D01*
X168021000Y-120587000D01*
X168021000Y-120607000D01*
X167767000Y-120607000D01*
X167767000Y-120587000D01*
X167747000Y-120587000D01*
X167747000Y-120333000D01*
X167767000Y-120333000D01*
X167767000Y-120313000D01*
X168021000Y-120313000D01*
X168021000Y-120333000D01*
X168021000Y-120333000D01*
G37*
X168021000Y-120333000D02*
X168041000Y-120333000D01*
X168041000Y-120587000D01*
X168021000Y-120587000D01*
X168021000Y-120607000D01*
X167767000Y-120607000D01*
X167767000Y-120587000D01*
X167747000Y-120587000D01*
X167747000Y-120333000D01*
X167767000Y-120333000D01*
X167767000Y-120313000D01*
X168021000Y-120313000D01*
X168021000Y-120333000D01*
G36*
X137541000Y-120333000D02*
G01*
X137561000Y-120333000D01*
X137561000Y-120587000D01*
X137541000Y-120587000D01*
X137541000Y-120607000D01*
X137287000Y-120607000D01*
X137287000Y-120587000D01*
X137267000Y-120587000D01*
X137267000Y-120333000D01*
X137287000Y-120333000D01*
X137287000Y-120313000D01*
X137541000Y-120313000D01*
X137541000Y-120333000D01*
X137541000Y-120333000D01*
G37*
X137541000Y-120333000D02*
X137561000Y-120333000D01*
X137561000Y-120587000D01*
X137541000Y-120587000D01*
X137541000Y-120607000D01*
X137287000Y-120607000D01*
X137287000Y-120587000D01*
X137267000Y-120587000D01*
X137267000Y-120333000D01*
X137287000Y-120333000D01*
X137287000Y-120313000D01*
X137541000Y-120313000D01*
X137541000Y-120333000D01*
G36*
X145161000Y-98993000D02*
G01*
X145181000Y-98993000D01*
X145181000Y-99247000D01*
X145161000Y-99247000D01*
X145161000Y-101533000D01*
X145181000Y-101533000D01*
X145181000Y-101787000D01*
X145161000Y-101787000D01*
X145161000Y-102980155D01*
X145390890Y-103101476D01*
X145538099Y-103056825D01*
X145800920Y-102931641D01*
X146034269Y-102757588D01*
X146229178Y-102541355D01*
X146298799Y-102424477D01*
X146333294Y-102489014D01*
X146518866Y-102715134D01*
X146744986Y-102900706D01*
X147002966Y-103038599D01*
X147282889Y-103123513D01*
X147501050Y-103145000D01*
X147646950Y-103145000D01*
X147865111Y-103123513D01*
X148145034Y-103038599D01*
X148403014Y-102900706D01*
X148629134Y-102715134D01*
X148653607Y-102685313D01*
X148674498Y-102754180D01*
X148733463Y-102864494D01*
X148812815Y-102961185D01*
X148909506Y-103040537D01*
X149019820Y-103099502D01*
X149139518Y-103135812D01*
X149264000Y-103148072D01*
X150964000Y-103148072D01*
X151088482Y-103135812D01*
X151208180Y-103099502D01*
X151318494Y-103040537D01*
X151415185Y-102961185D01*
X151494537Y-102864494D01*
X151553502Y-102754180D01*
X151589812Y-102634482D01*
X151593701Y-102595000D01*
X155628711Y-102595000D01*
X157989000Y-104955290D01*
X157989000Y-105104710D01*
X156776630Y-103892341D01*
X156747344Y-103856656D01*
X156604972Y-103739814D01*
X156442540Y-103652993D01*
X156266292Y-103599529D01*
X156128932Y-103586000D01*
X156083000Y-103581476D01*
X156037068Y-103586000D01*
X142432287Y-103586000D01*
X143703727Y-102314560D01*
X143838822Y-102541355D01*
X144033731Y-102757588D01*
X144267080Y-102931641D01*
X144529901Y-103056825D01*
X144677110Y-103101476D01*
X144907000Y-102980155D01*
X144907000Y-101787000D01*
X144887000Y-101787000D01*
X144887000Y-101533000D01*
X144907000Y-101533000D01*
X144907000Y-99247000D01*
X144887000Y-99247000D01*
X144887000Y-98993000D01*
X144907000Y-98993000D01*
X144907000Y-98973000D01*
X145161000Y-98973000D01*
X145161000Y-98993000D01*
X145161000Y-98993000D01*
G37*
X145161000Y-98993000D02*
X145181000Y-98993000D01*
X145181000Y-99247000D01*
X145161000Y-99247000D01*
X145161000Y-101533000D01*
X145181000Y-101533000D01*
X145181000Y-101787000D01*
X145161000Y-101787000D01*
X145161000Y-102980155D01*
X145390890Y-103101476D01*
X145538099Y-103056825D01*
X145800920Y-102931641D01*
X146034269Y-102757588D01*
X146229178Y-102541355D01*
X146298799Y-102424477D01*
X146333294Y-102489014D01*
X146518866Y-102715134D01*
X146744986Y-102900706D01*
X147002966Y-103038599D01*
X147282889Y-103123513D01*
X147501050Y-103145000D01*
X147646950Y-103145000D01*
X147865111Y-103123513D01*
X148145034Y-103038599D01*
X148403014Y-102900706D01*
X148629134Y-102715134D01*
X148653607Y-102685313D01*
X148674498Y-102754180D01*
X148733463Y-102864494D01*
X148812815Y-102961185D01*
X148909506Y-103040537D01*
X149019820Y-103099502D01*
X149139518Y-103135812D01*
X149264000Y-103148072D01*
X150964000Y-103148072D01*
X151088482Y-103135812D01*
X151208180Y-103099502D01*
X151318494Y-103040537D01*
X151415185Y-102961185D01*
X151494537Y-102864494D01*
X151553502Y-102754180D01*
X151589812Y-102634482D01*
X151593701Y-102595000D01*
X155628711Y-102595000D01*
X157989000Y-104955290D01*
X157989000Y-105104710D01*
X156776630Y-103892341D01*
X156747344Y-103856656D01*
X156604972Y-103739814D01*
X156442540Y-103652993D01*
X156266292Y-103599529D01*
X156128932Y-103586000D01*
X156083000Y-103581476D01*
X156037068Y-103586000D01*
X142432287Y-103586000D01*
X143703727Y-102314560D01*
X143838822Y-102541355D01*
X144033731Y-102757588D01*
X144267080Y-102931641D01*
X144529901Y-103056825D01*
X144677110Y-103101476D01*
X144907000Y-102980155D01*
X144907000Y-101787000D01*
X144887000Y-101787000D01*
X144887000Y-101533000D01*
X144907000Y-101533000D01*
X144907000Y-99247000D01*
X144887000Y-99247000D01*
X144887000Y-98993000D01*
X144907000Y-98993000D01*
X144907000Y-98973000D01*
X145161000Y-98973000D01*
X145161000Y-98993000D01*
G36*
X143793294Y-66869014D02*
G01*
X143978866Y-67095134D01*
X144099000Y-67193726D01*
X144099001Y-89114707D01*
X140515340Y-92698369D01*
X140479655Y-92727655D01*
X140362813Y-92870028D01*
X140275992Y-93032460D01*
X140228203Y-93190000D01*
X140222528Y-93208708D01*
X140204475Y-93391999D01*
X140208999Y-93437932D01*
X140209000Y-94642060D01*
X140204475Y-94688001D01*
X140222528Y-94871292D01*
X140237715Y-94921355D01*
X140275993Y-95047541D01*
X140362814Y-95209973D01*
X140479656Y-95352345D01*
X140515335Y-95381626D01*
X142732361Y-97598653D01*
X142761643Y-97634333D01*
X142904015Y-97751175D01*
X143016615Y-97811360D01*
X142902814Y-97950027D01*
X142864124Y-98022412D01*
X142815993Y-98112459D01*
X142762528Y-98288708D01*
X142744475Y-98471999D01*
X142749000Y-98517941D01*
X142748999Y-100624710D01*
X141433480Y-101940230D01*
X141280250Y-101787000D01*
X140081000Y-101787000D01*
X140081000Y-101807000D01*
X139827000Y-101807000D01*
X139827000Y-101787000D01*
X139807000Y-101787000D01*
X139807000Y-101533000D01*
X139827000Y-101533000D01*
X139827000Y-100333750D01*
X140081000Y-100333750D01*
X140081000Y-101533000D01*
X141280250Y-101533000D01*
X141439000Y-101374250D01*
X141442072Y-100810000D01*
X141429812Y-100685518D01*
X141393502Y-100565820D01*
X141334537Y-100455506D01*
X141255185Y-100358815D01*
X141158494Y-100279463D01*
X141048180Y-100220498D01*
X140928482Y-100184188D01*
X140804000Y-100171928D01*
X140239750Y-100175000D01*
X140081000Y-100333750D01*
X139827000Y-100333750D01*
X139668250Y-100175000D01*
X139104000Y-100171928D01*
X138979518Y-100184188D01*
X138859820Y-100220498D01*
X138749506Y-100279463D01*
X138652815Y-100358815D01*
X138573463Y-100455506D01*
X138514498Y-100565820D01*
X138493607Y-100634687D01*
X138469134Y-100604866D01*
X138243014Y-100419294D01*
X137985034Y-100281401D01*
X137705111Y-100196487D01*
X137486950Y-100175000D01*
X137341050Y-100175000D01*
X137122889Y-100196487D01*
X136842966Y-100281401D01*
X136584986Y-100419294D01*
X136358866Y-100604866D01*
X136173294Y-100830986D01*
X136144000Y-100885791D01*
X136114706Y-100830986D01*
X135929134Y-100604866D01*
X135809000Y-100506275D01*
X135809000Y-100503854D01*
X135813524Y-100457919D01*
X135795472Y-100274627D01*
X135755844Y-100143993D01*
X135742007Y-100098379D01*
X135655186Y-99935947D01*
X135538344Y-99793575D01*
X135502659Y-99764289D01*
X133407711Y-97669341D01*
X133378425Y-97633656D01*
X133236053Y-97516814D01*
X133073621Y-97429993D01*
X132897373Y-97376529D01*
X132760013Y-97363000D01*
X132714081Y-97358476D01*
X132668149Y-97363000D01*
X130729000Y-97363000D01*
X130729000Y-96145289D01*
X143122666Y-83751624D01*
X143158344Y-83722344D01*
X143275186Y-83579972D01*
X143362007Y-83417540D01*
X143415471Y-83241292D01*
X143429000Y-83103932D01*
X143429000Y-83103931D01*
X143433524Y-83058001D01*
X143429000Y-83012069D01*
X143429000Y-67193725D01*
X143549134Y-67095134D01*
X143734706Y-66869014D01*
X143764000Y-66814209D01*
X143793294Y-66869014D01*
X143793294Y-66869014D01*
G37*
X143793294Y-66869014D02*
X143978866Y-67095134D01*
X144099000Y-67193726D01*
X144099001Y-89114707D01*
X140515340Y-92698369D01*
X140479655Y-92727655D01*
X140362813Y-92870028D01*
X140275992Y-93032460D01*
X140228203Y-93190000D01*
X140222528Y-93208708D01*
X140204475Y-93391999D01*
X140208999Y-93437932D01*
X140209000Y-94642060D01*
X140204475Y-94688001D01*
X140222528Y-94871292D01*
X140237715Y-94921355D01*
X140275993Y-95047541D01*
X140362814Y-95209973D01*
X140479656Y-95352345D01*
X140515335Y-95381626D01*
X142732361Y-97598653D01*
X142761643Y-97634333D01*
X142904015Y-97751175D01*
X143016615Y-97811360D01*
X142902814Y-97950027D01*
X142864124Y-98022412D01*
X142815993Y-98112459D01*
X142762528Y-98288708D01*
X142744475Y-98471999D01*
X142749000Y-98517941D01*
X142748999Y-100624710D01*
X141433480Y-101940230D01*
X141280250Y-101787000D01*
X140081000Y-101787000D01*
X140081000Y-101807000D01*
X139827000Y-101807000D01*
X139827000Y-101787000D01*
X139807000Y-101787000D01*
X139807000Y-101533000D01*
X139827000Y-101533000D01*
X139827000Y-100333750D01*
X140081000Y-100333750D01*
X140081000Y-101533000D01*
X141280250Y-101533000D01*
X141439000Y-101374250D01*
X141442072Y-100810000D01*
X141429812Y-100685518D01*
X141393502Y-100565820D01*
X141334537Y-100455506D01*
X141255185Y-100358815D01*
X141158494Y-100279463D01*
X141048180Y-100220498D01*
X140928482Y-100184188D01*
X140804000Y-100171928D01*
X140239750Y-100175000D01*
X140081000Y-100333750D01*
X139827000Y-100333750D01*
X139668250Y-100175000D01*
X139104000Y-100171928D01*
X138979518Y-100184188D01*
X138859820Y-100220498D01*
X138749506Y-100279463D01*
X138652815Y-100358815D01*
X138573463Y-100455506D01*
X138514498Y-100565820D01*
X138493607Y-100634687D01*
X138469134Y-100604866D01*
X138243014Y-100419294D01*
X137985034Y-100281401D01*
X137705111Y-100196487D01*
X137486950Y-100175000D01*
X137341050Y-100175000D01*
X137122889Y-100196487D01*
X136842966Y-100281401D01*
X136584986Y-100419294D01*
X136358866Y-100604866D01*
X136173294Y-100830986D01*
X136144000Y-100885791D01*
X136114706Y-100830986D01*
X135929134Y-100604866D01*
X135809000Y-100506275D01*
X135809000Y-100503854D01*
X135813524Y-100457919D01*
X135795472Y-100274627D01*
X135755844Y-100143993D01*
X135742007Y-100098379D01*
X135655186Y-99935947D01*
X135538344Y-99793575D01*
X135502659Y-99764289D01*
X133407711Y-97669341D01*
X133378425Y-97633656D01*
X133236053Y-97516814D01*
X133073621Y-97429993D01*
X132897373Y-97376529D01*
X132760013Y-97363000D01*
X132714081Y-97358476D01*
X132668149Y-97363000D01*
X130729000Y-97363000D01*
X130729000Y-96145289D01*
X143122666Y-83751624D01*
X143158344Y-83722344D01*
X143275186Y-83579972D01*
X143362007Y-83417540D01*
X143415471Y-83241292D01*
X143429000Y-83103932D01*
X143429000Y-83103931D01*
X143433524Y-83058001D01*
X143429000Y-83012069D01*
X143429000Y-67193725D01*
X143549134Y-67095134D01*
X143734706Y-66869014D01*
X143764000Y-66814209D01*
X143793294Y-66869014D01*
G36*
X142621000Y-93913000D02*
G01*
X142641000Y-93913000D01*
X142641000Y-94167000D01*
X142621000Y-94167000D01*
X142621000Y-94187000D01*
X142367000Y-94187000D01*
X142367000Y-94167000D01*
X142347000Y-94167000D01*
X142347000Y-93913000D01*
X142367000Y-93913000D01*
X142367000Y-93893000D01*
X142621000Y-93893000D01*
X142621000Y-93913000D01*
X142621000Y-93913000D01*
G37*
X142621000Y-93913000D02*
X142641000Y-93913000D01*
X142641000Y-94167000D01*
X142621000Y-94167000D01*
X142621000Y-94187000D01*
X142367000Y-94187000D01*
X142367000Y-94167000D01*
X142347000Y-94167000D01*
X142347000Y-93913000D01*
X142367000Y-93913000D01*
X142367000Y-93893000D01*
X142621000Y-93893000D01*
X142621000Y-93913000D01*
M02*
